<?xml version="1.0" encoding="utf-8"?>
<!-- Generator: Adobe Illustrator 21.1.0, SVG Export Plug-In . SVG Version: 6.00 Build 0)  -->
<svg version="1.1" xmlns="http://www.w3.org/2000/svg" xmlns:xlink="http://www.w3.org/1999/xlink" x="0px" y="0px"
	 viewBox="0 0 348.4 316.5" style="enable-background:new 0 0 348.4 316.5;" xml:space="preserve">
<style type="text/css">
	.st0{fill:#CCCCCB;}
</style>
<g id="Layer_3">
	<g>
		<g>
			<g>
				<g>
					<g>
						<path class="st0" d="M162.3,59.8C162.4,59.8,162.4,59.7,162.3,59.8L162.3,59.8z"/>
						<path class="st0" d="M137.1,104.1C137.1,104.1,137.1,104.1,137.1,104.1c0.1,0.2,0.3,0.3,0.4,0.4L137.1,104.1z"/>
						<path class="st0" d="M131.9,110.5C131.8,110.5,131.8,110.5,131.9,110.5C131.9,110.6,132,110.6,131.9,110.5z"/>
						<path class="st0" d="M145.2,86.9c0-0.1,0-0.1,0-0.2C145.2,86.8,145.2,86.9,145.2,86.9z"/>
						<path class="st0" d="M169.5,46.6C169.5,46.6,169.5,46.6,169.5,46.6c0,0,0.1,0,0.1,0L169.5,46.6z"/>
						<path class="st0" d="M169.7,46.9c-0.2,0.1-0.2-0.2-0.2-0.3c-0.3,0-0.5,0.2-0.5,0.4C169.3,47.2,169.5,46.9,169.7,46.9z"/>
						<path class="st0" d="M183.5,23.2l0.1,0.1C183.5,23.3,183.5,23.2,183.5,23.2z"/>
						<path class="st0" d="M131.8,79.8c0,0,0-0.1,0-0.1C131.8,79.7,131.8,79.7,131.8,79.8z"/>
						<path class="st0" d="M180.9,26.6l0.4,0.3C181.1,26.8,181,26.7,180.9,26.6z"/>
						<path class="st0" d="M137.5,104.5l0.1,0.1C137.6,104.6,137.5,104.5,137.5,104.5z"/>
						<path class="st0" d="M127.7,116.9c-0.1-0.1-0.2-0.1-0.3-0.2c0,0,0,0,0,0L127.7,116.9z"/>
						<path class="st0" d="M101.7,146c0.1,0,0.1,0.1,0.2,0.1l-0.2-0.3C101.6,145.8,101.7,145.9,101.7,146z"/>
						<path class="st0" d="M120.6,124.8c0,0,0.1,0.1,0.1,0.1c0.2-0.1,0.5-0.5,0.8-1l-0.5-0.3L120.6,124.8z"/>
						<path class="st0" d="M102.8,127.5l1.6-0.3c-1.3,3.4-3.2,4.2-3.9,7.3l-0.1-0.3c-0.5,0.2,1.8,1.8-3.6,4.4l-0.1-0.1
							c-0.1,0.2,0.1,0.3-0.3,0.4l1.1-0.4c0,0.6,0.3,1.3,0,1.9c-0.2,0.1-0.4,0-0.6-0.1l-0.7,1.5l-0.9,0c0.1,0.7,1.7,1.3,0.2,2
							c1.2,0.1,0.3,0.9,0.8,1.1c-0.2,0-0.4,0-0.7,0c-0.3,0.8-0.8,2.2-0.5,2.9c0,0,3.7-1.5,5.2-1.6c-0.8,0.8,0,0.3,0.4,0.3l-0.2-0.2
							c0.6-0.4,1.2-0.1,1.6-0.3c-0.1,0-0.1-0.1-0.2-0.1l0.1,0.1c-0.1,0-0.2-0.1-0.2-0.2c-0.1-0.1-0.2-0.2-0.1-0.3l0,0.1
							c0.1-0.3,0.4-0.7,0.5-0.8l0.5,0.3c-0.7-1,3.2-2.1,3.6-2.6c1-0.2,0.6-1.4,1.4-2c0.9-1.1,1.1-0.1,1.9-0.5
							c0.8-0.5-0.7-0.2-0.6-0.5l1.2-0.5c-0.2,0.5,0.2,0.5,0.5,0.5c0.5-0.7,2.2-1.3,1.3-2.2c1.1-0.7,1.5-0.5,1.8-0.9
							c-0.3,0-0.6,0.2-0.8,0.1c0.7-0.1,0-0.3-0.2-0.2c-0.1-0.9,3.8-2.1,2.7-2.9l0.2,0.1c-0.8-0.6-1.7-0.9-1.9-1.6l0.6-0.1l-0.1-0.7
							c0.4-0.1,0.6,0.1,0.7,0.2c0-0.9,1.1-1.7,1.7-2.5l-2.9-0.4c1-0.4,2.8-1.1,2.2-1.7l1,0c2.3-0.6,0-1.4,0.7-1.7l1.3-0.2l-0.4,0.7
							c0.9-0.5,1.3-0.6,2.2-0.9c0,0,0,0,0,0c-0.1,0-0.1,0-0.2,0l0-0.1c-0.4-0.3-0.4-0.9-0.1-1.4c0.5-0.7,0.3-1.6,1.8-2.2l-0.7-0.8
							l1-0.6l0.7,0.4c-0.5,0.8-1.2,2.6-1.8,3.7l0.3,0.2c0.4-0.7,0.5-1.6,0.8-2c0.3-0.1,1.3-0.2,1.5,0.4l-0.4-0.8
							c1.2-2.2,1.2-2.3,3.3-4.1l-0.5,0c0.1-0.6,0.1-1.1,0.8-0.9c0.9-1.3,2.2-2.5,3.6-2.8l-0.7-0.7c0.2-0.3,1.7,0,0.6-0.8l0-0.8
							c0.3-0.4,0-0.9,0.7-1l0,0l0,0c0,0,0.1,0,0.1,0c0,0,0,0-0.1,0c0.9-0.7-0.7-0.4,0.3-1.2c0.8,0-0.8-1-0.3-1.4l1.5,0.2
							c1.2-0.5,0.1-1.4,0.9-2.7c0.8-0.4,2-0.1,2.6,0.8c-0.7-1.2-0.5-0.7-0.6-1.7c0.5,0.1,0.6,0.3,0.8,0.7c0.9-0.4-0.1-0.7,0.2-1.1
							c-0.7-0.6-2-1.6-1.9-1.8l-0.4,0c-0.1-0.8,0-1.5,0.8-1.9l0.4,0.3l0.2-0.8l0.6,0.3l0.4-1l-0.2,0c0.1-0.3,0.3-1.1,0.8-1.4
							l0.3,0.2c1.6-0.6,1-2.3,1.7-3.8l0.5,0.5c0.9-0.1-0.8-0.7-0.2-1.1l0.8,0.4c-0.7-1.1,0.6-0.5,1.2-0.6l-1.1-0.4l0.6-0.5
							c0.7-0.5,1.5,0.3,1.9,0.7l-0.5-0.9l0.9,0.4c-0.8-0.9,0.4-0.3,0.2-1.2c0.4,0.1,0.4,0.4,0.7,0.3l-0.6-1.7l0.2,0.9l-1.2-0.8
							c-0.6-1.2,0.7-0.8,0.6-1.4l0.2,0.5c0.1-0.9,0.7-0.6,1.2-0.9c-0.3,0-0.8,0-0.8-0.4c0.1-0.3,0.5,0.1,0.8,0
							c-0.8-0.5-0.9-1.3-0.2-1.6c0.1,0.1,0.2,0.2,0.3,0.2c-0.1-0.2-0.2-0.4,0.1-0.5l0.8,0.7l-0.6-0.9c0.4-0.1,0-0.9,0.6-0.5l0.1,0.3
							l1.5-1.9l0.8,0.4c-0.9-0.8,1.1-0.9-0.2-1.6c0.9,0,0.4-1.8,1.7-0.7c0.9-1.3,0-2.9,1.7-4.1c1.6,0.1,2.2-1.7,2.9-2.7
							c0.8-2.4,1.1-4,2-6.3c2.5-0.2,1.4-3.5,3.2-4.3l-0.4-0.8c1.6-0.3,1.2-2.4,3-3.1c-0.1-0.5-0.1-0.7-0.1-0.8c-0.1,0-0.3,0-0.7-0.2
							c0.5-0.2,0.6-1.1,1.4-0.6l0,0.1c0.8,0.6,0.3-1.3,1.3-1.3l-1-0.3l0.6-0.6l0.1,0.3c-0.1-4.2,3.6-3.8,3.6-7.7
							c0.7,1-0.2-0.9,0.9-0.2c1.8,0.2,0.5-1.5,0.5-2.3c-0.1,0-0.1-0.1-0.2-0.2l0.8-0.9c1,1.5-0.7-1.4,0.1-0.2c2.7-2,3.9-6.1,6.3-8.8
							l-0.4-0.1c0.6-0.7,0.8-2,1.7-2.2c0.9-0.2-0.1-1.8,0-2.1c-0.2-1,1.4-0.8,1.1-0.6c0.3-0.8-0.5-2.2,0.6-2.8
							c1.4,0.4,0.5-3.3,1.8-2.5l-0.1-0.1c1.7-0.6,0.9-2.8,2.5-3.6c0,0,0.1,0.1,0.1,0.2l-2.2-5.2l-4.8-2.1l-5,0l-3.3,6.8l-4.6,4.2
							l-7.4,12.6l0.4,1.5c-3.3,1.3-3.3,5.7-6.2,7.5l0.8,0.6c-0.4,0.8-0.9,0.4-1.2,0.5c-4.2,6.9-7.4,14.7-12.2,20.3
							c-0.9,0.3-1.7,2.3-2.6,2.4c-0.2,2.7-1.5,4.8-2.8,6.7l0-0.1l-0.4,1.1c-0.1,0-0.2-0.1-0.2-0.1c0.1,1.5-1.7,2.8-2.8,3.9l0-0.1
							c-4.8,7.6-7.4,15.7-13.1,22.7c-3.5,2.7-4,8-7.6,11.4C107,117.9,102.8,126.6,102.8,127.5z"/>
						<path class="st0" d="M96.8,140.4L96.8,140.4C96.5,140.1,96.6,140.3,96.8,140.4z"/>
						<polygon class="st0" points="116.7,129.1 116.7,129.1 117.3,129.2 						"/>
						<path class="st0" d="M110.6,140.2c0.4-0.4,0.3-0.5,0.1-0.5C110.6,139.8,110.6,140,110.6,140.2z"/>
						<path class="st0" d="M95.2,144.8c-0.2,0.2,0.1,0.3,0.4,0.3c0.1-0.3,0.2-0.5,0.2-0.5C95.6,144.7,95.4,144.7,95.2,144.8z"/>
						<path class="st0" d="M100.7,146.6l0.2,0.3C101,146.7,100.9,146.6,100.7,146.6z"/>
					</g>
				</g>
			</g>
		</g>
	</g>
	<g>
		<g>
			<g>
				<g>
					<g>
						<path class="st0" d="M148.2,224.1C148.2,224,148.1,224,148.2,224.1L148.2,224.1z"/>
						<path class="st0" d="M176.2,264.3L176.2,264.3c-0.2-0.3-0.3-0.5-0.5-0.6L176.2,264.3z"/>
						<path class="st0" d="M177.8,258.7C177.9,258.6,177.9,258.6,177.8,258.7C177.8,258.6,177.6,258.5,177.8,258.7z"/>
						<path class="st0" d="M175.1,268.4c0-0.1,0,0,0,0.1C175.1,268.5,175.1,268.4,175.1,268.4z"/>
						<path class="st0" d="M132.3,200.3C132.3,200.3,132.3,200.3,132.3,200.3c0.1,0,0.1-0.1,0.1-0.2L132.3,200.3z"/>
						<path class="st0" d="M132.7,200.4c0,0.4-0.3,0.1-0.4-0.1c-0.1,0.5,0.1,0.8,0.4,1.1C133,201.3,132.6,200.7,132.7,200.4z"/>
						<path class="st0" d="M108,153.3l0.2,0.1C108.1,153.3,108,153.3,108,153.3z"/>
						<path class="st0" d="M174.6,299.8c-0.1,0-0.1,0-0.2,0C174.6,299.9,174.6,299.9,174.6,299.8z"/>
						<path class="st0" d="M111.3,161l0.5-0.1C111.6,160.9,111.5,160.9,111.3,161z"/>
						<path class="st0" d="M175.7,263.6l-0.2-0.2C175.6,263.4,175.6,263.5,175.7,263.6z"/>
						<path class="st0" d="M179.1,244c0.2,0,0.3,0,0.4-0.1c0,0,0,0,0,0L179.1,244z"/>
						<path class="st0" d="M222.4,206.5c0-0.1,0-0.1,0-0.2l-0.3,0.3C222.3,206.6,222.4,206.5,222.4,206.5z"/>
						<path class="st0" d="M182.3,224c-0.1,0-0.1-0.1-0.2-0.1c-0.2,0.3-0.3,1.2-0.3,2.4l0.6,0.1L182.3,224z"/>
						<path class="st0" d="M196.9,213.6c-0.3-0.4-0.8-0.9-1.3-1.3c0.2-0.2,0.5-0.1,0.8-0.1c0.3,0,0.6,0.1,0.8,0.2l0.2,0.1
							c0,0,0,0,0.1,0l0.5,0c0.6,0.1,1.2,0.1,1.8,0.1c1.3,0,2.6,0,4.1-0.1l-0.3,0.2c0.9,0.3,1.5-2.3,11,1.4l0,0.1
							c0.3,0,0.3-0.2,1,0.1l-1.6-0.8c1-0.3,1.9-0.8,3.2-0.8c0.3,0.1,0.4,0.4,0.4,0.6l3.3-0.1l1,0.8c1-0.4,0.6-2.1,3.2-1.1
							c-1-1.2,1.3-0.7,1-1.2c0.1,0.1,0.4,0.4,0.7,0.6c1.6-0.1,4.6-0.4,5.3-0.9c0,0-6.2-2.5-7.8-3.8c2.2,0.4,0.6-0.1,0.2-0.5
							l-0.2,0.3c-1.3-0.3-1.3-1-2-1.3c0,0.1,0,0.1,0,0.2l0.1-0.1c0.1,0.1,0,0.2-0.1,0.3c0,0.2-0.1,0.3-0.4,0.2l0.1-0.1
							c-0.6,0.1-1.5-0.1-1.9-0.1l0-0.6c-1,1.1-6.5-2-7.8-2.1c-1.3-0.8-3,0.1-4.6-0.4c-2.6-0.3-1.3-0.9-2.6-1.5
							c-1.6-0.5,0.3,0.7-0.4,0.7l-1.9-0.9c1.1,0,0.5-0.4,0.4-0.7c-1.7-0.2-4.3-1.5-4.9-0.3c-1.6-0.4-2.5-0.7-3.2-1
							c-0.7-0.2-1.1-0.4-1.8-0.5c0.6,0.3,1.6,0.5,1.7,0.8c-1.5-0.6-0.6,0.1,0,0.2c-0.5,0.1-1.4-0.1-2.6-0.3
							c-1.2-0.2-2.5-0.4-3.8-0.6c-2.2,0.1-4.3,0.3-3.9,1.2l-0.2-0.2c0.2,0.5,0.6,0.8,0.9,1.2c0.3,0.3,0.5,0.7,0.6,1.5l-0.5,0.4
							c0,0.5,0.1,0.9,0.1,1.4c-0.4,0.6-0.6,0-0.7-0.1c0,0.9-0.2,1.8-0.4,2.7c-0.1,1.5-0.4,3.2-0.5,4.8c0.9-0.8,1.8-1.5,2.8-1.9
							c-0.3,0.8-0.8,2.1-1.2,3.3c-0.3,1-0.4,1.8,0,2l-0.9,1c-1.8,3.2,0.7,2.3,0.1,3.6l-1,1.6l0.1-1.6c-0.6,1.6-0.9,2.3-1.6,3.6
							c0,0,0,0,0,0c0-0.1,0.1-0.1,0.2-0.2l0,0.2c0.5,0.2,0.8,1.1,0.7,2.3c-0.2,1.6,0.4,3-0.7,5.5l1,0.7l-0.7,1.9l-0.8,0
							c0.2-1.9,0-5.6,0.1-8.1l-0.4-0.1c-0.1,1.5,0.2,3.2,0.1,4.1c-0.2,0.5-1.1,1.6-1.6,0.7l0.7,0.9c-0.2,4.9-0.1,5-1.3,10l0.4-0.4
							c0.2,1,0.3,2.1-0.3,2.3c-0.3,3.1-1,6.2-2.2,8.1l0.9,0.5c-0.1,0.6-1.6,1.5-0.3,1.9l0.3,1.4c-0.1,0.9,0.4,1.5-0.3,2.4l0,0l0,0
							c0,0.1-0.1,0.1-0.1,0.2c0,0,0.1,0,0.1,0c-0.6,2,0.8,0,0.1,2.3c-0.7,0.7,1.1,0.9,0.8,2l-0.7,0.5c-0.1,0.1-0.2,0.1-0.3,0.1
							l-0.3,0c-0.4,0.2-0.3,0.3,0,0.5c0.2,0.2,0.5,0.6,0.5,1.1c-0.2,0-0.6-0.2-1.1-0.5c-0.4-0.4-1-0.9-1.4-1.3
							c0.6,0.5,0.8,0.7,0.9,0.9c0.1,0.1,0.1,0.2,0.4,0.6c-0.5-0.5-0.6-0.7-1-1.1c-0.6-0.6,0.4,0.5,0.4,0.6c0.9,1.2,2.2,3.3,2.3,3.5
							l0.3,0.2c0.4,1.1,0.6,2.2,0.1,2l-0.4-0.8l0.2,1L178,269l0.1,1.1l0.1,0.2c0.1,0.3,0.2,1.5-0.1,1l-0.3-0.8
							c-0.5-0.9-0.4-0.4-0.3,0.6c0.1,1,0.4,2.6,0.4,3.4l-0.5-2.4c-0.5-1.9,0.8,3.6,0.5,2.9l-0.6-2.9c0.3,2.1,0.1,1.9-0.1,0.9
							c-0.2-0.9-0.5-2.5-0.6-3.3l0.7,3.8l-0.3-1.2c-0.4-1.6-0.8-4.6-1-6.5c0.1,0.9,0.2,1.8,0.3,2.6l-0.4-3c0.2,1.7,0.2,1.5,0.1,1.2
							c-0.1-0.4-0.1-0.9-0.1-0.1c-0.1-0.9-0.1-0.9-0.2-2.1c0.1,1.3,0.2,2.4,0.2,3.5c0-0.4,0-0.9,0-1.4l0.3,3.9c0,1.3-0.1,1-0.1,0.6
							c-0.1-0.4-0.2-1.1-0.2-0.7l0-0.9c-0.2,0.4-0.2-1.1-0.3-1.9c0,0.6,0.1,1.7,0,1.9c-0.1,0,0-1.2-0.1-1.6c0,2.1-0.3,2.7-0.4,1.5
							c0-0.3,0-0.5,0.1-0.7c0,0.1-0.1,0.4-0.1,0.4c0,0,0-0.1,0-0.3l0.2-1.9c-0.1,0.6-0.2,1.1-0.3,1.7c0-0.7-0.3,0.4-0.1-0.8l0.1-0.3
							l-0.4-1.4l0.4-1.1c-0.3,0.7-0.3,0.4-0.3,0.3c0-0.2,0-0.3-0.5,0.5c0.2-0.5,0-0.5-0.1-0.6c-0.1-0.1-0.1-0.3,0.5-0.8
							c-0.1-0.2-0.2-0.2-0.3-0.3l-0.1,0l-0.1,0c0,0,0,0-0.1-0.1c-0.2-0.2-0.4-0.5-0.7-0.7c-0.9-1-1.7-2.1-2.3-4
							c0.6-1.9-1.7-5-2.8-7.2c-3-3.9-5.1-6.3-8.2-10.3c0-3.6-4.7-5.8-5.5-9l-1.1-0.3c-0.2-2.4-3.2-4.2-3.9-7.3
							c-0.7-0.4-1-0.6-1.1-0.8c0,0.1,0,0.4-0.3,0.7c-0.2-0.9-1.5-2-0.6-2.5l0.2,0.1c0.9-0.5-1.8-1.8-1.6-3l-0.6,1l-0.7-1.4l0.4,0.2
							c-2.8-2.2-3.9-4.3-5-6.5c-1-2.2-1.9-4.3-4.5-6.5c1.4,0.1-1.1-0.8-0.1-1.5c0.6-2.2-1.7-2.4-2.8-3.3c-0.1,0-0.1,0.1-0.2,0
							l-1-2.1c2.1,0.4-2-0.8-0.2-0.4c-1.8-5.8-6.4-12.2-9-18.8l-0.2,0.5c-0.7-1.6-2.1-3.4-2.1-4.9c0-1.5-2.2-2.2-2.5-2.6
							c-1.3-1-0.6-2.9-0.4-2.3c-0.9-1.3-2.8-2.1-3.2-4.3c0.9-1.3-3.8-4.8-2.5-5.6l-0.1,0c-0.3-3-3.1-4.6-3.5-7.8c0,0,0.1,0,0.3,0.1
							l-6.9-3.5l-3.9,3.8l-1.4,6.6l7.1,12.7l3.6,11.2c4.3,8.4,8.8,16.9,13.6,25.3l2,1.2c1,6,6.9,11.1,9.1,17l0.9-0.4
							c1,1.4,0.4,1.6,0.5,2.1c4.6,6.6,9.5,12.8,13.8,19c4.3,6.2,8.1,12.5,10.9,18.9c0,0.7,0.6,1.9,1.2,3.1c0.1,0.3,0.3,0.6,0.4,0.9
							c0.2,0.4,0.3,0.8,0.5,1.1c0.4,0.9,0.7,1.8,0.8,2.3c4.9,6.6,8.6,14.1,12.4,22l0.3,0.4l-0.2,0l0.9,1.2l0.5,0.6
							c0.1,0.1,0.2,0.2,0.2,0.3l0.2,0.1c0.1,0.2,0.1,0.5,0,0.6c0.5-0.1,1,0.2,1.6,0.6c0.3,0.2,0.6,0.5,0.9,0.7
							c0.2,0.2,0.5,0.4,0.8,0.6c0.5,0.4,1,0.9,1.6,1.3c0.4,0.3,0.9,0.7,1.3,0.9l-0.1,0.1c0.6,0.2,1,0.2,1.4,0.3l0.3,0
							c0.1,0,0.2,0,0.5,0c0.3,0,0.7-0.1,0.9-0.2c0.3-0.1,0.3-0.1,0.4-0.2c0.4-0.3,0.9-0.6,1.3-0.9l0.6-0.5l0.2-0.1
							c0.1-0.1,0.1-0.2,0.2-0.2l0.4-0.5c0.5-0.6,1-1.3,1.5-1.9l0.4-0.5l0.2-0.2c0-0.1,0.1-0.1,0.1-0.1l0.1-0.3l0.5-2.3
							c0.3-1.5,0.7-3,1-4.5c0.1-0.4,0.2-0.7,0.2-1.1l0.1-1.5l0.2-2.9c0.6-7.5,1.2-14.9,1.7-22.4c0.3-4.2,0.8-8.5,1.4-12.8
							c2.2-8,0.4-17.5,2.2-26.7c0.3-0.5,0.6-2.7,0.7-5.5c0.1-1.4,0.1-3,0.1-4.5c0-0.1-0.1-0.1-0.1-0.1c-0.1-0.1-0.2-0.2-0.2-0.3
							C196.9,213.8,196.9,213.7,196.9,213.6z"/>
						<path class="st0" d="M217.6,213.3L217.6,213.3C217.5,213.8,217.6,213.6,217.6,213.3z"/>
						<path class="st0" d="M184,212.6c0-0.1,0-0.1,0-0.2c-0.2,0.2-0.4,0.4-0.6,0.6L184,212.6z"/>
						<path class="st0" d="M204.2,200.9c-1.1-0.2-1.1-0.1-1,0.1C203.6,201,204,201,204.2,200.9z"/>
						<path class="st0" d="M226.7,212.8c0.6,0,0.4-0.2,0-0.5c-0.6,0-1,0.1-1,0.1C226.1,212.5,226.4,212.7,226.7,212.8z"/>
						<path class="st0" d="M224.5,207.1l0.2-0.3C224.3,206.8,224.3,206.9,224.5,207.1z"/>
					</g>
				</g>
			</g>
		</g>
	</g>
	<g>
		<g>
			<g>
				<g>
					<g>
						<path class="st0" d="M225.8,179C225.7,179,225.8,179,225.8,179L225.8,179z"/>
						<path class="st0" d="M225.4,149.8C225.4,149.8,225.4,149.8,225.4,149.8c-0.2-0.1-0.4-0.1-0.5-0.1L225.4,149.8z"/>
						<path class="st0" d="M226.9,145.2C226.9,145.2,226.9,145.2,226.9,145.2C226.8,145.2,226.7,145.2,226.9,145.2z"/>
						<path class="st0" d="M226.8,160.7C226.8,160.7,226.8,160.8,226.8,160.7C226.8,160.7,226.8,160.7,226.8,160.7z"/>
						<path class="st0" d="M226.6,187.6C226.6,187.6,226.6,187.6,226.6,187.6c-0.1,0-0.1,0-0.1,0L226.6,187.6z"/>
						<path class="st0" d="M226.3,187.5c0.1-0.1,0.3,0,0.3,0.1c0.3-0.1,0.3-0.2,0.2-0.3C226.5,187.2,226.5,187.4,226.3,187.5z"/>
						<path class="st0" d="M227.3,203.1l-0.1,0C227.2,203.1,227.2,203.1,227.3,203.1z"/>
						<path class="st0" d="M242,160.8C242,160.9,242,160.9,242,160.8C242,160.9,242,160.9,242,160.8z"/>
						<path class="st0" d="M227.6,200.7l-0.5,0C227.3,200.7,227.5,200.7,227.6,200.7z"/>
						<path class="st0" d="M224.9,149.7l-0.2,0C224.8,149.7,224.8,149.7,224.9,149.7z"/>
						<path class="st0" d="M227.4,140.9c0.2,0,0.3,0,0.4,0c0,0,0,0,0,0L227.4,140.9z"/>
						<path class="st0" d="M236.6,119.7c-0.1,0-0.1,0-0.2,0l0.3,0.1C236.7,119.8,236.7,119.7,236.6,119.7z"/>
						<path class="st0" d="M229.9,135.1c-0.1,0-0.1,0-0.2,0c-0.2,0.1-0.2,0.4-0.2,0.7l0.6,0.1L229.9,135.1z"/>
						<path class="st0" d="M244.3,129.6l-1.2,0.5c-0.4-2,0.8-2.9,0-4.7l0.3,0.1c0.3-0.2-2.4-0.6,1.1-3.1l0.1,0
							c0-0.1-0.3-0.1,0.1-0.3l-0.8,0.4c-0.3-0.3-0.8-0.6-0.9-1c0.1-0.1,0.4-0.1,0.6-0.1l-0.1-0.9l0.8-0.2c-0.4-0.3-2.1-0.3-1.1-1
							c-1.2,0.2-0.7-0.4-1.2-0.4c0.1,0,0.4-0.1,0.6-0.2c-0.1-0.5-0.4-1.3-0.9-1.6c0,0-2.5,1.6-3.8,2c0.4-0.6-0.1-0.2-0.5-0.1
							l0.3,0.1c-0.3,0.4-1,0.3-1.2,0.5c0.1,0,0.1,0,0.2,0l-0.1,0c0.1,0,0.2,0,0.3,0c0.2,0,0.3,0,0.2,0.1l-0.1,0
							c0.1,0.2,0,0.4-0.1,0.6l-0.6,0c1.1,0.4-1.9,1.8-2,2.2c-0.8,0.3,0.1,0.9-0.3,1.3c-0.2,0.8-0.9,0.3-1.5,0.7
							c-0.4,0.5,0.7,0,0.7,0.1l-0.9,0.5c0-0.3-0.4-0.2-0.7-0.1c-0.1,0.5-1.3,1.2-0.1,1.4c-0.6,0.6-1.1,0.6-1.2,0.9
							c0.2-0.1,0.4-0.3,0.7-0.2c-0.5,0.2,0.1,0.1,0.2,0c0.5,0.4-2.3,2-1,2.2l-0.2,0c1,0.2,1.9,0.1,2.5,0.4l-0.5,0.2l0.4,0.3
							c-0.3,0.2-0.6,0.1-0.7,0.1c0.4,0.5-0.2,1.1-0.3,1.7l2.7-0.4c-0.6,0.4-2,1.2-1.1,1.4l-0.9,0.2c-1.8,0.9,0.7,0.7,0.2,1.1l-1,0.4
							l0-0.5c-0.5,0.5-0.9,0.6-1.5,1l0,0c0,0,0.1,0,0.1,0l0,0.1c0.5,0.1,0.8,0.4,0.8,0.7c-0.2,0.5,0.5,0.9-0.6,1.6l1,0.3l-0.6,0.5
							l-0.8,0c0.1-0.6-0.2-1.6-0.2-2.4l-0.4,0c0,0.4,0.3,0.9,0.2,1.2c-0.2,0.1-1,0.4-1.5,0.1l0.8,0.3c0,1.4,0,1.5-0.9,2.9l0.4-0.1
							c0.2,0.3,0.4,0.6-0.2,0.7c-0.2,0.9-0.7,1.8-1.8,2.3l0.9,0.2c-0.1,0.2-1.5,0.4-0.2,0.6l0.4,0.4c-0.1,0.3,0.4,0.4-0.1,0.7l0,0
							l0,0c0,0-0.1,0-0.1,0.1c0,0,0.1,0,0.1,0c-0.4,0.6,0.8,0,0.3,0.7c-0.7,0.2,1.2,0.3,1,0.6l-1.4,0.3c-0.8,0.6,0.5,0.7,0.5,1.6
							c-0.5,0.4-1.7,0.5-2.7,0.2c1.2,0.4,0.8,0.2,1.4,0.7c-0.5,0.1-0.6,0-1.1-0.1c-0.6,0.4,0.4,0.3,0.4,0.6c1,0.1,2.5,0.3,2.5,0.4
							l0.3-0.1c0.5,0.4,0.7,0.8,0.2,1.2l-0.5,0l0.2,0.5l-0.6,0l0.2,0.6l0.2-0.1c0.1,0.2,0.3,0.6-0.1,0.9l-0.3,0
							c-1.1,0.7,0.3,1.4,0.3,2.4l-0.7-0.2c-0.7,0.3,1.1,0.1,0.7,0.5l-0.9,0c1.1,0.4-0.3,0.4-0.7,0.6l1.1-0.1l-0.3,0.4
							c-0.4,0.5-1.4,0.2-2,0.1l0.9,0.4l-1,0c1.1,0.3-0.2,0.2,0.4,0.7c-0.4,0-0.6-0.1-0.8,0l1.4,0.7l-0.6-0.4l1.5,0.1
							c1.1,0.5-0.2,0.6,0.2,0.9l-0.4-0.2c0.3,0.5-0.3,0.5-0.6,0.8c0.3-0.1,0.7-0.2,0.9,0c0.1,0.1-0.5,0.1-0.7,0.2
							c1,0.1,1.5,0.4,1,0.7c-0.1,0-0.3,0-0.4,0c0.2,0.1,0.4,0.1,0.2,0.3l-1.1-0.1l1,0.3c-0.3,0.2,0.5,0.5-0.3,0.4l-0.2-0.1l-0.3,1.4
							l-0.9,0c1.2,0.2-0.5,0.7,1,0.7c-0.8,0.2,0.5,1-1.1,0.8c-0.2,0.9,1.4,1.5,0.6,2.5c-1.4,0.3-1,1.4-1.2,2.1
							c0.5,1.4,1,2.3,1.5,3.8c-2,0.8,0.6,2.1-0.5,3l0.8,0.3c-1.3,0.6,0.2,1.5-1,2.4c0.3,0.2,0.4,0.3,0.5,0.4c0,0,0.2-0.1,0.7-0.1
							c-0.4,0.2,0.1,0.7-0.9,0.7l-0.1-0.1c-1-0.1,0.4,0.8-0.4,1l1.1-0.1l-0.2,0.5l-0.2-0.1c2.3,2.1-1.1,2.9,1,4.8
							c-1.2-0.3,0.6,0.4-0.7,0.4c-1.6,0.4,0.3,0.9,0.7,1.3c0.1,0,0.1,0,0.2,0l-0.2,0.7c-1.6-0.4,1.3,0.5,0,0.1
							c-1.2,1.8,0,4.1-0.6,6.2l0.4-0.1c-0.1,0.5,0.4,1.2-0.3,1.6c-0.7,0.4,1,0.9,1.1,1c0.7,0.4-0.7,0.8-0.6,0.6
							c0.2,0.5,1.7,0.9,1,1.6c-1.4,0.2,1.3,1.8-0.2,1.8l0.1,0c-1.1,0.8,0.7,1.6-0.2,2.5c0,0-0.1,0-0.2,0l4.6,1.8l5.1-0.5l4.2-1.5
							l-0.9-4.2l1.7-3.3l-0.4-8.2l-1.1-0.6c2.1-1.6-0.2-3.7,1.3-5.4l-1-0.1c0-0.5,0.6-0.4,0.7-0.6c-0.1-4.5-1.3-9.2,0.1-13.3
							c0.7-0.4,0.3-1.6,1-1.9c-1.2-1.4-1.1-2.8-0.9-4.1l0.1,0.1l-0.2-0.6c0.1,0,0.2,0,0.3,0c-0.9-0.7,0.1-1.8,0.5-2.7l0.1,0.1
							c0.4-5-1.2-9.8,0.4-14.7c1.7-2.2-0.3-5,1.2-7.6C245.1,135.5,244.7,130.1,244.3,129.6z"/>
						<path class="st0" d="M243.5,121.6L243.5,121.6C243.9,121.6,243.8,121.6,243.5,121.6z"/>
						<polygon class="st0" points="231.3,132 231.3,131.9 230.7,132 						"/>
						<path class="st0" d="M231.4,124.8c-0.2,0.3-0.1,0.3,0.1,0.3C231.6,124.9,231.6,124.8,231.4,124.8z"/>
						<path class="st0" d="M242.9,118.9c0-0.2-0.2-0.1-0.5,0c0,0.2,0.1,0.3,0.1,0.3C242.6,119.1,242.8,119,242.9,118.9z"/>
						<path class="st0" d="M237.2,119.2l-0.3-0.1C236.9,119.2,237,119.2,237.2,119.2z"/>
					</g>
				</g>
			</g>
		</g>
	</g>
	<g>
		<g>
			<g>
				<g>
					<g>
						<path class="st0" d="M193.8,117.8C193.9,117.8,193.9,117.7,193.8,117.8L193.8,117.8z"/>
						<path class="st0" d="M173.2,71.9C173.2,71.9,173.2,71.9,173.2,71.9c-0.2-0.1-0.4-0.1-0.5-0.1L173.2,71.9z"/>
						<path class="st0" d="M174.3,64.2C174.3,64.2,174.3,64.2,174.3,64.2C174.2,64.2,174.1,64.1,174.3,64.2z"/>
						<path class="st0" d="M175.9,89.4c0,0.1,0,0.1,0.1,0.1C175.9,89.5,175.9,89.5,175.9,89.4z"/>
						<path class="st0" d="M207.7,118.8C207.7,118.8,207.7,118.8,207.7,118.8c0,0.1,0,0.1,0,0.1L207.7,118.8z"/>
						<path class="st0" d="M207.5,119.1c-0.1-0.2,0.1-0.3,0.2-0.3c-0.1-0.3-0.3-0.3-0.5-0.2C207.1,118.8,207.5,118.9,207.5,119.1z"
							/>
						<path class="st0" d="M232.8,121.7l-0.1,0.1C232.8,121.8,232.8,121.7,232.8,121.7z"/>
						<path class="st0" d="M191,87.9c0,0,0,0.1,0.1,0.1C191,88,191,87.9,191,87.9z"/>
						<path class="st0" d="M228.9,120.8l-0.1,0.5C228.9,121.1,228.9,120.9,228.9,120.8z"/>
						<path class="st0" d="M172.7,71.8l-0.2,0C172.6,71.7,172.6,71.7,172.7,71.8z"/>
						<path class="st0" d="M174.4,57.1c0.2,0,0.3,0,0.4,0c0,0,0,0,0,0L174.4,57.1z"/>
						<path class="st0" d="M182,21.6c-0.1,0-0.1,0-0.2,0l0.3,0.1C182.1,21.7,182.1,21.6,182,21.6z"/>
						<path class="st0" d="M176.4,47.4c-0.1,0-0.1,0-0.2,0c-0.2,0.2-0.2,0.6-0.2,1.2l0.6,0L176.4,47.4z"/>
						<path class="st0" d="M190.3,36.8l-1.2,1c-0.6-3.3,0.6-4.8-0.3-7.6l0.3,0.2c0.3-0.4-2.4-0.7,0.9-5.1l0.1,0
							c0-0.2-0.3-0.2,0.1-0.5l-0.7,0.8c-0.3-0.5-0.9-0.9-1-1.5c0.1-0.1,0.4-0.2,0.6-0.2l-0.2-1.5l0.8-0.5c-0.4-0.5-2.1-0.3-1.1-1.5
							c-1.2,0.5-0.7-0.6-1.3-0.5c0.1-0.1,0.4-0.2,0.6-0.3c-0.1-0.7-0.4-2.1-1-2.5c0,0-2.4,2.9-3.7,3.6c0.3-1-0.1-0.3-0.5-0.1
							l0.3,0.1c-0.3,0.6-1,0.6-1.2,0.9c0.1,0,0.1,0,0.2,0l-0.1,0c0.1,0,0.2,0,0.3,0c0.2,0,0.3,0,0.2,0.2l-0.1,0
							c0.1,0.3,0,0.7-0.1,0.9l-0.6,0c1.1,0.5-1.8,3.1-1.8,3.8c-0.8,0.6,0.2,1.4-0.2,2.2c-0.2,1.3-0.9,0.6-1.4,1.3
							c-0.4,0.8,0.7-0.2,0.7,0.2l-0.8,0.9c-0.1-0.5-0.4-0.3-0.7-0.2c-0.1,0.8-1.2,2.1,0,2.4c-0.6,1.1-1.1,1.1-1.1,1.6
							c0.2-0.2,0.4-0.5,0.7-0.5c-0.5,0.4,0.1,0.2,0.2,0c0.5,0.7-2.2,3.5-0.9,3.6l-0.2,0c1,0.2,1.9-0.1,2.5,0.4l-0.4,0.3l0.4,0.5
							c-0.3,0.3-0.6,0.2-0.7,0.2c0.5,0.8-0.1,1.8-0.2,2.8l2.7-1c-0.6,0.8-1.9,2.2-1,2.4l-0.9,0.5c-1.7,1.6,0.8,1.1,0.2,1.7l-1,0.8
							l0-0.8c-0.5,0.8-0.8,1.1-1.4,1.7l0,0c0,0,0.1-0.1,0.1-0.1l0,0.1c0.5,0.1,0.8,0.5,0.8,1.1c-0.1,0.8,0.6,1.4-0.4,2.7l1,0.3
							l-0.6,1l-0.8,0c0-0.9-0.3-2.7-0.4-3.9l-0.4,0c0,0.7,0.4,1.5,0.3,2c-0.2,0.2-1,0.8-1.5,0.4l0.8,0.4c0.1,2.4,0.2,2.4-0.7,4.9
							l0.4-0.2c0.2,0.5,0.5,1-0.2,1.1c-0.1,1.5-0.6,3-1.6,4l0.9,0.2c0,0.3-1.5,0.8-0.1,0.9l0.4,0.7c-0.1,0.4,0.5,0.7,0,1.2l0,0l0,0
							c0,0-0.1,0.1-0.1,0.1c0,0,0.1,0,0.1,0c-0.4,1,0.8,0,0.3,1.1c-0.7,0.4,1.2,0.4,1,0.9l-1.3,0.6c-0.7,1,0.6,1.1,0.7,2.5
							c-0.5,0.7-1.6,1.1-2.6,0.6c1.3,0.6,0.8,0.3,1.4,1.1c-0.5,0.1-0.6,0.1-1.1-0.1c-0.6,0.8,0.5,0.4,0.5,1c1,0.1,2.5,0.3,2.6,0.4
							l0.3-0.2c0.5,0.6,0.8,1.2,0.3,1.9l-0.5,0l0.3,0.7l-0.6,0.1l0.2,1l0.2-0.1c0.1,0.2,0.3,1,0,1.5l-0.3,0c-1,1.3,0.4,2.3,0.6,3.8
							l-0.7-0.2c-0.7,0.5,1.1,0.1,0.8,0.7l-0.9,0.1c1.2,0.5-0.2,0.7-0.6,1.1l1.1-0.2l-0.2,0.7c-0.3,0.8-1.4,0.5-2,0.4l0.9,0.5
							l-1,0.1c1.2,0.3-0.2,0.4,0.5,1c-0.4,0.1-0.6-0.1-0.7,0.1l1.5,1l-0.7-0.6l1.5,0c1.1,0.6-0.1,0.9,0.3,1.4l-0.4-0.3
							c0.4,0.8-0.2,0.9-0.5,1.3c0.3-0.2,0.7-0.4,0.9-0.1c0.1,0.2-0.5,0.2-0.7,0.4c1,0,1.5,0.6,1.1,1.1c-0.1,0-0.3,0-0.4,0
							c0.2,0.1,0.4,0.2,0.2,0.4l-1.1-0.1l1,0.4c-0.3,0.3,0.5,0.7-0.2,0.7l-0.2-0.2l-0.1,2.3l-0.9,0.1c1.2,0.2-0.4,1.3,1.1,1.1
							c-0.8,0.5,0.7,1.6-1,1.5c0,1.5,1.6,2.2,0.9,4.1c-0.7,0.4-0.9,1-0.9,1.7c0,0.1,0,0.5,0,0.8c0,0.3,0,0.7,0.1,1
							c0,0.6,0.1,1.3,0.1,1.8c0.5,2.1,1.1,3.6,1.9,4.9c0.8,1.3,1.9,2.5,3.5,3.6c0.2,1.5,1.6,2.2,3.1,2.5c1.5,0.3,3.1,0.3,4.3,1
							c0.3-0.2,0.6-0.4,0.9-0.6c0.6,0.7,2.1,0.9,2.5,0.9c0.7,0,1.4,0.1,2,0.8c0.4-0.3,0.6-0.4,0.7-0.4c-0.1,0-0.1-0.2-0.1-0.7
							c0.3,0.4,1.2,0.1,1,1.1l-0.1,0.1c-0.2,1,1.3-0.3,1.6,0.6l-0.1-1.1l0.7,0.3l-0.2,0.2c3.6-1.9,4.5,1.7,7.9,0
							c-0.6,1.1,0.7-0.5,0.5,0.7c0.5,1.7,1.5-0.1,2.2-0.5c0-0.1,0-0.1,0.1-0.2l1.1,0.3c-0.9,1.5,1-1.2,0.2,0.1c2.7,1.6,6.6,1,9.8,2
							l-0.1-0.4c0.8,0.2,1.9-0.1,2.5,0.6c0.5,0.7,1.5-0.8,1.8-0.9c0.8-0.6,1.2,0.9,0.9,0.8c0.8-0.1,1.7-1.4,2.6-0.6
							c0.2,1.4,3-0.9,2.8,0.6l0-0.1c1.2,1.3,2.7-0.4,4,0.8c0,0,0,0.1-0.1,0.2l3.6-4.2l-0.1-5.2l-1.9-4.5l-7-0.1l-5.2-2.4l-13.3-1.5
							l-1.1,1c-2.3-2.4-6-0.6-8.6-2.4l-0.2,1c-0.8-0.1-0.7-0.7-0.8-0.9c-0.9-0.1-1.9-0.2-2.8-0.3l-1.4-0.1l-0.7-0.1l-0.4,0l-0.2,0
							l0,0c-0.3,0.1-0.7,0.2-1.1,0.2c-0.4-0.1-0.6-0.5-0.6-0.8c0-0.2,0.1-0.4,0.1-0.6l0-0.1c0,0,0,0,0,0l0-0.2l0-0.6
							c0-0.4,0.1-0.8,0.1-1.3c0.6-0.7,0.1-2.6,0.8-3.1c-1.3-2.1-1.4-4.4-1.4-6.5l0.1,0.1l-0.2-1c0.1,0,0.2-0.1,0.3,0
							c-0.9-1.1-0.1-3,0.1-4.4l0.1,0.1c-0.2-8.2-2.3-15.8-1.1-23.9c1.5-3.8-0.8-8.2,0.5-12.5C191.6,46.3,190.7,37.6,190.3,36.8z"/>
						<path class="st0" d="M189,23.9L189,23.9C189.4,23.9,189.3,23.8,189,23.9z"/>
						<polygon class="st0" points="177.5,42.1 177.5,42 176.9,42.3 						"/>
						<path class="st0" d="M177.1,30.4c-0.1,0.5,0,0.6,0.1,0.5C177.3,30.6,177.3,30.5,177.1,30.4z"/>
						<path class="st0" d="M188.2,19.6c0-0.3-0.2-0.2-0.5,0c0,0.3,0.1,0.5,0.1,0.5C187.9,19.9,188.1,19.7,188.2,19.6z"/>
						<path class="st0" d="M182.5,20.6l-0.3-0.1C182.3,20.7,182.4,20.7,182.5,20.6z"/>
					</g>
				</g>
			</g>
		</g>
	</g>
	<g>
		<g>
			<g>
				<g>
					<g>
						<path class="st0" d="M31.8,252C31.8,252,31.8,252.1,31.8,252L31.8,252z"/>
						<path class="st0" d="M54.2,197.8C54.2,197.8,54.2,197.8,54.2,197.8c-0.1-0.2-0.2-0.3-0.3-0.4L54.2,197.8z"/>
						<path class="st0" d="M60.4,190.6C60.5,190.6,60.5,190.5,60.4,190.6C60.4,190.5,60.3,190.4,60.4,190.6z"/>
						<path class="st0" d="M45.9,220c0,0.1,0,0.1,0,0.2C45.9,220.1,45.9,220,45.9,220z"/>
						<path class="st0" d="M24.5,267.4C24.5,267.4,24.5,267.4,24.5,267.4c0,0-0.1,0-0.2,0L24.5,267.4z"/>
						<path class="st0" d="M24.3,267.1c0.2-0.1,0.2,0.2,0.2,0.3c0.3-0.1,0.5-0.3,0.5-0.5C24.7,266.7,24.5,267.1,24.3,267.1z"/>
						<path class="st0" d="M11.6,296.7l-0.1-0.1C11.5,296.6,11.5,296.6,11.6,296.7z"/>
						<path class="st0" d="M60.7,223.5c0,0,0,0.1,0,0.1C60.7,223.6,60.7,223.5,60.7,223.5z"/>
						<path class="st0" d="M13.7,292l-0.4-0.2C13.4,291.9,13.5,291.9,13.7,292z"/>
						<path class="st0" d="M53.8,197.4l-0.1-0.2C53.7,197.2,53.8,197.3,53.8,197.4z"/>
						<path class="st0" d="M65.5,183.6c0.1,0.1,0.2,0.1,0.3,0.2c0,0,0,0,0,0L65.5,183.6z"/>
						<path class="st0" d="M96.1,151.7c-0.1,0-0.1-0.1-0.2-0.1l0.2,0.3C96.1,151.8,96.1,151.7,96.1,151.7z"/>
						<path class="st0" d="M73.8,174.9c0,0-0.1-0.1-0.1-0.1c-0.2,0.1-0.6,0.5-0.9,1.1l0.5,0.4L73.8,174.9z"/>
						<path class="st0" d="M92.6,171.9l-1.7,0.4c1.8-3.7,3.8-4.6,4.9-8l0.1,0.3c0.5-0.3-1.6-2,4.3-4.8l0.1,0.1
							c0.1-0.2-0.1-0.3,0.4-0.4l-1.2,0.4c0.1-0.6-0.1-1.4,0.2-2.1c0.2-0.1,0.4,0,0.6,0.1l0.9-1.7l1,0c0-0.7-1.6-1.4,0.1-2.2
							c-1.3-0.2-0.1-1-0.7-1.2c0.2,0,0.4,0,0.7,0c0.4-0.8,1.1-2.5,0.8-3.1c0,0-4,1.7-5.5,1.8c1-0.9,0.1-0.4-0.4-0.4l0.2,0.2
							c-0.7,0.5-1.3,0.1-1.6,0.3c0,0,0.1,0.1,0.2,0.1l-0.1-0.1c0.1,0,0.2,0.1,0.2,0.2c0.1,0.1,0.2,0.2,0.1,0.3l0-0.1
							c-0.1,0.3-0.5,0.7-0.7,0.9l-0.5-0.3c0.6,1.1-3.6,2.2-4.1,2.9c-1.1,0.2-0.8,1.5-1.7,2.1c-1,1.2-1.2,0.2-2,0.5
							c-0.9,0.6,0.7,0.2,0.5,0.6l-1.3,0.5c0.3-0.6-0.2-0.5-0.5-0.5c-0.6,0.8-2.4,1.5-1.6,2.4c-1.2,0.8-1.6,0.5-2,1
							c0.3,0,0.7-0.2,0.9-0.1c-0.7,0.2,0,0.3,0.2,0.2c0,1-4.2,2.3-3.2,3.2l-0.2-0.1c0.7,0.7,1.7,1,1.8,1.8l-0.6,0.1l0,0.7
							c-0.5,0.1-0.6-0.2-0.7-0.2c-0.1,1-1.3,1.8-2.1,2.7l2.9,0.5c-1,0.5-3.1,1.2-2.4,1.8l-1.1,0c-2.5,0.7-0.1,1.5-1,1.9l-1.4,0.3
							l0.5-0.8c-0.9,0.5-1.4,0.7-2.4,1c0,0,0,0,0,0c0.1,0,0.1,0,0.2,0l-0.1,0.1c0.3,0.4,0.3,1-0.1,1.5c-0.6,0.7-0.5,1.8-2.2,2.5
							l0.6,0.9l-1.1,0.6l-0.7-0.4c0.7-0.9,1.6-2.9,2.4-4.1l-0.3-0.2c-0.5,0.7-0.7,1.7-1.1,2.2c-0.3,0.1-1.4,0.3-1.5-0.5l0.4,0.9
							c-1.5,2.5-1.5,2.5-3.9,4.5l0.5,0c-0.1,0.6-0.3,1.3-0.9,1c-1.1,1.4-2.6,2.7-4.1,3.1l0.6,0.7c-0.3,0.3-1.8,0-0.8,0.9l-0.1,0.9
							c-0.3,0.4-0.1,1-0.9,1.2l0,0l0,0c0,0-0.1,0-0.2,0c0,0,0,0,0.1,0c-1,0.8,0.7,0.5-0.5,1.3c-0.8,0,0.7,1.1,0.2,1.5l-1.5-0.2
							c-1.3,0.6-0.3,1.5-1.3,3c-0.9,0.4-2.1,0.2-2.6-0.9c0.6,1.3,0.5,0.7,0.4,1.9c-0.5-0.1-0.5-0.3-0.8-0.7c-1,0.5,0.1,0.7-0.3,1.3
							c0.7,0.7,1.9,1.7,1.8,1.9l0.4-0.1c0,0.9-0.2,1.7-1.1,2.2l-0.4-0.3l-0.3,0.9l-0.6-0.3l-0.5,1.2l0.2-0.1c-0.1,0.3-0.4,1.3-1,1.7
							l-0.3-0.2c-1.8,1-1.2,2.9-2,4.8l-0.5-0.5c-0.9,0.3,0.9,0.6,0.2,1.2l-0.8-0.3c0.7,1.1-0.6,0.8-1.2,1.1l1.1,0.2
							c-0.2,0.3-0.4,0.5-0.6,0.8c-0.7,0.8-1.6,0.1-2.1-0.3l0.6,1l-1-0.2c0.9,0.9-0.4,0.4-0.1,1.5c-0.4-0.1-0.5-0.3-0.8-0.1
							c0.3,0.6,0.5,1.3,0.8,1.9l-0.3-1.1l1.3,0.6c0.7,1.2-0.5,1.1-0.4,1.9l-0.3-0.6c0,1.1-0.6,1-1.1,1.4c0.3-0.1,0.8-0.2,0.8,0.2
							c0,0.3-0.5,0-0.8,0.2c0.9,0.4,1.2,1.2,0.6,1.7c-0.1,0-0.3-0.1-0.3-0.2c0.1,0.2,0.3,0.4,0,0.6l-1-0.5l0.8,0.8
							c-0.4,0.3,0.2,1-0.5,0.7l-0.1-0.3l-1,2.5l-0.8-0.2c1.1,0.6-0.8,1.2,0.6,1.6c-0.9,0.2-0.1,2-1.6,1.2c-0.7,1.5,0.6,3-1,4.6
							c-1.6,0.2-1.9,2.2-2.6,3.4c-0.5,2.6-0.7,4.4-1.5,7c-2.5,0.6-1.2,4-3,5l0.5,0.8c-1.6,0.5-1.2,2.8-3,3.7
							c0.1,0.5,0.1,0.8,0.1,0.9c0.1,0,0.3-0.1,0.7,0.1c-0.5,0.3-0.6,1.3-1.5,0.8l0-0.2c-0.8-0.5-0.3,1.5-1.3,1.6l1.1,0.3l-0.6,0.7
							l-0.1-0.3c0.1,4.6-3.7,4.5-3.7,8.9c-0.8-1,0.2,0.9-1,0.4c-1.9,0.1-0.6,1.7-0.6,2.6c0.1,0,0.1,0.1,0.2,0.2l-0.8,1.1
							c-1-1.5,0.7,1.5-0.1,0.2c-2.8,2.6-4,7.3-6.4,10.8l0.5,0c-0.6,0.9-0.7,2.4-1.6,2.8c-1,0.5,0.2,2.1,0.1,2.4
							c0.3,1.1-1.4,1.3-1.1,0.9c-0.2,1,0.8,2.4-0.3,3.4c-0.7-0.1-0.8,0.9-0.8,1.8c0,0.9-0.1,1.8-0.8,1.5l0.1,0.1
							c-1.6,1.2-0.5,3.3-2,4.8c0,0-0.1-0.1-0.2-0.2c1.1,1.7,2.1,3.4,3.2,5c1.7,0.2,3.5,0.4,5.2,0.6c1.6-0.5,3.3-1,4.9-1.4
							c0.3-1.3,0.7-2.6,1-3.8c0.3-1.3,0.7-2.6,1.1-3.9c1.3-1.7,2.8-3.5,4.2-5.1c2.1-4.8,4.5-9.6,7-14.4l-0.4-1.6
							c3.3-1.8,3.3-6.6,6.3-9l-0.8-0.5c0.4-0.9,0.9-0.5,1.2-0.7c2.2-4.1,4.1-8.5,6-12.8c0.9-2.2,1.9-4.3,2.9-6.4c1-2.1,2-4.1,3.1-6
							c1-0.5,1.4-3.1,2.3-3.5c-0.2-3.1,0.7-6,1.5-8.5l0.1,0.1l0.2-1.2c0.1,0,0.2,0,0.3,0.1c-0.5-1.6,1-3.3,1.9-4.5l0.1,0.1
							c1.5-3.9,3.3-7.8,5.6-11.9c2.3-4,5-8.2,8.3-12c4-3,5.1-8.8,9.2-12.5C87.1,182.4,92.5,172.9,92.6,171.9z"/>
						<path class="st0" d="M100.4,157.8L100.4,157.8C100.7,158.1,100.6,157.9,100.4,157.8z"/>
						<polygon class="st0" points="78.4,170.2 78.4,170.1 77.8,170 						"/>
						<path class="st0" d="M86.1,158c-0.5,0.5-0.4,0.5-0.2,0.6C86,158.4,86.1,158.2,86.1,158z"/>
						<path class="st0" d="M102.7,153c0.2-0.3-0.1-0.3-0.4-0.3c-0.2,0.3-0.3,0.5-0.3,0.5C102.2,153.1,102.5,153.1,102.7,153z"/>
						<path class="st0" d="M97.2,151l-0.2-0.3C96.9,150.9,97,151,97.2,151z"/>
					</g>
				</g>
			</g>
		</g>
	</g>
	<g>
		<g>
			<g>
				<g>
					<g>
						<path class="st0" d="M237.4,88C237.3,87.9,237.2,87.9,237.4,88L237.4,88z"/>
						<path class="st0" d="M289.8,184.3C289.9,184.3,289.9,184.4,289.8,184.3c0.3,0.1,0.5,0.1,0.6,0.1L289.8,184.3z"/>
						<path class="st0" d="M296.8,200.9c0,0,0,0.1,0,0.1C296.9,201,297,200.9,296.8,200.9z"/>
						<path class="st0" d="M267.5,150.3c-0.1-0.1-0.1-0.2-0.2-0.2C267.4,150.1,267.5,150.2,267.5,150.3z"/>
						<path class="st0" d="M220.4,61.3C220.4,61.3,220.4,61.3,220.4,61.3c0.1,0,0.1-0.1,0.1-0.2L220.4,61.3z"/>
						<path class="st0" d="M220.9,61.5c0,0.4-0.3,0-0.4-0.1c0,0.5,0.1,0.9,0.4,1.2C221.2,62.4,220.7,61.7,220.9,61.5z"/>
						<path class="st0" d="M189.8,10.2l0.2,0.1C189.9,10.2,189.8,10.2,189.8,10.2z"/>
						<path class="st0" d="M255.1,159.1c-0.1-0.1-0.1-0.1-0.2-0.2C254.9,159,255,159.1,255.1,159.1z"/>
						<path class="st0" d="M195.4,18.1l0.5-0.2C195.7,17.9,195.6,18,195.4,18.1z"/>
						<path class="st0" d="M290.5,184.4l0.2,0C290.6,184.4,290.5,184.4,290.5,184.4z"/>
						<path class="st0" d="M303.4,215.8c-0.1,0.1-0.2,0.2-0.3,0.2c0,0,0,0,0,0L303.4,215.8z"/>
						<path class="st0" d="M331.1,293.3c0.1,0,0.1-0.1,0.2-0.1l-0.5-0.1C330.9,293.1,331,293.2,331.1,293.3z"/>
						<path class="st0" d="M310.9,236.9c0.1,0,0.1,0,0.2,0c0-0.4-0.4-1.3-1-2.5l-0.6,0.2L310.9,236.9z"/>
						<path class="st0" d="M308.6,264.9l0.1-2.7c3.7,6.7,4.2,10.4,7.8,15.9l-0.4-0.2c0.1,1,2.8,0.3,4.3,11.2l-0.1,0.1
							c0.2,0.3,0.4,0.2,0.4,1l-0.1-2c0.7,0.9,1.7,1.5,2.4,2.7c0,0.3-0.2,0.5-0.3,0.6l1.7,3.1l-0.2,1.3c0.8,0.8,2.1-0.3,2.5,2.7
							c0.6-1.5,1.2,1,1.6,0.4c-0.1,0.2-0.1,0.6-0.2,0.9c0.9,1.5,2.5,4.3,3.4,4.8c0,0-0.7-7.1-0.4-9.3c0.8,2.3,0.4,0.5,0.5-0.1
							l-0.3,0c-0.4-1.4,0.3-1.7,0.2-2.5c-0.1,0-0.1,0.1-0.2,0.1l0.1,0c-0.1,0.1-0.2,0.1-0.3,0.1c-0.1,0.1-0.3,0.1-0.4-0.3l0.1,0
							c-0.4-0.5-0.7-1.5-0.8-1.9l0.5-0.3c-1.5-0.5-1.5-7.3-2.1-8.7c0.1-1.6-1.6-2.9-2-4.7c-1.1-2.7,0.2-1.7,0-3.2
							c-0.4-1.8-0.5,0.6-0.8,0l-0.2-2.3c0.6,1.1,0.6,0.3,0.8,0c-0.7-1.7-1-4.9-2.3-4.9c-0.6-2.5-0.1-2.8-0.5-3.8
							c0,0.4,0.1,1.2-0.1,1.3c0-1.1-0.3-0.4-0.3,0c-1.1-1.2-1.4-8.2-2.8-8l0.2-0.1c-1,0.1-1.7,1-2.6,0.3l0.1-0.8l-0.8-0.8
							c0-0.8,0.4-0.6,0.5-0.6c-1.2-1.4-1.7-3.9-2.5-5.9l-1.5,3.2c-0.2-1.9-0.5-5.4-1.4-5.4l0.4-1.4c0-4-1.8-2-1.9-3.5l0.1-2.1
							l0.8,1.7c-0.3-1.9-0.3-2.7-0.4-4.2c0,0,0,0,0,0c0,0.1,0,0.2-0.1,0.2l-0.1-0.2c-0.5,0-1.2-0.7-1.8-1.9
							c-0.6-1.7-1.9-2.7-2.2-5.8l-1.2-0.2l-0.4-2.2l0.7-0.3c0.9,2,2.8,5.5,4,7.9l0.4-0.1c-0.7-1.5-1.8-3-2.2-4
							c-0.1-0.5,0.1-2.1,1-1.5l-1.1-0.6c-2.4-4.9-2.4-4.9-4-10.4l-0.2,0.6c-0.7-0.9-1.4-1.8-0.9-2.4c-1.3-3.1-2.4-6.5-2.4-9l-1.1,0
							c-0.3-0.7,0.6-2.3-0.8-2l-1-1.2c-0.4-0.9-1.1-1.2-1.1-2.5l0,0l0,0c0-0.1,0-0.2,0-0.2c0,0,0,0-0.1,0c-0.6-2.2-0.7,0.4-1.4-2.2
							c0.2-1-1.5-0.3-1.8-1.5l0.7-1.7c-0.3-2.4-1.7-2.1-3.2-5.1c-0.3-1.6,0.4-2.9,1.8-2.4c-1.8-0.7-1-0.2-2.4-1.7
							c0.3-0.5,0.5-0.4,1.1-0.2c-0.3-1.8-0.9-0.7-1.5-1.9c-1,0.1-2.6,0.5-2.8,0.1l0,0.6c-1.1-1-2-2.2-2.4-3.8l0.5-0.2l-1-1.4
							l0.5-0.4l-1.4-2l0,0.4c-0.4-0.4-1.5-2-1.8-3l0.3-0.1c-0.6-3.1-3.1-4.5-5.1-7.4l0.8,0c0-1.4-1.1,0.3-1.5-1.1l0.7-0.5
							c-1.6-0.4-0.6-1.5-0.7-2.4l-0.7,0.9l-0.6-1.5c-0.6-1.7,0.6-1.7,1.3-1.8l-1.4-0.5l0.7-0.7c-1.4-0.1-0.3-0.8-1.6-1.8
							c0.3-0.3,0.6-0.1,0.5-0.6l-2.5-1.4l1.3,1l-1.3,0.6c-1.7-0.8-0.9-1.9-1.8-2.6l0.8,0.4c-1.2-1.4-0.7-1.8-0.9-2.8
							c-0.1,0.4-0.2,1-0.7,0.5c-0.3-0.4,0.3-0.5,0.2-1c-0.9,0.4-2-0.5-2.1-1.7c0.1-0.1,0.3-0.1,0.4-0.1c-0.3-0.2-0.6-0.2-0.6-0.8
							l1.1-0.2l-1.4-0.4c0-0.7-1.2-1.2-0.5-1.5l0.4,0.2c-0.7-1.5-1.3-3-1.9-4.5l0.8-0.4c-1.3,0-0.7-2.6-2-1.9c0.4-1.2-2-3.2-0.2-3.3
							c-1.1-3.1-3.3-4.2-4-8.4c0.8-1.9-1.1-5.6-2.1-8.2c-2.7-4.8-4.7-7.9-7.7-12.6c0.2-3.9-4.6-6.9-5.5-10.5l-1.2-0.4
							c-0.1-2.7-3.3-4.9-4-8.3c-0.7-0.5-1-0.8-1.1-0.9c0,0.1,0,0.4-0.3,0.7c-0.2-1-1.6-2.3-0.7-2.7l0.2,0.1c0.9-0.4-1.9-2.1-1.7-3.4
							l-0.6,1l-0.8-1.6l0.4,0.3c-3-2.5-4.2-5-5.3-7.4c-1.1-2.4-2.1-4.7-4.7-7.2c1.5,0.2-1.2-0.9-0.1-1.6c0.6-2.3-1.8-2.7-2.9-3.8
							c-0.1,0-0.1,0-0.3,0l-1-2.3c2.1,0.6-2-1-0.2-0.4c-1.9-6.4-6.8-13.7-9.9-21l-0.2,0.5c-0.8-1.8-2.4-3.8-2.6-5.4
							c-0.1-1.7-2.5-2.4-2.9-2.9c-1.4-1.1-1-3.1-0.7-2.5c-1.1-1.5-3.2-2.2-4-4.6c0.3-0.7-0.9-2-2-3.2c-1.2-1.2-2.3-2.2-1.7-2.7
							l-0.1,0.1c-0.2-0.8-0.6-1.5-1.1-2.2c-0.5-0.6-1.1-1.2-1.6-1.8c-0.6-0.6-1.1-1.2-1.7-1.8c-0.6-0.6-1.1-1.3-1.4-2.2
							c0,0,0.1,0,0.3,0c-2.7-0.9-5.5-1.5-8.2-2c-0.8,1.7-1.6,3.3-2.4,5c0.1,1.2,0.3,2.3,0.4,3.4c0.1,1.2,0.1,2.3,0.2,3.4
							c3.3,3.5,6.4,7.4,9.4,11.6c1.7,3.7,3.2,7.5,4.6,11.4c4.9,8.8,9.4,18.1,14.5,27.4l2.1,1.5c0.3,1.6,0.9,3.2,1.7,4.8
							c0.8,1.6,1.7,3.1,2.7,4.7c2,3.1,4.1,6.1,5.3,9.3l0.9-0.4c1,1.6,0.5,1.8,0.6,2.3c4.7,7.3,9.7,14.3,13.8,21.3
							c2.1,3.5,3.9,7.1,5.4,10.6c1.5,3.6,2.8,7.3,3.9,11c-0.1,1.6,1.9,5.8,1.8,7.2c1.5,2.2,2.9,4.6,4.1,7.1c1.2,2.5,2.5,4.9,3.7,7.4
							l-0.2-0.1c0.5,0.7,0.9,1.4,1.4,2.1c0,0.1-0.1,0.2-0.2,0.2c2.1,2,3.6,6.2,5.1,9.3l-0.2-0.1c2.5,4.2,5.1,8.1,7.6,11.9
							c2.5,3.8,4.8,7.5,7.1,11.4c4.5,7.7,8.4,15.9,11.8,24.8c2.3,8.7,8.7,17,11.7,26.8C298,245.2,307.4,263.5,308.6,264.9z"/>
						<path class="st0" d="M322.6,291.7L322.6,291.7C322.2,291.8,322.4,291.8,322.6,291.7z"/>
						<polygon class="st0" points="315,248.5 315.1,248.6 315.4,247.9 						"/>
						<path class="st0" d="M326.8,272.9c-0.4-1.2-0.5-1.2-0.6-0.9C326.4,272.3,326.6,272.7,326.8,272.9z"/>
						<path class="st0" d="M327.5,300.3c0.2,0.6,0.4,0.3,0.5-0.2c-0.3-0.6-0.5-1-0.5-1C327.5,299.5,327.5,299.9,327.5,300.3z"/>
						<path class="st0" d="M331.6,295.5l0.4,0C331.7,295.3,331.6,295.3,331.6,295.5z"/>
					</g>
				</g>
			</g>
		</g>
	</g>
	<g>
		<g>
			<g>
				<g>
					<g>
						<path class="st0" d="M340.6,95.8C340.6,95.7,340.5,95.7,340.6,95.8L340.6,95.8z"/>
						<path class="st0" d="M347.5,191.6C347.5,191.6,347.5,191.7,347.5,191.6c0.2,0.2,0.4,0.2,0.5,0.3L347.5,191.6z"/>
						<path class="st0" d="M346.5,207.1C346.5,207.1,346.5,207.1,346.5,207.1C346.6,207.2,346.7,207.2,346.5,207.1z"/>
						<path class="st0" d="M344.5,156c0-0.1,0-0.2-0.1-0.3C344.5,155.8,344.5,155.9,344.5,156z"/>
						<path class="st0" d="M339.4,68.5C339.4,68.5,339.4,68.6,339.4,68.5c0.1,0,0.1,0,0.1-0.1L339.4,68.5z"/>
						<path class="st0" d="M339.8,68.9c-0.2,0.3-0.3-0.1-0.3-0.3c-0.3,0.3-0.3,0.7-0.2,1.1C339.5,69.7,339.5,69,339.8,68.9z"/>
						<path class="st0" d="M344.1,17.7l0.1,0.2C344.2,17.8,344.2,17.8,344.1,17.7z"/>
						<path class="st0" d="M329.4,158.2c0-0.1,0-0.2-0.1-0.2C329.4,158.1,329.4,158.2,329.4,158.2z"/>
						<path class="st0" d="M343,25.9l0.5,0.1C343.3,25.9,343.1,25.9,343,25.9z"/>
						<path class="st0" d="M348,191.9l0.2,0.1C348.2,192,348.1,191.9,348,191.9z"/>
						<path class="st0" d="M346.3,221.3c-0.2,0-0.3,0-0.4,0.1c0,0,0,0,0,0L346.3,221.3z"/>
						<path class="st0" d="M338.8,293c0.1,0,0.1,0,0.2,0l-0.3-0.3C338.6,292.9,338.7,293,338.8,293z"/>
						<path class="st0" d="M344.3,240.9c0.1,0,0.1,0.1,0.2,0.1c0.2-0.3,0.2-1.2,0.2-2.3l-0.6-0.1L344.3,240.9z"/>
						<path class="st0" d="M330.3,262.2l1.2-2.1c0.6,6.7-0.6,9.8,0.4,15.5l-0.3-0.3c-0.3,0.8,2.4,1.3-0.9,10.5l-0.1,0
							c0,0.3,0.3,0.3-0.1,1l0.7-1.6c0.3,1,0.9,1.8,1,3c-0.1,0.3-0.4,0.4-0.6,0.4l0.2,3.1l-0.8,1c0.4,0.9,2.1,0.5,1.2,3.1
							c1.1-1,0.7,1.3,1.3,0.9c-0.1,0.1-0.4,0.4-0.5,0.7c0.1,1.5,0.5,4.4,1.1,5.1c0,0,2.4-5.9,3.6-7.5c-0.3,2.1,0.1,0.6,0.5,0.1
							l-0.3-0.1c0.3-1.3,1-1.3,1.2-1.9c-0.1,0-0.1,0-0.2,0l0.1,0.1c-0.1,0.1-0.2,0-0.3,0c-0.2,0-0.3,0-0.2-0.4l0.1,0.1
							c-0.1-0.5,0-1.5,0.1-1.9l0.6,0c-1.2-0.9,1.7-6.4,1.8-7.6c0.8-1.3-0.2-2.9,0.2-4.4c0.2-2.5,0.9-1.3,1.4-2.5
							c0.4-1.6-0.7,0.3-0.7-0.3l0.8-1.9c0.1,1.1,0.4,0.5,0.7,0.3c0.1-1.6,1.2-4.2,0-4.8c0.6-2.2,1.1-2.2,1.1-3.2
							c-0.2,0.3-0.4,1-0.7,1c0.5-0.9-0.1-0.4-0.2-0.1c-0.5-1.4,2.2-7.1,0.9-7.3l0.2,0c-1-0.3-1.9,0.2-2.5-0.8l0.4-0.6l-0.4-1
							c0.3-0.6,0.6-0.3,0.7-0.3c-0.5-1.6,0.1-3.7,0.2-5.6l-2.7,2c0.6-1.6,1.9-4.5,1-4.8l0.9-1c1.7-3.2-0.8-2.2-0.2-3.5l1-1.6l0,1.6
							c0.5-1.6,0.8-2.2,1.4-3.5c0,0,0,0,0,0c0,0.1-0.1,0.1-0.1,0.2l0-0.2c-0.5-0.2-0.8-1-0.8-2.1c0.1-1.6-0.6-2.8,0.4-5.4l-1-0.6
							l0.6-1.9l0.8,0c0,1.9,0.3,5.4,0.3,7.8l0.4,0c0-1.4-0.4-3-0.3-4c0.2-0.5,1-1.6,1.5-0.8l-0.8-0.9c-0.1-4.8-0.1-4.8,0.7-9.8
							l-0.4,0.4c-0.2-1-0.5-2,0.2-2.2c0.1-3,0.6-6.1,1.6-8l-0.9-0.4c0-0.6,1.5-1.6,0.1-1.9l-0.4-1.3c0.1-0.9-0.5-1.4,0-2.4h0l0,0
							c0-0.1,0.1-0.1,0.1-0.2c0,0-0.1,0-0.1,0c0.4-2-0.8,0-0.3-2.2c0.7-0.7-1.2-0.8-1-1.9l1.3-1.1c0.7-2-0.6-2.3-0.7-5.2
							c0.5-1.4,1.6-2.1,2.6-1.2c-1.3-1.2-0.8-0.6-1.4-2.2c0.5-0.3,0.6-0.1,1.1,0.3c0.6-1.5-0.5-0.9-0.5-2c-1-0.3-2.5-0.6-2.6-1
							l-0.3,0.4c-0.5-1.2-0.8-2.4-0.3-3.8l0.5,0l-0.3-1.5l0.6-0.1l-0.2-2.1l-0.2,0.3c-0.1-0.5-0.3-2.1,0-3l0.3,0
							c1-2.6-0.5-4.7-0.7-7.7l0.7,0.4c0.7-1.1-1.1-0.2-0.8-1.5l0.9-0.1c-1.2-1,0.2-1.4,0.6-2.2l-1.1,0.4l0.2-1.4
							c0.3-1.6,1.4-1,2-0.8l-0.9-1l1-0.2c-1.2-0.7,0.2-0.8-0.5-2.1c0.4-0.1,0.6,0.2,0.7-0.3l-1.5-2.2l0.7,1.3l-1.5-0.1
							c-1.2-1.4,0.1-1.9-0.4-2.9l0.5,0.7c-0.4-1.6,0.2-1.7,0.5-2.7c-0.3,0.3-0.6,0.8-0.9,0.1c-0.1-0.5,0.5-0.3,0.6-0.8
							c-1-0.1-1.5-1.2-1.1-2.3c0.1,0,0.3,0,0.4,0.1c-0.2-0.3-0.4-0.4-0.2-0.9l1.1,0.2l-1.1-0.9c0.3-0.6-0.6-1.5,0.2-1.4l0.2,0.3
							l0-4.6l0.9-0.1c-1.2-0.4,0.3-2.5-1.2-2.3c0.8-0.9-0.8-3.4,0.9-3c0-3-1.8-4.5-1.2-8.3c1.3-1.4,0.6-5,0.6-7.3
							c-0.9-4.6-1.7-7.5-2.6-12.1c1.7-3-1.3-6.9-0.4-10l-0.8-0.8c1.1-2.1-0.7-5,0.4-7.8c-0.4-0.7-0.5-1-0.6-1.2
							c0,0.1-0.2,0.3-0.7,0.4c0.3-0.8-0.2-2.4,0.8-2.3l0.1,0.2c1,0.1-0.6-2.4,0.2-3.3l-1,0.5l0.1-1.5l0.2,0.4
							c-1.3-3.2-1.1-5.5-0.9-7.8c0.3-2.3,0.6-4.5-0.4-7.5c1.1,0.8-0.6-1.2,0.7-1.2c1.7-1.4-0.2-2.8-0.6-4.1c-0.1,0-0.1,0-0.2-0.1
							l0.3-2.2c1.5,1.4-1.2-1.7,0.1-0.4c1.6-5.6,1.2-13.2,2.6-19.8l-0.4,0.2c0.3-1.7,0.1-3.9,0.9-5.1c0.8-1.2-0.7-3-0.7-3.5
							c-0.5-1.5,1-2.6,0.9-2c0-1.6-1.3-3.2-0.4-5.2c1.4-0.6-0.7-5.9,0.9-5.8l-0.1,0c1.4-2.6-0.2-5.4,1-8.3c0,0,0.1,0.1,0.2,0.2
							c-1.4-2.1-2.8-4.3-4.2-6.4l-5.2,1.3c-1.5,1.6-3,3.2-4.6,4.7c-0.1,4.5-0.3,9.1-0.6,13.7l-3,10.8c-0.9,9-1.9,18.3-2.2,27.7
							l1.1,2.1c-1.1,2.7-1.2,5.9-1,9.2c0.1,3.2,0.5,6.5-0.2,9.5l1,0.1c0.1,1.7-0.5,1.6-0.6,2c0.5,7.8,1.5,15.5,2.4,22.9
							c0.9,7.4,1.5,14.6,1.3,21.3c-0.6,1.3,0.1,5.2-0.6,6.3c1.5,4.3,1.7,8.9,1.8,13.3l-0.1-0.2l0.3,2.1c-0.1,0.1-0.2,0.1-0.3,0
							c1,2.3,0.3,6,0,8.9l-0.1-0.2c0.4,16.6,2.6,32.1,1.3,48.7c-1.6,7.7,0.7,16.7-0.6,25.5C329.1,242.7,329.9,260.6,330.3,262.2z"/>
						<path class="st0" d="M331.7,288.6L331.7,288.6C331.3,288.6,331.5,288.7,331.7,288.6z"/>
						<polygon class="st0" points="343.1,251.6 343.1,251.7 343.7,251.2 						"/>
						<path class="st0" d="M343.5,275.3c0.1-1.1,0-1.1-0.1-1C343.4,274.7,343.4,275,343.5,275.3z"/>
						<path class="st0" d="M332.6,297.3c0,0.6,0.2,0.3,0.5,0c0-0.6-0.1-1-0.1-1C332.9,296.7,332.7,297,332.6,297.3z"/>
						<path class="st0" d="M338.3,295l0.3,0.2C338.5,294.9,338.4,294.9,338.3,295z"/>
					</g>
				</g>
			</g>
		</g>
	</g>
	<g>
		<g>
			<g>
				<g>
					<g>
						<path class="st0" d="M244.2,200.7C244.3,200.6,244.3,200.5,244.2,200.7L244.2,200.7z"/>
						<path class="st0" d="M222.8,254.4C222.8,254.4,222.8,254.4,222.8,254.4c0.1,0.2,0.3,0.3,0.4,0.4L222.8,254.4z"/>
						<path class="st0" d="M217.6,262.3C217.5,262.3,217.5,262.3,217.6,262.3C217.6,262.4,217.7,262.4,217.6,262.3z"/>
						<path class="st0" d="M230,233.9c0-0.1,0-0.1,0-0.2C230,233.8,230,233.8,230,233.9z"/>
						<path class="st0" d="M249.9,184.9C249.9,184.9,249.9,184.9,249.9,184.9c0,0,0.1,0,0.1,0L249.9,184.9z"/>
						<path class="st0" d="M250.1,185.2c-0.2,0.1-0.2-0.2-0.2-0.3c-0.3,0.1-0.4,0.3-0.4,0.5C249.8,185.6,249.9,185.2,250.1,185.2z"
							/>
						<path class="st0" d="M262.5,157.5l0.1,0.1C262.6,157.5,262.6,157.5,262.5,157.5z"/>
						<path class="st0" d="M215.7,228.8c0-0.1,0-0.1,0-0.2C215.7,228.7,215.7,228.7,215.7,228.8z"/>
						<path class="st0" d="M260,161.5l0.4,0.3C260.2,161.6,260.1,161.5,260,161.5z"/>
						<path class="st0" d="M223.2,254.7l0.1,0.1C223.3,254.8,223.3,254.8,223.2,254.7z"/>
						<path class="st0" d="M213.2,269.9c-0.1-0.1-0.2-0.1-0.3-0.1c0,0,0,0,0,0L213.2,269.9z"/>
						<path class="st0" d="M182.9,302c0.1,0,0.1,0.1,0.2,0.1l-0.2-0.3C182.9,301.8,182.9,301.9,182.9,302z"/>
						<path class="st0" d="M205.4,279.2c0,0,0.1,0.1,0.1,0.1c0.2-0.1,0.6-0.5,0.9-1.1l-0.5-0.3L205.4,279.2z"/>
						<path class="st0" d="M186.8,282.4l1.7-0.3c-1.7,3.6-3.7,4.3-4.9,7.6l-0.1-0.3c-0.5,0.2,1.5,2.1-4.3,4.4l-0.1-0.1
							c-0.1,0.2,0.1,0.3-0.4,0.4l1.1-0.3c-0.1,0.6,0.1,1.4-0.3,2c-0.2,0-0.4-0.1-0.6-0.2l-0.9,1.6l-1,0c0,0.7,1.5,1.5-0.2,2.1
							c1.2,0.3,0.1,1,0.7,1.2c-0.2,0-0.4,0-0.7,0c-0.4,0.8-1.2,2.3-1,3c0,0,4.1-1.2,5.6-1.2c-1,0.8-0.1,0.4,0.4,0.4l-0.2-0.2
							c0.7-0.4,1.3,0,1.7-0.2c0,0-0.1-0.1-0.2-0.1l0,0.1c-0.1,0-0.2-0.1-0.2-0.2c-0.1-0.1-0.2-0.2,0-0.3l0,0.1
							c0.1-0.3,0.5-0.7,0.7-0.8l0.5,0.4c-0.6-1.1,3.7-2,4.2-2.6c1.1-0.2,0.9-1.5,1.7-2.1c1.1-1.1,1.2-0.1,2-0.4
							c0.9-0.6-0.7-0.3-0.5-0.6l1.4-0.5c-0.3,0.6,0.2,0.5,0.4,0.5c0.7-0.8,2.5-1.4,1.7-2.4c1.3-0.8,1.6-0.5,2-1
							c-0.3,0-0.7,0.2-0.9,0.1c0.7-0.1,0-0.3-0.2-0.2c0-1,4.2-2.3,3.2-3.2l0.2,0.1c-0.7-0.7-1.7-1-1.8-1.8l0.6-0.1l0-0.7
							c0.5-0.1,0.6,0.2,0.7,0.2c0.1-1,1.3-1.8,2-2.7l-2.9-0.4c1-0.5,3-1.3,2.4-1.9l1.1,0c2.5-0.7,0.1-1.5,0.9-1.9l1.3-0.3l-0.5,0.8
							c0.9-0.6,1.4-0.7,2.4-1.1c0,0,0,0,0,0c-0.1,0-0.1,0-0.2,0l0-0.1c-0.4-0.4-0.4-1,0-1.5c0.6-0.8,0.4-1.8,2.1-2.6l-0.7-0.8
							l1.1-0.7l0.7,0.4c-0.6,1-1.4,3-2.1,4.3l0.3,0.2c0.4-0.8,0.6-1.8,1-2.2c0.3-0.2,1.4-0.4,1.6,0.4l-0.4-0.9
							c1.4-2.6,1.4-2.6,3.6-4.8l-0.5,0c0.1-0.6,0.2-1.3,0.8-1.1c1-1.5,2.3-3,3.8-3.6l-0.7-0.7c0.2-0.3,1.8-0.2,0.7-0.9l0-0.9
							c0.3-0.4,0-1,0.7-1.3l0,0l0,0c0,0,0.1,0,0.1-0.1c0,0,0,0-0.1,0c0.9-0.9-0.8-0.4,0.3-1.3c0.8-0.1-0.9-1-0.4-1.5l1.5,0
							c1.2-0.7,0.1-1.5,0.9-3.1c0.8-0.5,2-0.4,2.7,0.5c-0.8-1.2-0.6-0.7-0.7-1.8c0.5,0.1,0.6,0.2,0.9,0.6c0.9-0.6-0.2-0.7,0.1-1.3
							c-0.8-0.6-2.1-1.5-2-1.7l-0.4,0.1c-0.2-0.9,0-1.7,0.8-2.2l0.4,0.2l0.2-0.9l0.6,0.2l0.4-1.2l-0.2,0.1c0-0.3,0.3-1.3,0.8-1.6
							l0.3,0.2c1.6-1,0.9-2.7,1.5-4.5l0.5,0.5c0.9-0.3-0.9-0.6-0.3-1.1l0.8,0.3c-0.8-1.1,0.6-0.7,1.1-0.9l-1.1-0.3l0.6-0.7
							c0.7-0.7,1.5,0,2,0.4l-0.6-0.9l1,0.3c-0.9-0.9,0.4-0.4,0.1-1.4c0.4,0.1,0.5,0.4,0.7,0.2l-0.7-1.8l0.2,1l-1.3-0.7
							c-0.7-1.2,0.6-1,0.5-1.7l0.2,0.6c0.1-1,0.7-0.8,1.2-1.2c-0.3,0.1-0.8,0.1-0.8-0.3c0-0.3,0.5,0.1,0.8-0.1
							c-0.9-0.4-1.1-1.3-0.4-1.7c0.1,0.1,0.2,0.1,0.3,0.2c-0.1-0.2-0.3-0.4,0-0.6l0.9,0.6l-0.7-0.9c0.4-0.2-0.1-1,0.6-0.7l0.1,0.3
							l1.3-2.4l0.8,0.3c-1-0.7,1-1.2-0.4-1.7c0.9-0.2,0.3-2.1,1.7-1.2c0.8-1.6-0.3-3.1,1.3-4.8c1.6-0.2,2-2.3,2.7-3.6
							c0.5-2.8,0.7-4.6,1.3-7.4c2.5-0.8,1-4.1,2.7-5.4l-0.5-0.8c1.6-0.6,0.9-2.9,2.7-4c-0.2-0.5-0.2-0.8-0.2-0.9
							c-0.1,0.1-0.2,0.1-0.7-0.1c0.5-0.3,0.5-1.4,1.4-0.9l0,0.2c0.9,0.5,0.1-1.5,1.1-1.7L245,198l0.5-0.8l0.1,0.3
							c-0.6-4.5,3.2-4.9,2.7-9.1c0.9,0.9-0.3-0.9,0.9-0.4c1.8-0.2,0.4-1.7,0.3-2.6c-0.1,0-0.1-0.1-0.2-0.1l0.7-1.2
							c1.1,1.4-0.8-1.4,0.1-0.2c1.2-1.3,2.1-3.1,2.9-5.1c0.8-1.9,1.5-3.9,2.7-5.6l-0.4,0c0.5-0.9,0.6-2.2,1.5-2.6
							c0.9-0.4-0.2-2-0.1-2.3c-0.3-1.1,1.4-1.1,1.1-0.8c0.2-0.9-0.7-2.3,0.5-3.1c1.4,0.3,0.4-3.7,1.8-3l-0.1-0.1
							c1.7-0.9,0.8-3.1,2.5-4.1c0,0,0.1,0.1,0.1,0.2c-0.8-1.8-1.6-3.6-2.3-5.4l-4.9-1.7l-5.2,0.7l-1.7,4l-1.6,4l-2.3,2.7l-2.2,2.7
							c-1.1,2.5-2.3,5.1-3.4,7.6c-1.1,2.6-2.2,5.1-3.2,7.7l0.6,1.5c-3.2,2.2-2.7,6.9-5.4,9.5l0.9,0.5c-0.3,0.9-0.9,0.6-1.1,0.8
							c-3.3,8.5-5.6,17.6-9.9,24.7c-0.9,0.5-1.5,2.8-2.3,3.1c0.1,2.9-1,5.4-2.1,7.8l-0.1-0.1l-0.3,1.2c-0.1,0-0.2,0-0.3-0.1
							c0.3,1.6-1.4,3.3-2.4,4.7l-0.1-0.1c-4.1,9-6.3,18.1-12.1,26c-3.5,3.2-4.1,8.9-7.9,12.6c-0.7,0.1-2.2,2.5-3.6,5
							C188.2,279.4,186.8,281.9,186.8,282.4z"/>
						<path class="st0" d="M178.9,295.6L178.9,295.6C178.6,295.3,178.7,295.5,178.9,295.6z"/>
						<polygon class="st0" points="201,284.1 200.9,284.1 201.5,284.2 						"/>
						<path class="st0" d="M193.2,296.3c0.5-0.5,0.4-0.5,0.2-0.6C193.2,295.9,193.1,296.1,193.2,296.3z"/>
						<path class="st0" d="M176.5,300.1c-0.2,0.2,0,0.3,0.4,0.3c0.2-0.3,0.3-0.5,0.3-0.5C176.9,300,176.7,300.1,176.5,300.1z"/>
						<path class="st0" d="M181.8,302.6l0.2,0.3C182,302.7,181.9,302.6,181.8,302.6z"/>
					</g>
				</g>
			</g>
		</g>
	</g>
</g>
<g id="Layer_2">
	<g>
		<g>
			<g>
				<g>
					<g>
						<path d="M23.4,116C23.5,115.8,23.4,115.7,23.4,116L23.4,116z"/>
						<path d="M23.5,237.9c0,0,0,0.1,0,0.1c0.3,0.1,0.5,0.2,0.7,0.3L23.5,237.9z"/>
						<path d="M21.7,257.5c0,0,0,0.1-0.1,0.1C21.8,257.6,21.9,257.7,21.7,257.5z"/>
						<path d="M21.6,192.7c0-0.2,0-0.3-0.1-0.3C21.6,192.5,21.6,192.6,21.6,192.7z"/>
						<path d="M22.8,80C22.8,80,22.8,80,22.8,80c0.1,0,0.1-0.1,0.2-0.1L22.8,80z"/>
						<path d="M23.2,80.4c-0.2,0.4-0.4-0.1-0.4-0.3c-0.4,0.5-0.4,0.9-0.2,1.4C22.9,81.5,22.9,80.6,23.2,80.4z"/>
						<path d="M23.2,14.8l0.2,0.2C23.3,14.9,23.2,14.8,23.2,14.8z"/>
						<path d="M1.9,194.4c0-0.1-0.1-0.2-0.1-0.3C1.8,194.2,1.9,194.3,1.9,194.4z"/>
						<path d="M22.5,25l0.6,0.1C22.9,25.1,22.7,25,22.5,25z"/>
						<path d="M24.2,238.3l0.2,0.1C24.4,238.4,24.3,238.4,24.2,238.3z"/>
						<path d="M21.1,275.6c-0.2,0-0.4,0-0.5,0.1c0,0,0,0,0,0L21.1,275.6z"/>
						<path d="M87.4,305.4c0-0.1,0-0.2-0.1-0.2l-0.3,0.5C87.2,305.6,87.3,305.5,87.4,305.4z"/>
						<path d="M25.2,290.4c0-0.1,0.1-0.1,0.2-0.2c-0.2-0.4-1-0.8-1.9-1.3l-0.5,0.6C23.6,289.8,24.4,290.1,25.2,290.4z"/>
						<path d="M46.4,315.6c-0.9-0.7-1.8-1.3-2.6-2c2.3,0.2,4.3,0.4,6.1,0.7c1.8,0.2,3.4,0.5,5,0.7c1.6,0.2,3.1,0.3,4.8,0.4
							c1.6,0,3.4-0.1,5.3-0.3l-0.4,0.3c0.6,0.2,1-0.6,2.8-0.9c1.8-0.3,5-0.1,11.2,1.8l0,0.2c0.4,0,0.4-0.4,1.3,0l-2.1-0.9
							c1.2-0.5,2.3-1.2,4-1.4c0.4,0.2,0.5,0.5,0.5,0.7c1.4-0.2,2.7-0.3,4.1-0.5l1.3,0.9c1.2-0.6,0.5-2.7,3.9-1.8
							c-1.3-1.4,1.6-1,1.1-1.7c0.2,0.2,0.6,0.4,0.9,0.6c1.9-0.3,5.5-1.1,6.4-1.9c0,0-7.8-2.5-10-3.9c2.7,0.2,0.7-0.2,0.1-0.7
							l-0.2,0.4c-1.7-0.2-1.7-1.2-2.6-1.4c0,0.1,0,0.2,0.1,0.3l0.1-0.1c0.1,0.2,0.1,0.3,0,0.4c0,0.2,0,0.4-0.5,0.3l0.1-0.1
							c-0.7,0.2-1.9,0.1-2.4,0.1l-0.1-0.8c-0.6,0.8-2.6,0.3-4.7-0.3c-2.1-0.7-4.3-1.5-5.1-1.5c-1.6-1-3.6,0.3-5.6-0.2
							c-3.2-0.3-1.6-1.1-3.2-1.8c-2-0.5,0.4,0.9-0.4,1l-2.3-1.2c1.4-0.1,0.6-0.5,0.4-0.9c-1-0.1-2.3-0.5-3.4-0.8
							c-1.1-0.3-2.1-0.3-2.4,0.5c-2.7-0.9-2.6-1.6-3.7-1.8c0.4,0.3,1.1,0.7,1.1,1c-1-0.8-0.5,0.1-0.1,0.3c-0.4,0.1-1.2,0-2-0.3
							c-0.9-0.3-1.8-0.7-2.8-1.2c-1.9-0.8-3.5-1.6-3.8-0.8l0.1-0.3c-0.6,1.2-0.2,2.5-1.5,3l-0.7-0.7l-1.3,0.3
							c-0.7-0.6-0.2-0.8-0.2-1c-1,0.1-2.1-0.2-3.2-0.6c-0.6-0.2-1.1-0.4-1.7-0.6c-0.5-0.2-1.1-0.5-1.6-0.7c0.4,1.3,0.9,2.7,1.4,4
							c-0.9-0.6-2-1.6-3-2.3c-1-0.7-1.9-1.1-2.3-0.7l-0.7-1.5c-2.8-3.4-2.9,0-4-1.3l-1.2-1.9l1.7,0.8c-1.5-1.4-2-2-2.9-3.4
							c0,0,0,0,0,0c0.1,0.1,0.1,0.2,0.1,0.2l-0.2-0.1c-0.5,0.5-1.5,0.4-2.4-0.2c-0.6-0.5-1.2-0.7-1.8-1.1c-0.6-0.4-1-1.1-1-2.2
							c-0.4,0.1-0.9,0.2-1.4,0.3c0-0.6,0-1.2,0-1.8l1-0.4c0.2,0.7,0.7,1.5,1.4,2.1c0.6,0.6,1.5,1.2,2.5,1.8l0.3-0.4
							c-1.1-0.7-2.2-1-2.4-1.5c0-0.2,0.1-0.6,0.3-0.9c0.2-0.3,0.6-0.6,1-0.7c-0.4,0.1-0.7,0.2-1.1,0.2c-0.7-1.1-1-2.1-1.1-3.1
							c-0.1-1.1,0-2.2,0.5-4.9l-0.5,0.5c-0.4-1-0.6-2.2,0.2-2.5c0-0.9,0.1-1.8,0.2-2.8c0.1-0.9,0.3-1.9,0.4-2.7
							c0.4-1.8,0.9-3.4,1.5-4.6l-1.2-0.6c0.1-0.8,1.9-2,0.2-2.4l-0.5-1.7c0.1-1.1-0.6-1.8,0.1-3h0l0,0c0-0.1,0.1-0.2,0.1-0.2
							c0,0-0.1,0-0.1,0c0.6-2.5-1.1,0-0.4-2.8c0.9-0.9-1.5-1-1.3-2.4l1.8-1.4c1-2.5-0.7-2.9-0.7-6.6c0.6-1.7,2.2-2.6,3.5-1.4
							c-1.6-1.6-1-0.7-1.8-2.8c0.7-0.3,0.8-0.1,1.4,0.4c0.8-1.9-0.6-1.2-0.5-2.6c-1.2-0.4-3.2-0.9-3.3-1.4l-0.4,0.5
							c-0.6-1.5-0.9-3.1-0.3-4.9l0.6,0.1l-0.3-1.9l0.8-0.1l-0.2-2.6l-0.2,0.4c-0.1-0.6-0.4-2.7,0.1-3.8l0.4,0c1.4-3.3-0.4-6-0.5-9.8
							l0.9,0.5c0.9-1.3-1.4-0.4-0.9-1.9l1.1-0.1c-1.5-1.4,0.3-1.8,0.9-2.7l-1.5,0.4l0.3-1.8c0.5-2,1.9-1.2,2.6-0.9l-1.1-1.4l1.3-0.2
							c-1.5-1,0.3-1-0.5-2.7c0.5-0.1,0.8,0.3,1-0.3l-1.8-2.8l0.8,1.7l-1.9-0.2c-1.4-1.8,0.2-2.4-0.3-3.7l0.5,0.9
							c-0.4-2.1,0.4-2.2,0.8-3.3c-0.4,0.4-0.9,0.9-1.1,0.1c-0.1-0.6,0.7-0.3,0.9-0.9c-1.3-0.2-1.9-1.6-1.3-3c0.2,0,0.4,0.1,0.5,0.1
							c-0.2-0.3-0.5-0.5-0.2-1.1l1.4,0.4l-1.3-1.2c0.4-0.8-0.6-1.9,0.3-1.8l0.3,0.4l0.4-5.8l1.1-0.1c-1.5-0.6,0.6-3.2-1.3-3
							c1.1-1.1-0.7-4.3,1.5-3.6c0.2-3.8-1.8-5.9-0.7-10.5c1.9-1.6,1.3-6.2,1.6-9.1c-0.7-5.8-1.3-9.6-1.8-15.6
							c2.6-3.5-0.7-8.9,0.8-12.8l-1-1.1c1.7-2.5-0.2-6.5,1.4-10c-0.4-0.9-0.6-1.4-0.6-1.6c-0.1,0.2-0.3,0.4-0.9,0.5
							c0.5-1-0.1-3.1,1.2-2.9l0.1,0.3c1.3,0.2-0.5-3.1,0.6-4.2l-1.4,0.6l0.3-1.9l0.3,0.5c-2.9-8.5,1.6-12.2-1.1-20.2
							c1.5,1.1-0.8-1.6,0.9-1.6c2.1-2-0.4-3.7-0.9-5.4c-0.1,0-0.2,0-0.3-0.1l0.3-2.9c2.1,1.8-1.7-2.1,0.1-0.5
							c1.7-7.4,0.3-17.2,1.3-25.8l-0.5,0.4c0.2-2.2-0.4-4.9,0.5-6.6c0.9-1.6-1.3-3.7-1.3-4.3c-0.9-1.8,1-3.5,0.9-2.7
							c-0.2-2-2.1-3.8-1.2-6.5c1.8-0.9-1.6-7.4,0.4-7.5l-0.2,0c1.5-3.4-0.8-6.8,0.6-10.5c0,0,0.1,0.1,0.3,0.2L17.3,7l-6.7,2L5,15.5
							l0.7,17.9L3.3,47.5L3.2,82.2l1.5,2.5c-2.8,6.8,0.1,15.6-1.9,22.9l1.3,0.2c0,2.1-0.8,1.9-1,2.4c-0.1,19.3,1.3,39.1-0.6,56.4
							c-0.9,1.7-0.5,6.7-1.4,8c1.5,5.7,1.4,11.6,1.2,17.2l-0.1-0.2l0.2,2.7c-0.1,0.1-0.3,0.1-0.4,0c1.1,3-0.1,7.7-0.6,11.4l-0.1-0.2
							c-0.5,21.4,1.7,41.3-0.3,62.5c-0.3,1.2-0.5,2.5-0.6,3.8c-0.1,1.3-0.2,2.5-0.2,4c0,2.9,0.1,6.3,1,10.2c0.4,1.9,1.1,4,2,6.2
							c0.9,2.1,2.2,4.4,3.9,6.4c1.7,2,3.5,3.7,5.3,5.1c1.8,1.4,3.4,2.4,4.9,3.4c0.5,0.6,2.3,1.6,4.9,2.9c1.3,0.7,2.8,1.2,4.4,1.8
							c1.6,0.6,3.3,1.1,5,1.6C38.3,315.1,45.3,315.8,46.4,315.6z"/>
						<path d="M82.2,314.9L82.2,314.9C82.2,315.5,82.3,315.3,82.2,314.9z"/>
						<polygon points="36.3,296.4 36.4,296.5 36.1,295.6 						"/>
						<path d="M64.8,300c-1.3-0.2-1.4-0.1-1.2,0.1C64.1,300.1,64.5,300.1,64.8,300z"/>
						<path d="M93.5,313.1c0.7,0,0.4-0.3,0-0.6c-0.7,0.1-1.2,0.2-1.2,0.2C92.6,312.7,93,313,93.5,313.1z"/>
						<path d="M90,305.9l0.2-0.5C89.7,305.6,89.8,305.8,90,305.9z"/>
					</g>
				</g>
			</g>
		</g>
	</g>
	<g>
		<g>
			<g>
				<g>
					<g>
						<path d="M107.1,112C106.9,112.2,107,112.4,107.1,112L107.1,112z"/>
						<path d="M229.5,73.8c0,0.1,0.1,0.1,0.1,0.2c0.3,0,0.6,0,0.8,0.1L229.5,73.8z"/>
						<path d="M242.5,103.1c0,0.1,0,0.1,0,0.2C242.7,103.2,242.9,103.2,242.5,103.1z"/>
						<path d="M183.4,3.4c-0.3-0.3-0.5-0.4-0.6-0.4C183,3.1,183.2,3.2,183.4,3.4z"/>
						<path d="M89.9,130.3c0,0,0.1,0.1,0.1,0.1c0-0.1-0.1-0.2-0.1-0.4L89.9,130.3z"/>
						<path d="M90.6,130.6c0.3,0.7-0.4,0.1-0.6-0.1c0.1,0.4,0.3,0.8,0.4,1.1c0.1,0.2,0.2,0.3,0.4,0.3c0.1-0.2,0.1-0.3,0.1-0.5
							C90.9,131.3,90.6,130.8,90.6,130.6z"/>
						<path d="M38.6,40.1l0.3,0.2C38.8,40.2,38.7,40.2,38.6,40.1z"/>
						<path d="M182.4,31.4C182.4,31.4,182.3,31.4,182.4,31.4C182.3,31.5,182.4,31.5,182.4,31.4z"/>
						<path d="M44.3,55.6l0.7-0.1C44.6,55.5,44.4,55.5,44.3,55.6z"/>
						<path d="M230.4,74l0.3,0.1C230.6,74,230.5,74,230.4,74z"/>
						<path d="M254.1,126.9c-0.1,0.1-0.2,0.3-0.3,0.4c0,0,0,0,0,0L254.1,126.9z"/>
						<path d="M322.5,34.3c-0.1,0-0.2-0.1-0.3-0.1l0.1,0.7C322.5,34.7,322.6,34.4,322.5,34.3z"/>
						<path d="M262.5,125.4c0-0.1-0.1-0.2-0.1-0.2c-0.3,0.3-0.6,0.8-1,1.5c-0.1,0.2-0.3,0.5-0.4,0.7c-0.1,0.2-0.2,0.4-0.3,0.6
							l0.6,0.6l0.4-1.2c0-0.1,0.2-0.6,0.4-0.9L262.5,125.4z"/>
						<path d="M299.6,95l-3.5,3c6.1-12.4,10.6-17.2,15.5-28.1l0,0.7c0.6-0.7,0.2-1.6,1.4-4.2c1.2-2.6,3.9-6.8,10.6-13.9l0.1,0.1
							c0.3-0.6,0-0.7,1.1-1.6l-2.5,2.3c0.7-1.9,0.9-3.7,2.2-6.1c0.4-0.4,0.8-0.4,1.1-0.3l3.1-5.6l1.9-1.2c0.6-2-1.7-2.3,2.1-6.2
							c-2.3,0.9,0.6-2.7-0.4-2.5c0.3-0.1,0.8-0.5,1.3-0.8c1.5-2.8,4.3-8,4.4-9.6c0,0-2.3,2.2-5,4.6c-2.7,2.4-5.7,5.1-7.3,6.1
							c2.7-3.5,0.5-1.1-0.4-0.6l0.2,0.4c-1.7,2.1-2.5,1.6-3.4,2.6c0.1,0,0.2,0.1,0.3,0.1l0-0.2c0.2,0,0.3,0.1,0.3,0.3
							c0.2,0.1,0.3,0.3-0.2,0.9l0-0.2c-0.5,1-1.6,2.6-2.1,3.3l-0.7-0.4c0.2,2.4-8.8,10.1-10.2,12.4c-2.2,1.8-2.8,5.2-4.9,7.9
							c-2.9,4.4-2.3,1.7-4.3,3.7c-2.1,2.6,1.1-0.1,0.5,1.1l-2.9,2.9c1.1-2.1,0-1.2-0.4-1c-1.9,2.9-5.8,6.9-5,8.6
							c-3,3.7-3.5,3.4-4.6,5.1c0.6-0.4,1.5-1.5,1.7-1.3c-1.5,1.3-0.3,0.9,0.2,0.3c-0.4,1.4-2.8,4.3-5,6.9c-2.2,2.7-4.1,5.2-3.5,5.9
							L281,90c0.8,1.2,2.4,0.9,2.1,2.9l-1.1,0.9l-0.5,2c-1,1-1,0.2-1.1,0.2c-1,3.1-3.8,6.8-5.8,10.1l5-2c-2.3,2.5-6.6,7-5.9,8.1
							l-2,1.2c-5.1,4.8-1.3,4.6-3.1,6.6l-2.7,2.4l1.6-2.9c-2.1,2.6-3.1,3.6-5.1,5.6c0,0,0,0,0,0c0.1-0.1,0.2-0.2,0.3-0.2l-0.2,0.4
							c0.2,0.3,0.2,0.9,0,1.7c-0.1,0.3-0.2,0.6-0.3,1c-0.1,0.3-0.2,0.5-0.4,0.8c-0.5,0.7-0.7,1.6-1.1,2.5c-0.4,0.9-1,1.9-1.9,2.1
							c0.1,0.8,0.1,1.7,0.1,2.6c-0.4,0.3-0.9,0.5-1.5,0.6l-0.2-1.9c0.7-0.6,1.2-1.9,1.7-3.2c0.6-1.3,1.1-2.6,1.6-3.6l-0.4-0.3
							c-0.3,0.5-0.5,1.2-0.7,1.8c-0.2,0.6-0.4,1.2-0.6,1.6c-0.1,0.1-0.5,0-0.7-0.4c-0.2-0.4-0.4-1-0.5-1.7c0.1,0.6,0.1,1.2,0.2,1.9
							c-0.4,0.9-0.8,1.6-1.4,1.7c-0.6,0.2-1-0.4-1.2-1c-0.3-0.9-0.6-2.1-0.8-3.7c-0.1,0.3-0.1,0.5-0.2,0.8c-0.4-0.2-1-0.7-0.5-1.4
							c-0.1-0.2-0.2-0.4-0.2-0.6l-0.1-0.3l0-0.2l0-0.1l-0.1-0.2c-0.6-1.4-1.2-2.8-1.7-4.2c-1-2.7-1.7-5.3-2.1-7.4l-1.5-0.2
							c-0.5-1.2,0.2-3.8-1.6-3.6l-1.7-2.3c-0.7-1.6-1.8-2.3-2.1-4.4l0,0c0,0,0,0,0,0c0-0.1,0-0.3,0-0.4c0,0-0.1,0-0.1,0.1
							c-1.3-3.9-1,0.5-2.4-3.9c0.1-1.7-2.1-0.8-2.9-2.9l0.5-2.8c-1-4.1-2.8-3.9-5.5-9.2c-0.7-2.8,0-4.7,2-3.6
							c-2.6-1.6-1.5-0.6-3.7-3.3c0.4-0.8,0.6-0.5,1.5-0.1c-0.7-3.1-1.4-1.4-2.4-3.5c-1.4,0-3.5,0.2-3.9-0.5l0.1,1
							c-1.7-1.9-3.2-4.1-3.9-6.9l0.6-0.2l-1.6-2.6l0.6-0.5l-2.2-3.7l0.1,0.6c-0.6-0.9-2.3-3.7-2.8-5.6l0.4-0.1
							c-1.2-5.4-4.8-8.5-7.8-14.1l1.2,0.3c-0.2-2.3-1.5,0.1-2.3-2.4l0.9-0.6c-2.3-1.3-1-2.7-1.3-4.4l-1,1.3l-1.1-2.8
							c-1.1-3.2,0.7-2.7,1.6-2.6l-2.1-1.5l0.9-1c-2.1-0.8-0.6-1.6-2.8-3.9c0.3-0.5,0.9,0.1,0.6-0.9l-1.1-0.9l-0.5-0.4
							c-0.2-0.1-0.3-0.2-0.6-0.6c-1-1.1-2.1-2-3.1-3l1.7,1.8c0.3,0.3,0.6,0.6,0.9,1l0.4,0.5c0.2,0.2,0.2,0.2,0.3,0.3
							c-0.6,0.2-1.2,0.5-1.8,0.6c-0.9-0.9-1.7-1.6-2.2-2.3c-0.6-0.7-0.9-1.4-1.3-2c-0.4-0.6-0.7-1.3-1.1-1.9
							c-0.4-0.6-0.9-1.2-1.5-1.7l0.9,0.6l0.9,0.7c-0.9-1.1-1.7-1.8-2.2-2.5c-0.6-0.7-0.9-1.3-1.3-1.8c-0.7-1-1.2-2-2.2-3.3
							c0.3,0.5,0.6,1.2,0.7,1.6c0.1,0.4-0.1,0.4-0.9-0.2c-1.2-1-0.4-1.3-1.4-2.6c-0.3,0.6-1.2,0.4-2.2-0.2c-1-0.6-2.3-1.8-3.6-3.3
							c0-0.2,0.1-0.4,0.3-0.4c-0.7-0.3-1-0.2-2.2-1.6c0.2-0.4,0.4-0.9,0.6-1.3c-0.4,0-0.8-0.1-1.1-0.1l-0.1,0L180,0.1l-0.1,0.3
							l-0.2,0.5l-0.4,1c-1.3,1-2.8,4.5-2.9,3.1l0.6-1.2l-4.8,5.6c-0.8,0.9-1.6,1.9-2.4,2.8l-2.4,3.4l-0.9-0.7c0,1.3-1.4,3.1-2.6,4.8
							c-0.3,0.4-0.6,0.8-0.9,1.2c-0.2,0.2-0.2,0.3-0.2,0.4c-0.1,0.1-0.1,0.2-0.1,0.3c-0.1,0.4-0.1,0.7,0.4,0.9
							c-1.9,0.9-3.3,6.3-4.5,4.2c-3.6,5.1-3.7,9.1-8.7,14.9c-3,1.3-6.6,7.9-9.3,11.9c-4.5,8.5-7.2,14.1-11.8,22.7
							c-5.3,3.7-6.9,13-11.4,17.6l0,2c-3.6,2.8-5.1,9.3-9.5,13.6c-0.4,1.5-0.6,2.2-0.7,2.5c0.2-0.2,0.5-0.5,1.2-0.2
							c-1.2,1.2-2.5,4.5-3.5,3.6l0.1-0.4c-1-0.9-2.1,4.7-4,5.8l1.7-0.2l-1.8,2.6l0.2-0.9c-0.5,1.7-1.1,3.2-1.7,4.6
							c-0.2,0.4-0.3,0.7-0.5,1l-0.2,0.5c-0.1,0.2-0.2,0.4-0.2,0.4c-0.1,0.3-0.3,0.6-0.4,0.9c-0.6,1.2-1.3,2-1.9,2.8
							c-0.5,0.5-0.9,0.8-1.2,1.4c-0.1,0.2-0.2,0.4-0.3,0.6l-0.1,0.2l0,0.1l0,0c-0.1,0-0.1,0-0.2-0.1c-0.3-0.1-0.6,0-1,0
							c0.3-0.9,0.1-0.7-0.1-0.7c-0.2,0-0.5-0.1-0.3-1.1c0-1.6-0.1-1.6-0.6-1.5c-0.4,0.2-1.2,0.4-1.7,0.2c-0.1,0.1-0.1,0.1-0.3,0.2
							l-0.1-0.2l-0.1-0.1l-0.1-0.2l-0.7-0.9l-1.3-1.9c3.3,0.9-3.4-1.6-0.4-0.6c-3-5.2-7-10.8-11.1-16.5c-4-5.8-8.2-11.9-11.3-18.1
							l-0.2,0.8c-0.8-1.5-2-3.1-2.9-4.8c-0.9-1.6-1.7-3.2-2-4.5c-0.6-2.7-3.9-4.5-4.5-5.4c-2.2-2.2-1.7-5.4-1.3-4.2
							c-1.6-2.7-4.6-4.5-5.7-8.8c0.5-1-1.1-3.5-2.7-5.9c-1.5-2.4-2.8-4.7-2-5.1l-0.2,0c-0.5-2.8-1.7-5.2-2.9-7.7
							c-1.3-2.4-2.5-5-2.9-8c0,0,0.2,0.1,0.4,0.2c-3.3-3.1-6.5-6.3-9.7-9.6c-1.7,1.8-3.5,3.6-5.2,5.5L22.9,42l-0.6,6.1
							c3.9,9.3,8.1,18.4,12.7,27.2l2.1,5.6l1.1,2.8l1.1,2.8l2.3,5.6l2.4,5.5c4.9,8.5,10.1,16.7,15.6,24.8c2.8,4,5.6,8,8.6,11.9
							l2.2,2.9l2.3,2.9L75,143l0.7,0.9c0.3,0.4,0.7,0.8,1,1.3l2.2,2.5c1.9,1.6,3.8,3,5.5,4.3c2.8,4.5,6.4,9.1,10.2,13.6
							c0.9,1.1,1.9,2.2,2.8,3.4l0.4,0.4l0.3-0.5l0.5-0.9c0.4-0.6,0.7-1.3,1.1-1.9c1.5-2.6,2.9-5.2,4.4-7.8
							c3.1-5.4,5.5-10.1,8.2-14.7c0.7-1.2,1.3-2.3,2-3.5c0.3-0.6,0.7-1.1,1-1.7l0.7-1c0.9-1.3,1.8-2.5,2.7-3.7l-1-0.9
							c1.6-3,2.2-2.4,2.8-3c15.4-27.2,30.8-55.5,47.5-78.2c2.2-1.8,6.3-9,8.2-10.3c0.9-2.1,1.9-4.2,3.1-6.3l0.8-1.5l0.4-0.8
							c0.1-0.1,0-0.1,0.1-0.2c0-0.2,0.1-0.4,0.2-0.6c0.2-0.4,0.4-0.8,0.6-1.1c0.1-0.2,0.2-0.3,0.3-0.5c0.1-0.1,0.1-0.2,0.2-0.2
							l0.2,0.2l0,0.2c0.2,0,0.3,0.1,0.5,0.1c0,0.2,0,0.4-0.1,0.5c0.4-0.5,0.9,0.1,1,0.7c0,0.2,0.1,0.3,0.1,0.5l0,0.1l0,0.1
							c0,0,0,0,0,0l0.1,0.1l0.5,1c0.6,1.4,1.2,2.7,1.8,4l-0.3-0.2c1.9,3.5,3.8,7.3,5.8,11.1c2,3.8,4,7.6,6,11.3
							c4,7.5,8,14.9,11.9,22.3c7.9,14.8,15.6,29.7,22.6,45.6c0.7,1.9,1.4,3.8,2.2,5.7c0.2,0.5,0.4,0.9,0.6,1.4l0.2,0.4l0.3,0.7
							l0.7,1.4c0.9,1.8,1.8,3.7,2.7,5.5c0.9,1.8,1.9,3.7,2.8,5.6c0.5,0.9,0.9,1.9,1.4,2.7c0.5,0.9,1.1,1.6,1.6,2.3
							c1.1,1.4,2.3,2.4,3.5,3.2c1.1,0.8,2.2,1.2,3.2,1.7c1,0.4,2.3,0.8,4.1,0.9c1.7,0.1,3.4-0.2,4.7-0.7c0.7-0.2,1.3-0.5,1.9-0.8
							c0.3-0.1,0.6-0.3,0.9-0.5l0.4-0.3l0.2-0.1c0.1-0.1,0.1-0.2,0.2-0.3c1.1-1.4,2.2-2.8,3.4-4.3c1.1-1.4,2.3-2.8,3.4-4.2l1.7-2.1
							c0.2-0.1,0.3-0.4,0.4-0.7l0.4-0.7l0.8-1.5c1-2,2.1-3.9,3.2-5.9l0.8-1.5l0.2-0.3l0.1-0.2l0.2-0.4l0.9-1.5
							c1.3-1.2,6.1-10.1,10.7-19.1C294.5,105.5,299,96.5,299.6,95z"/>
						<path d="M325.5,46.9l-0.1,0.1C325.9,47.3,325.9,47,325.5,46.9z"/>
						<path d="M274.3,106.4c0-0.1,0.1-0.1,0.1-0.2l-1.1,0.4L274.3,106.4z"/>
						<path d="M298.2,62.9c-1.3,1.8-1.2,2-0.9,1.8C297.7,64,298.1,63.4,298.2,62.9z"/>
						<path d="M334.1,31c0.6-1,0.1-0.8-0.5-0.4c-0.6,1-1,1.8-1,1.8C333,31.9,333.6,31.5,334.1,31z"/>
						<path d="M325.3,31.1l-0.2-0.5C324.8,31.2,325,31.3,325.3,31.1z"/>
					</g>
				</g>
			</g>
		</g>
	</g>
</g>
</svg>
