<?xml version="1.0" encoding="utf-8"?>
<!-- Generator: Adobe Illustrator 21.1.0, SVG Export Plug-In . SVG Version: 6.00 Build 0)  -->
<svg version="1.1" xmlns="http://www.w3.org/2000/svg" xmlns:xlink="http://www.w3.org/1999/xlink" x="0px" y="0px"
	 viewBox="0 0 753.3 85.3" style="enable-background:new 0 0 753.3 85.3;" xml:space="preserve">
<style type="text/css">
	.st0{fill:#B72025;}
</style>
<g id="Layer_2">
	<g>
		<g>
			<path d="M20.8,72.2c-0.1,0-0.2,0-0.3-0.1c-3.1-2.7-7.6-5.1-13.7-7.3c-0.2-0.1-0.3-0.2-0.3-0.3c0-0.2,0-0.3,0.1-0.5
				c1.6-1.8,2.4-4,2.4-6.7v-39c0-1.8-1-3.7-3.1-5.9c-0.2-0.2-0.2-0.4-0.1-0.6c0.1-0.2,0.3-0.3,0.4-0.3c0,0,0.1,0,0.1,0
				c2.4,0.6,4.6,1.6,6.5,3.1l0.7-0.1c3.1-2.8,6.5-4.5,10.2-5c0,0,0,0,0.1,0c0.2,0,0.4,0.1,0.5,0.3c0.1,0.2,0,0.5-0.2,0.6
				c-3.1,2.2-4.6,5-4.6,8.5v40.9l6.6,4.2l2.1-1.6c0.1-0.1,0.2-0.1,0.3-0.1c0.1,0,0.3,0.1,0.4,0.2l1.2,1.3c0.1,0.1,0.1,0.2,0.1,0.4
				c0,0.1-0.1,0.3-0.2,0.4l-8.9,7.6C21,72.2,20.9,72.2,20.8,72.2z"/>
			<path d="M23.8,10L23.8,10 M23.8,10c-3.2,2.3-4.8,5.3-4.8,8.9v41.2l7.1,4.5l2.3-1.8l1.2,1.3l-8.9,7.6C17.6,69,13,66.5,6.9,64.3
				c1.7-1.9,2.5-4.2,2.5-7v-39c0-2-1.1-4-3.2-6.3c2.4,0.6,4.6,1.7,6.5,3.1l1.1-0.1C16.8,12.2,20.2,10.5,23.8,10 M23.8,9
				C23.8,9,23.8,9,23.8,9c-0.1,0-0.1,0-0.2,0c-3.8,0.5-7.3,2.2-10.3,5l-0.3,0C11,12.6,8.8,11.6,6.4,11c-0.1,0-0.2,0-0.2,0
				c-0.4,0-0.7,0.2-0.9,0.5c-0.2,0.4-0.2,0.9,0.1,1.2c2,2.1,2.9,3.9,2.9,5.6v39c0,2.5-0.8,4.7-2.3,6.4c-0.2,0.2-0.3,0.6-0.2,0.9
				c0.1,0.3,0.3,0.6,0.6,0.7c6.1,2.2,10.5,4.6,13.6,7.2c0.2,0.2,0.4,0.2,0.7,0.2c0.2,0,0.5-0.1,0.7-0.2l8.9-7.6
				c0.2-0.2,0.3-0.4,0.3-0.7c0-0.3-0.1-0.5-0.3-0.7l-1.2-1.3c-0.2-0.2-0.5-0.3-0.7-0.3c-0.2,0-0.4,0.1-0.6,0.2l-1.8,1.3L20,59.5
				V18.9c0-3.3,1.4-5.9,4.4-8.1c0.3-0.2,0.4-0.5,0.4-0.8C24.8,9.5,24.4,9,23.8,9C23.8,9,23.8,9,23.8,9L23.8,9z M23.8,11L23.8,11
				L23.8,11L23.8,11z"/>
		</g>
		<g>
			<path d="M44.6,72.3c-0.1,0-0.2,0-0.3-0.1c-4.7-4.4-7.1-8.7-7.1-12.9c0-6.2,3.1-12,9.6-17.8l-4.6-11.9c-0.1-0.2,0-0.3,0.1-0.5
				c0.1-0.1,0.2-0.2,0.4-0.2c0,0,1.3,0.1,1.3,0.1c0.3,0,0.7,0,1,0c3.1,0,6.1-1.3,8.7-3.7c0.1-0.1,0.2-0.1,0.3-0.1c0.1,0,0.1,0,0.2,0
				l13.6,4.5l2.5-2c0.1-0.1,0.2-0.1,0.3-0.1c0,0,0.1,0,0.1,0c0.1,0,0.3,0.1,0.3,0.3l0.2,0.4c0.1,0.2,0.1,0.3,0,0.5
				c-1.5,2.4-2.6,4.8-3.2,7.3v25.5c0.4,1.3,1.1,2.2,2.2,2.6l1.6-0.8c0.1,0,0.1-0.1,0.2-0.1c0.1,0,0.2,0,0.3,0.1l1.1,0.9
				c0.1,0.1,0.2,0.2,0.2,0.4c0,0.1-0.1,0.3-0.2,0.4l-8.4,7c-0.1,0.1-0.2,0.1-0.3,0.1c-0.1,0-0.2,0-0.2-0.1c-4-2.2-6.2-5.5-6.5-10
				l-12.5,10c-0.1,0.1-0.2,0.1-0.3,0.1H44.6z M48.5,43.6c-1.7,3.1-2.5,6.1-2.5,8.9c0,4.1,1.7,8.1,5.2,11.6l6.8-5.8v-10L48.5,43.6z
				 M57.9,45.5v-9.6l-12.8-4.8l3.7,9.9L57.9,45.5z"/>
			<path d="M54,25.7l13.9,4.6l2.7-2.2l0.2,0.4c-1.6,2.4-2.6,4.9-3.3,7.5v25.6c0.5,1.7,1.5,2.6,2.7,3l1.8-0.9l1.1,0.9l-8.4,7
				c-4.2-2.2-6.3-5.8-6.3-10.6L45.1,71.8h-0.5c-4.6-4.3-6.9-8.5-6.9-12.5c0-6.1,3.2-11.9,9.7-17.7l-4.7-12.2l1.3,0.1
				c0.3,0,0.7,0,1,0C48.2,29.5,51.3,28.2,54,25.7 M58.4,46.3V35.5l-14.2-5.3l4.1,11.1L58.4,46.3 M51.2,64.9l7.3-6.3V48.1L48.3,43
				c-1.9,3.3-2.8,6.6-2.8,9.6C45.5,56.9,47.4,61.1,51.2,64.9 M54,24.7c-0.2,0-0.5,0.1-0.7,0.3c-2.5,2.4-5.4,3.6-8.4,3.6
				c-0.3,0-0.6,0-0.9,0l-1.3-0.1c0,0-0.1,0-0.1,0c-0.3,0-0.6,0.1-0.8,0.4c-0.2,0.3-0.3,0.6-0.1,1l4.4,11.6c-6.3,5.8-9.5,11.8-9.5,18
				c0,4.3,2.4,8.7,7.3,13.2c0.2,0.2,0.4,0.3,0.7,0.3h0.5c0.2,0,0.4-0.1,0.6-0.2l11.8-9.5c0.5,4.2,2.8,7.4,6.7,9.5
				c0.1,0.1,0.3,0.1,0.5,0.1c0.2,0,0.5-0.1,0.6-0.2l8.4-7c0.2-0.2,0.4-0.5,0.4-0.8c0-0.3-0.1-0.6-0.4-0.8L72.6,63
				c-0.2-0.1-0.4-0.2-0.6-0.2c-0.2,0-0.3,0-0.4,0.1l-1.4,0.7c-0.8-0.4-1.3-1.1-1.7-2.1V36.2c0.7-2.5,1.7-4.8,3.2-7.1
				c0.2-0.3,0.2-0.7,0.1-1l-0.2-0.4c-0.1-0.3-0.4-0.5-0.7-0.5c-0.1,0-0.1,0-0.2,0c-0.2,0-0.4,0.1-0.6,0.2l-2.3,1.8l-13.4-4.4
				C54.2,24.7,54.1,24.7,54,24.7L54,24.7z M49.1,40.7L45.9,32l11.5,4.3v8.5L49.1,40.7L49.1,40.7z M51.2,63.5
				c-3.2-3.4-4.7-7-4.7-10.9c0-2.6,0.8-5.3,2.3-8.3l8.7,4.4v9.5L51.2,63.5L51.2,63.5z"/>
		</g>
		<g>
			<path d="M102.2,72.1c-0.1,0-0.2,0-0.2-0.1c-3.3-1.7-6.6-2.5-9.7-2.5c-3,0-6.2,0.7-9.7,2.2c-0.1,0-0.1,0-0.2,0
				c-0.1,0-0.2,0-0.3-0.1l-1.3-0.9c-0.1-0.1-0.2-0.2-0.2-0.3s0-0.3,0.1-0.4L92.1,54l-8.9-4.9c-0.2-0.1-0.3-0.3-0.3-0.4V33.6
				c0-0.2,0.1-0.4,0.3-0.5c4.3-1.9,8.3-4.6,11.9-8c0.1-0.1,0.2-0.1,0.3-0.1c0.1,0,0.2,0,0.2,0.1c5.4,2.7,9.4,4,12.3,4l2.5-0.3
				c1.7,0,3.3-1.4,3.3-2.9c0-0.5-0.7-1.7-2-3.4l-0.5-0.9c0-0.1-0.1-0.2-0.1-0.2c0-0.9,0.5-2.1,2.8-2.1c1.6,0,3.4,0.7,3.4,4.1
				c0,1.6-1,3.7-2.9,6.4l-8.6,11.6l8.7,5.4c0.1,0.1,0.2,0.3,0.2,0.4v18c0,0.2-0.1,0.4-0.3,0.5c-2.2,0.7-4.3,1.7-6.2,2.9l-0.9,0.5
				c-1.1,0.7-2.8,1.7-4.9,3.2C102.4,72.1,102.3,72.1,102.2,72.1z M95.6,61c3.3,0,6.6,0.8,10.1,2.4l0.1-11.9l-5.5-2.8l-9.8,12.7
				C91.9,61.2,93.6,61,95.6,61z M97.8,46.7l8.5-11.2c-1.2,0.1-2.6,0.2-4.3,0.2c-2.9,0-5.9-0.6-9.3-1.9L92.5,44L97.8,46.7z"/>
			<path d="M113.9,19.6c2,0,2.9,1.2,2.9,3.6c0,1.5-1,3.5-2.8,6.1l-8.9,12l9.2,5.7v18c-2.2,0.7-4.3,1.7-6.4,2.9
				c-1.1,0.7-3,1.9-5.8,3.7c-3.3-1.7-6.6-2.5-9.9-2.5s-6.5,0.8-9.9,2.2l-1.3-0.9l11.6-16.6l-9.4-5.2V33.6c4.4-2,8.4-4.7,12-8.1
				c5.4,2.6,9.5,4,12.5,4l2.5-0.3c1.9,0,3.7-1.6,3.7-3.4c0-0.7-0.7-1.9-2.2-3.7l-0.5-0.9C111.6,20.1,112.4,19.6,113.9,19.6
				 M97.9,47.4l9.5-12.5c-1.6,0.3-3.4,0.4-5.5,0.4c-2.9,0-6.2-0.7-9.8-2.2L92,44.3L97.9,47.4 M89.2,62.1c1.8-0.4,3.9-0.6,6.4-0.6
				c3.4,0,6.9,0.9,10.6,2.6l0.1-13l-6.2-3.1L89.2,62.1 M113.9,18.6c-2.9,0-3.3,1.6-3.3,2.6c0,0.2,0,0.3,0.1,0.5l0.5,0.9
				c0,0,0.1,0.1,0.1,0.1c1.8,2.3,1.9,2.9,1.9,3.1c0,1.2-1.3,2.4-2.7,2.4c0,0-0.1,0-0.1,0l-2.5,0.3c-2.8,0-6.7-1.3-12-3.9
				c-0.1-0.1-0.3-0.1-0.4-0.1c-0.3,0-0.5,0.1-0.7,0.3c-3.6,3.4-7.5,6.1-11.7,7.9c-0.4,0.2-0.6,0.5-0.6,0.9v15.1
				c0,0.4,0.2,0.7,0.5,0.9l8.4,4.6l-11,15.7c-0.2,0.2-0.2,0.5-0.2,0.7c0,0.3,0.2,0.5,0.4,0.6l1.3,0.9c0.2,0.1,0.4,0.2,0.6,0.2
				c0.1,0,0.3,0,0.4-0.1c3.4-1.5,6.5-2.2,9.5-2.2c3,0,6.2,0.8,9.4,2.4c0.1,0.1,0.3,0.1,0.4,0.1c0.2,0,0.4-0.1,0.6-0.2
				c2.1-1.4,3.7-2.4,4.8-3.1c0.3-0.2,0.7-0.4,0.9-0.6c1.9-1.2,4-2.1,6.1-2.8c0.4-0.1,0.7-0.5,0.7-1V47c0-0.3-0.2-0.7-0.5-0.9
				l-8.3-5.1l8.3-11.2c2-2.8,3-5,3-6.7C117.9,19.2,115.4,18.6,113.9,18.6L113.9,18.6z M93.1,43.7l0.1-9.2c3.2,1.1,6,1.7,8.8,1.7
				c1.2,0,2.3,0,3.2-0.1l-7.5,10L93.1,43.7L93.1,43.7z M91.5,60.7l8.8-11.4l4.9,2.5l-0.1,10.8c-3.3-1.4-6.5-2.1-9.6-2.1
				C94.1,60.5,92.8,60.6,91.5,60.7L91.5,60.7z"/>
		</g>
		<g>
			<path d="M137.9,72.2c-0.1,0-0.2,0-0.3-0.1c-4.6-3.7-8.6-6.1-12.2-7.3c-0.2-0.1-0.3-0.2-0.3-0.4c0-0.2,0-0.3,0.1-0.5
				c1.7-1.8,2.5-4,2.5-6.7V32.5h-2.9c-0.1,0-0.3-0.1-0.4-0.2c-0.1-0.1-0.1-0.2-0.1-0.4l0.1-1.4c0-0.1,0-0.2,0.1-0.3l12.7-15.9
				c0.1-0.1,0.2-0.2,0.4-0.2c0.1,0,0.1,0,0.2,0c0.2,0.1,0.3,0.3,0.3,0.5l0.1,11.9h9.5c0.3,0,0.5,0.2,0.5,0.5v5
				c0,0.3-0.2,0.5-0.5,0.5h-9.5v27.7l4.7,3.9l2.4-1.9c0.1-0.1,0.2-0.1,0.3-0.1c0,0,0,0,0.1,0c0.1,0,0.3,0.1,0.3,0.2l1.1,1.4
				c0.2,0.2,0.1,0.5-0.1,0.7l-8.8,7.6C138.1,72.2,138,72.2,137.9,72.2z"/>
			<path d="M137.6,14.7l0.1,12.4h10v5h-10v28.5l5.2,4.3l2.7-2.2l1.1,1.4l-8.8,7.6c-4.5-3.6-8.6-6.2-12.3-7.4c1.8-1.9,2.6-4.2,2.6-7
				V32h-3.4l0.1-1.4L137.6,14.7 M137.6,13.7c-0.3,0-0.6,0.1-0.8,0.4L124.1,30c-0.1,0.2-0.2,0.4-0.2,0.6l-0.1,1.4
				c0,0.3,0.1,0.5,0.3,0.8c0.2,0.2,0.5,0.3,0.7,0.3h2.4v24.2c0,2.6-0.8,4.7-2.4,6.4c-0.2,0.2-0.3,0.6-0.2,0.9
				c0.1,0.3,0.3,0.6,0.6,0.7c3.5,1.2,7.4,3.6,12,7.3c0.2,0.1,0.4,0.2,0.6,0.2c0.2,0,0.5-0.1,0.7-0.2l8.8-7.6c0.4-0.3,0.5-1,0.1-1.4
				l-1.1-1.4c-0.2-0.3-0.5-0.4-0.8-0.4c-0.2,0-0.4,0.1-0.6,0.2l-2.1,1.7l-4.2-3.5v-27h9c0.6,0,1-0.4,1-1v-5c0-0.6-0.4-1-1-1h-9
				l-0.1-11.4c0-0.4-0.3-0.8-0.7-0.9C137.8,13.7,137.7,13.7,137.6,13.7L137.6,13.7z"/>
		</g>
		<g>
			<path d="M231.5,72.5c-0.1,0-0.1,0-0.2-0.1c-5-2.5-8.7-3.7-11.2-3.7c-2.8,0-5.7,1.2-8.7,3.6c-0.1,0.1-0.2,0.1-0.3,0.1
				c-0.1,0-0.2,0-0.3-0.1c-4.4-3.3-10-5.8-16.9-7.6c-0.2,0-0.3-0.2-0.4-0.4s0-0.4,0.2-0.5c1.7-1.5,2.6-3.9,2.6-7.2V34.2
				c-2.9-3.5-4.3-6.6-4.3-9.3c0-4.4,3.3-8.4,9.9-11.9c0.1,0,0.2-0.1,0.2-0.1c0.2,0,0.3,0.1,0.4,0.2l0.5,0.8c0.1,0.2,0.1,0.5-0.1,0.6
				c-2.5,2.2-3.7,4.3-3.7,6.1c0,0.2,0.2,1.2,3.4,5.8c2.2,2.9,3.4,5.7,3.7,8.3l12.4-9.3c0.1-0.1,0.2-0.1,0.3-0.1c0.1,0,0.2,0,0.3,0.1
				c3.8,2.9,5.9,6.1,6.4,9.6l12.6-9.7c0.1-0.1,0.2-0.1,0.3-0.1c0.1,0,0.2,0,0.3,0.1c4.5,3.9,6.8,7.6,6.8,10.9v28.2
				c0,0.2-0.2,0.4-0.4,0.5c-4.8,1.3-9.4,3.8-13.6,7.4C231.7,72.5,231.6,72.5,231.5,72.5z M225.9,61c2.5,0.9,4.6,1.6,6.8,2.1
				c0.8,0.2,2,0.5,3.8,1V38.4c0-1-0.6-2.2-1.7-3.3c-0.4-0.5-0.9-0.9-1.6-1.7l-7.3,5.4V61z M206.1,60.3c2.5,1.1,5.7,2.4,9.8,3.7V38.4
				c0-0.8-0.2-1.4-0.6-2c0,0-0.1-0.1-0.1-0.1c-0.1-0.2-1.1-1.4-2.4-2.8l-6.7,5.3V60.3z"/>
			<path d="M202,13.4l0.5,0.8c-2.6,2.3-3.9,4.5-3.9,6.5c0,0.7,1.2,2.7,3.5,6.1c2.4,3.2,3.6,6.3,3.6,9l13.2-9.9
				c3.9,3,6.1,6.4,6.4,10.2l13.3-10.3c4.4,3.8,6.6,7.3,6.6,10.6v28.2c-5,1.4-9.6,3.9-13.8,7.5c-5-2.4-8.8-3.7-11.4-3.7
				c-3,0-6,1.3-9,3.7c-4.5-3.3-10.2-5.9-17.1-7.7c1.9-1.7,2.7-4.2,2.7-7.5V34c-2.8-3.4-4.3-6.5-4.3-9.1
				C192.4,20.7,195.6,16.9,202,13.4 M236.9,64.8V38.4c0-1.1-0.6-2.3-1.9-3.6c-0.4-0.5-1-1.1-1.9-2l-7.8,5.8v22.8
				c2.2,0.8,4.5,1.6,7.1,2.2C233.4,63.8,234.9,64.2,236.9,64.8 M216.3,64.8V38.4c0-0.8-0.2-1.6-0.7-2.2c-0.1-0.3-1.1-1.4-2.8-3.3
				l-7.2,5.8v22.1C208.3,61.9,211.9,63.3,216.3,64.8 M202,12.4c-0.2,0-0.3,0-0.5,0.1c-6.8,3.6-10.2,7.7-10.2,12.3
				c0,2.8,1.4,5.9,4.3,9.5v22.4c0,3.1-0.8,5.4-2.4,6.8c-0.3,0.2-0.4,0.6-0.3,1c0.1,0.4,0.4,0.6,0.7,0.7c6.9,1.8,12.4,4.3,16.8,7.6
				c0.2,0.1,0.4,0.2,0.6,0.2c0.2,0,0.4-0.1,0.6-0.2c2.9-2.4,5.7-3.5,8.4-3.5c2.4,0,6.1,1.2,11,3.6c0.1,0.1,0.3,0.1,0.4,0.1
				c0.2,0,0.5-0.1,0.7-0.2c4.1-3.6,8.6-6,13.4-7.3c0.4-0.1,0.7-0.5,0.7-1V36.3c0-3.5-2.3-7.2-7-11.3c-0.2-0.2-0.4-0.2-0.7-0.2
				c-0.2,0-0.4,0.1-0.6,0.2l-12,9.2c-0.7-3.3-2.9-6.3-6.5-9.1c-0.2-0.1-0.4-0.2-0.6-0.2c-0.2,0-0.4,0.1-0.6,0.2l-11.8,8.8
				c-0.4-2.5-1.6-5.1-3.7-7.7c-3.1-4.4-3.3-5.4-3.3-5.5c0-1.6,1.2-3.6,3.6-5.7c0.4-0.3,0.4-0.9,0.2-1.3l-0.5-0.8
				C202.7,12.6,202.4,12.4,202,12.4L202,12.4z M226.4,39.1l6.7-5c0.5,0.5,0.9,0.9,1.2,1.3c0,0,0,0.1,0.1,0.1c1,1,1.6,2,1.6,2.9v25.1
				c-1.4-0.4-2.5-0.7-3.2-0.8c-2-0.5-4.1-1.2-6.4-2V39.1L226.4,39.1z M206.6,39l6.1-4.9c1,1.1,1.9,2.1,2,2.3c0,0.1,0.1,0.1,0.1,0.2
				c0.3,0.5,0.5,1,0.5,1.7v25c-3.6-1.2-6.5-2.3-8.8-3.4V39L206.6,39z"/>
		</g>
		<g>
			<path d="M268.1,72.1c-0.1,0-0.2,0-0.2-0.1c-4.3-2.4-8.8-4-13.3-4.8c-0.2,0-0.3-0.2-0.4-0.3c-0.1-0.2,0-0.4,0.1-0.5
				c1.7-1.8,2.6-4.1,2.6-6.8V33.5c0-0.2,0.1-0.4,0.3-0.5c4.2-1.9,8.5-4.4,13.1-7.7c0.1-0.1,0.2-0.1,0.3-0.1c0.1,0,0.3,0,0.4,0.1
				L283.5,38c0.1,0.1,0.2,0.2,0.1,0.4c0,0.1-0.1,0.3-0.2,0.4c-7.1,5-12.6,9.1-16.7,12.6V61l7.7,3.4l6.2-4c0.1-0.1,0.2-0.1,0.3-0.1
				c0.1,0,0.3,0.1,0.4,0.2l1.1,1.2c0.1,0.1,0.1,0.3,0.1,0.4c0,0.1-0.1,0.3-0.2,0.4c-1.8,1.2-3.6,2.4-5.4,3.6l-8.5,6
				C268.3,72.1,268.2,72.1,268.1,72.1z M266.7,47.9l8-6.3l-8-8.2V47.9z"/>
			<path d="M270.6,25.8l12.6,12.6c-7.1,5-12.7,9.2-16.9,12.8v10.2l8.2,3.6l6.5-4.1L282,62c-1.7,1.1-3.4,2.2-5.4,3.6l-8.5,6
				c-4.3-2.3-8.8-4-13.5-4.9c1.9-2,2.7-4.3,2.7-7.1V33.5C261.9,31.4,266.3,28.8,270.6,25.8 M266.2,48.9l9.3-7.3l-9.3-9.5V48.9
				 M270.6,24.8c-0.2,0-0.4,0.1-0.6,0.2c-4.6,3.2-8.8,5.7-13,7.6c-0.4,0.2-0.6,0.5-0.6,0.9v26.1c0,2.6-0.8,4.7-2.5,6.4
				c-0.3,0.3-0.3,0.6-0.2,1s0.4,0.6,0.8,0.7c4.5,0.8,8.9,2.4,13.2,4.8c0.1,0.1,0.3,0.1,0.5,0.1c0.2,0,0.4-0.1,0.6-0.2l8.5-6
				c1.7-1.2,3.5-2.4,5.3-3.6c0.2-0.2,0.4-0.4,0.4-0.7c0-0.3-0.1-0.6-0.3-0.8l-1.1-1.2c-0.2-0.2-0.5-0.3-0.7-0.3
				c-0.2,0-0.4,0.1-0.5,0.2l-6,3.8l-7.1-3.1v-9.1c4.1-3.5,9.5-7.5,16.5-12.4c0.2-0.2,0.4-0.4,0.4-0.7c0-0.3-0.1-0.6-0.3-0.8
				l-12.6-12.6C271.1,24.9,270.8,24.8,270.6,24.8L270.6,24.8z M267.2,46.9V34.6l6.8,6.9L267.2,46.9L267.2,46.9z"/>
		</g>
		<g>
			<path d="M304.9,72.1c-0.1,0-0.2,0-0.2-0.1c-4.3-2.4-8.8-4-13.3-4.8c-0.2,0-0.3-0.2-0.4-0.3c-0.1-0.2,0-0.4,0.1-0.5
				c1.7-1.8,2.6-4.1,2.6-6.8V33.5c0-0.2,0.1-0.4,0.3-0.5c4.2-1.9,8.5-4.4,13.1-7.7c0.1-0.1,0.2-0.1,0.3-0.1c0.1,0,0.3,0,0.4,0.1
				L320.3,38c0.1,0.1,0.2,0.2,0.1,0.4c0,0.1-0.1,0.3-0.2,0.4c-7.1,5-12.6,9.1-16.7,12.6V61l7.7,3.4l6.2-4c0.1-0.1,0.2-0.1,0.3-0.1
				c0.1,0,0.3,0.1,0.4,0.2l1.1,1.2c0.1,0.1,0.1,0.3,0.1,0.4c0,0.1-0.1,0.3-0.2,0.4c-1.8,1.2-3.6,2.4-5.4,3.6l-8.5,6
				C305.1,72.1,305,72.1,304.9,72.1z M303.4,47.9l8-6.3l-8-8.2V47.9z"/>
			<path d="M307.3,25.8L320,38.4c-7.1,5-12.7,9.2-16.9,12.8v10.2l8.2,3.6l6.5-4.1l1.1,1.2c-1.7,1.1-3.4,2.2-5.4,3.6l-8.5,6
				c-4.3-2.3-8.8-4-13.5-4.9c1.9-2,2.7-4.3,2.7-7.1V33.5C298.6,31.4,303,28.8,307.3,25.8 M302.9,48.9l9.3-7.3l-9.3-9.5V48.9
				 M307.3,24.8c-0.2,0-0.4,0.1-0.6,0.2c-4.6,3.2-8.8,5.7-13,7.6c-0.4,0.2-0.6,0.5-0.6,0.9v26.1c0,2.6-0.8,4.7-2.5,6.4
				c-0.3,0.3-0.3,0.6-0.2,1s0.4,0.6,0.8,0.7c4.5,0.8,8.9,2.4,13.2,4.8c0.1,0.1,0.3,0.1,0.5,0.1c0.2,0,0.4-0.1,0.6-0.2l8.5-6
				c1.7-1.2,3.5-2.4,5.3-3.6c0.2-0.2,0.4-0.4,0.4-0.7c0-0.3-0.1-0.6-0.3-0.8l-1.1-1.2c-0.2-0.2-0.5-0.3-0.7-0.3
				c-0.2,0-0.4,0.1-0.5,0.2l-6,3.8l-7.1-3.1v-9.1c4.1-3.5,9.5-7.5,16.5-12.4c0.2-0.2,0.4-0.4,0.4-0.7c0-0.3-0.1-0.6-0.3-0.8
				L308,25.1C307.9,24.9,307.6,24.8,307.3,24.8L307.3,24.8z M303.9,46.9V34.6l6.8,6.9L303.9,46.9L303.9,46.9z"/>
		</g>
		<g>
			<path d="M344.8,72.4c-0.1,0-0.2,0-0.2-0.1c-5.6-3.2-10.2-5.3-14.1-6.4c-0.2,0-0.3-0.2-0.3-0.4c0-0.2,0-0.4,0.1-0.5
				c1.5-1.5,2.3-3.7,2.3-6.7V32.5h-4.5c-0.3,0-0.5-0.2-0.5-0.5v-4.9c0-0.3,0.2-0.5,0.5-0.5h4.5v-8.2c0-2-1.1-4.1-3.3-6.3
				c-0.2-0.2-0.2-0.4-0.1-0.6c0.1-0.2,0.3-0.3,0.4-0.3c0,0,0.1,0,0.1,0c2.4,0.6,4.6,1.6,6.4,3l1-0.1c3-3.2,6.2-4.8,9.7-4.8
				c0.2,0,0.4,0.1,0.5,0.4c0.1,0.2,0,0.4-0.2,0.6c-2.9,1.8-4.4,4.6-4.4,8.4v17.2l11.9-10.4c0.1-0.1,0.2-0.1,0.3-0.1
				c0.1,0,0.3,0.1,0.4,0.2l8.9,9.4c0.1,0.1,0.1,0.2,0.1,0.4c0,0.1-0.1,0.3-0.2,0.4c-2,1.6-5,4.4-8.5,7.9c2.4,1.9,4.2,4.2,5.2,6.9
				c0.5,1.1,1.1,3.6,1.9,7.2c0.5,2.6,1.3,4.7,2.2,6.1l1.5-0.8c0.1,0,0.2-0.1,0.2-0.1c0.1,0,0.3,0.1,0.4,0.2l1.2,1.3
				c0.1,0.1,0.1,0.2,0.1,0.4c0,0.1-0.1,0.3-0.2,0.4l-8.9,6.9c-0.1,0.1-0.2,0.1-0.3,0.1c-0.1,0-0.2,0-0.3-0.1
				c-2.4-1.7-3.9-4.7-4.7-8.9l-8.7,9.1C345,72.4,344.9,72.4,344.8,72.4z M347.9,64.5l5.2-5.4c-0.5-3.4-2.2-6.4-5.3-9.1l-5.3,4.2v7.6
				L347.9,64.5z M342.6,50.3l12.6-10.8l-5.4-5.7l-7.2,6.6V50.3z"/>
			<path d="M346.8,9.9L346.8,9.9 M346.8,9.9c-3,1.9-4.6,4.8-4.6,8.8V37L355,25.9l8.9,9.4c-1.9,1.5-4.9,4.2-9,8.3
				c2.5,1.9,4.4,4.2,5.5,7c0.5,1.1,1.1,3.5,1.9,7.1c0.6,2.9,1.5,5.2,2.5,6.6l1.9-1l1.2,1.3l-8.9,6.9c-2.4-1.8-4-5-4.7-9.6l-9.4,9.9
				c-5.6-3.1-10.3-5.3-14.2-6.5c1.7-1.7,2.4-4,2.4-7V32h-5v-4.9h5v-8.7c0-2.2-1.2-4.4-3.4-6.6c2.3,0.6,4.5,1.6,6.4,3l1.4-0.1
				C340.3,11.5,343.4,9.9,346.8,9.9 M342.1,51.4l13.8-11.8l-6.1-6.5l-7.7,7V51.4 M348,65.2l5.7-5.9c-0.5-3.8-2.4-7-5.8-9.9l-5.8,4.6
				v8.1L348,65.2 M346.8,8.9L346.8,8.9c-3.6,0-6.9,1.6-10,4.8l-0.6,0c-1.8-1.4-4-2.4-6.4-3c-0.1,0-0.2,0-0.2,0
				c-0.4,0-0.7,0.2-0.9,0.5c-0.2,0.4-0.2,0.9,0.2,1.2c2.1,2.1,3.1,4.1,3.1,5.9v7.7h-4c-0.6,0-1,0.4-1,1V32c0,0.6,0.4,1,1,1h4v25.4
				c0,2.8-0.7,4.9-2.2,6.3c-0.2,0.2-0.3,0.6-0.3,1c0.1,0.3,0.3,0.6,0.7,0.7c3.8,1.1,8.4,3.2,14,6.4c0.2,0.1,0.3,0.1,0.5,0.1
				c0.3,0,0.5-0.1,0.7-0.3l8-8.5c0.9,3.9,2.5,6.6,4.7,8.3c0.2,0.1,0.4,0.2,0.6,0.2c0.2,0,0.4-0.1,0.6-0.2l8.9-6.9
				c0.2-0.2,0.4-0.4,0.4-0.7c0-0.3-0.1-0.6-0.3-0.8l-1.2-1.3c-0.2-0.2-0.5-0.3-0.7-0.3c-0.2,0-0.3,0-0.5,0.1l-1.1,0.6
				c-0.8-1.4-1.4-3.3-1.9-5.5c-0.8-3.6-1.4-6.1-1.9-7.3c-1-2.6-2.6-4.9-4.9-6.7c3.3-3.3,6.2-5.9,8.1-7.4c0.2-0.2,0.4-0.4,0.4-0.7
				c0-0.3-0.1-0.6-0.3-0.8l-8.9-9.4c-0.2-0.2-0.5-0.3-0.7-0.3c-0.2,0-0.5,0.1-0.7,0.2l-11.1,9.7V18.7c0-3.6,1.3-6.2,4.1-7.9
				c0.3-0.2,0.5-0.5,0.5-0.9C347.8,9.4,347.4,8.9,346.8,8.9L346.8,8.9z M346.8,10.9L346.8,10.9L346.8,10.9L346.8,10.9z M343.1,40.6
				l6.7-6.1l4.7,5l-11.3,9.7V40.6L343.1,40.6z M343.1,54.5l4.7-3.8c2.7,2.5,4.2,5.2,4.7,8.2l-4.8,5l-4.7-2.4V54.5L343.1,54.5z"/>
		</g>
		<g>
			<path d="M465.3,72.5c-0.1,0-0.2,0-0.2-0.1c-2.6-1.4-4.3-3.1-5.2-5c-0.8-1.7-1.2-4.1-1.2-7.2V37.1l-3.7-3.4l-6.4,4.7v23.8l2.4,3.2
				c0.2,0.2,0.1,0.5-0.1,0.7l-6.9,6.3c-0.1,0.1-0.2,0.1-0.3,0.1c-0.1,0-0.2,0-0.3-0.1l-7.5-6.3c-0.1-0.1-0.2-0.2-0.2-0.4
				c0-0.1,0-0.3,0.1-0.4l2.8-2.9V37.6c0-1.2-1.1-2.6-3.4-4.2l-7.2,5.4v23.4l2.5,3.2c0.2,0.2,0.1,0.5-0.1,0.7l-7.1,6.3
				c-0.1,0.1-0.2,0.1-0.3,0.1c-0.1,0-0.2,0-0.3-0.1l-7.2-6.3c-0.1-0.1-0.2-0.2-0.2-0.3c0-0.1,0-0.3,0.1-0.4l2.5-2.9V37.6
				c0-1.5-0.7-2.8-2-3.9l-1.3,0.9c-0.1,0.1-0.2,0.1-0.3,0.1c-0.1,0-0.3-0.1-0.4-0.2l-0.9-1.1c-0.2-0.2-0.1-0.5,0-0.7l7.8-7.3
				c0.1-0.1,0.2-0.1,0.3-0.1c0.1,0,0.2,0,0.2,0.1c4.1,2.2,6.3,5.5,6.6,9.8l13.4-9.8c0.1-0.1,0.2-0.1,0.3-0.1c0.1,0,0.2,0,0.3,0.1
				c3.1,2.8,5.1,6.1,6.2,9.8c2.9-2.2,7-5.4,12.1-9.6c0.1-0.1,0.2-0.1,0.3-0.1c0.1,0,0.2,0,0.3,0.1l6.3,6l3.7-3
				c0.1-0.1,0.2-0.1,0.3-0.1c0.1,0,0.3,0,0.4,0.1l1.1,1.1c0.2,0.2,0.2,0.4,0.1,0.6l-0.6,0.9c-0.5,0.7-1,1.4-1.5,2.1l-0.5,0.7
				c-0.6,0.9-1.2,1.7-1.6,2.4v25.5c0.5,1,1.3,1.8,2.4,2.6l1.6-1c0.1-0.1,0.2-0.1,0.3-0.1c0.1,0,0.2,0,0.3,0.1l1.2,1
				c0.1,0.1,0.2,0.2,0.2,0.4c0,0.1-0.1,0.3-0.2,0.4l-8.8,7.2C465.6,72.5,465.5,72.5,465.3,72.5z"/>
			<path d="M441.8,25.8c3.2,2.9,5.3,6.4,6.3,10.3c2.9-2.2,7.1-5.5,12.7-10.1l6.6,6.3l4-3.3l1.1,1.1c-0.8,1.1-1.5,2.1-2.2,2.9
				c-0.9,1.3-1.7,2.3-2.2,3.2v25.7c0.6,1.3,1.6,2.2,2.9,3.1l1.9-1.2l1.2,1l-8.8,7.2c-2.4-1.4-4.1-2.9-5-4.8
				c-0.8-1.7-1.2-3.9-1.2-6.9V36.9l-4.2-3.8l-6.9,5.1v24.2l2.5,3.3l-6.9,6.3l-7.5-6.3l2.9-3V37.6c0-1.5-1.3-3-3.9-4.8l-7.7,5.8v23.9
				l2.6,3.3l-7.1,6.3l-7.2-6.3l2.6-3V37.6c0-1.7-0.8-3.2-2.4-4.5l-1.6,1.1l-0.9-1.1l7.8-7.3c4.2,2.2,6.4,5.7,6.4,10.4L441.8,25.8
				 M421.2,24.8c-0.2,0-0.5,0.1-0.7,0.3l-7.8,7.3c-0.4,0.4-0.4,1-0.1,1.4l0.9,1.1c0.2,0.2,0.5,0.4,0.8,0.4c0.2,0,0.4-0.1,0.6-0.2
				l0.9-0.6c1,0.9,1.5,2,1.5,3.2v24.8l-2.4,2.7c-0.2,0.2-0.3,0.5-0.2,0.7c0,0.3,0.1,0.5,0.3,0.7l7.2,6.3c0.2,0.2,0.4,0.2,0.7,0.2
				c0.2,0,0.5-0.1,0.7-0.2l7.1-6.3c0.4-0.4,0.5-1,0.1-1.4l-2.4-3.1v-23l6.7-5c1.9,1.4,2.9,2.6,2.9,3.6v24.7l-2.7,2.7
				c-0.2,0.2-0.3,0.5-0.3,0.7c0,0.3,0.1,0.5,0.4,0.7l7.5,6.3c0.2,0.2,0.4,0.2,0.6,0.2c0.2,0,0.5-0.1,0.7-0.3l6.9-6.3
				c0.4-0.3,0.4-0.9,0.1-1.4l-2.3-3.1V38.7l5.9-4.3l3.3,3v22.9c0,3.1,0.4,5.6,1.3,7.4c1,2,2.7,3.7,5.4,5.2c0.2,0.1,0.3,0.1,0.5,0.1
				c0.2,0,0.5-0.1,0.6-0.2l8.8-7.2c0.2-0.2,0.4-0.5,0.4-0.8c0-0.3-0.1-0.6-0.4-0.8l-1.2-1c-0.2-0.2-0.4-0.2-0.6-0.2
				c-0.2,0-0.4,0.1-0.5,0.2l-1.3,0.8c-0.9-0.7-1.5-1.4-2-2.2V36.4c0.4-0.6,0.9-1.4,1.5-2.2l0.5-0.7c0.5-0.6,1-1.3,1.5-2.1l0.6-0.9
				c0.3-0.4,0.2-0.9-0.1-1.3l-1.1-1.1c-0.2-0.2-0.5-0.3-0.7-0.3c-0.2,0-0.5,0.1-0.6,0.2l-3.3,2.8l-6-5.7c-0.2-0.2-0.4-0.3-0.7-0.3
				c-0.2,0-0.5,0.1-0.6,0.2c-4.8,3.9-8.6,7-11.5,9.2c-1.2-3.5-3.2-6.7-6.1-9.3c-0.2-0.2-0.4-0.3-0.7-0.3c-0.2,0-0.4,0.1-0.6,0.2
				l-12.7,9.3c-0.5-4.1-2.8-7.2-6.8-9.4C421.6,24.8,421.4,24.8,421.2,24.8L421.2,24.8z"/>
		</g>
		<g>
			<path d="M490.1,72.3c-0.1,0-0.2,0-0.3-0.1c-4.7-4.4-7.1-8.7-7.1-12.9c0-6.2,3.1-12,9.6-17.8l-4.6-11.9c-0.1-0.2,0-0.3,0.1-0.5
				c0.1-0.1,0.2-0.2,0.4-0.2c0,0,1.3,0.1,1.3,0.1c0.3,0,0.7,0,1,0c3.1,0,6.1-1.3,8.7-3.7c0.1-0.1,0.2-0.1,0.3-0.1c0.1,0,0.1,0,0.2,0
				l13.6,4.5l2.5-2c0.1-0.1,0.2-0.1,0.3-0.1c0,0,0.1,0,0.1,0c0.1,0,0.3,0.1,0.3,0.3l0.2,0.4c0.1,0.2,0.1,0.3,0,0.5
				c-1.5,2.4-2.6,4.8-3.2,7.3v25.5c0.4,1.3,1.1,2.2,2.2,2.6l1.6-0.8c0.1,0,0.1-0.1,0.2-0.1c0.1,0,0.2,0,0.3,0.1l1.1,0.9
				c0.1,0.1,0.2,0.2,0.2,0.4c0,0.1-0.1,0.3-0.2,0.4l-8.4,7c-0.1,0.1-0.2,0.1-0.3,0.1c-0.1,0-0.2,0-0.2-0.1c-4-2.2-6.2-5.5-6.5-10
				l-12.5,10c-0.1,0.1-0.2,0.1-0.3,0.1H490.1z M494,43.6c-1.7,3.1-2.5,6.1-2.5,8.9c0,4.1,1.7,8.1,5.2,11.6l6.8-5.8v-10L494,43.6z
				 M503.4,45.5v-9.6l-12.8-4.8l3.7,9.9L503.4,45.5z"/>
			<path d="M499.5,25.7l13.9,4.6l2.7-2.2l0.2,0.4c-1.6,2.4-2.6,4.9-3.3,7.5v25.6c0.5,1.7,1.5,2.6,2.7,3l1.8-0.9l1.1,0.9l-8.4,7
				c-4.2-2.2-6.3-5.8-6.3-10.6l-13.3,10.7h-0.5c-4.6-4.3-6.9-8.5-6.9-12.5c0-6.1,3.2-11.9,9.7-17.7l-4.7-12.2l1.3,0.1
				c0.3,0,0.7,0,1,0C493.6,29.5,496.7,28.2,499.5,25.7 M503.9,46.3V35.5l-14.2-5.3l4.1,11.1L503.9,46.3 M496.6,64.9l7.3-6.3V48.1
				L493.8,43c-1.9,3.3-2.8,6.6-2.8,9.6C491,56.9,492.8,61.1,496.6,64.9 M499.5,24.7c-0.2,0-0.5,0.1-0.7,0.3
				c-2.5,2.4-5.4,3.6-8.4,3.6c-0.3,0-0.6,0-0.9,0l-1.3-0.1c0,0-0.1,0-0.1,0c-0.3,0-0.6,0.1-0.8,0.4c-0.2,0.3-0.3,0.6-0.1,1l4.4,11.6
				c-6.3,5.8-9.5,11.8-9.5,18c0,4.3,2.4,8.7,7.3,13.2c0.2,0.2,0.4,0.3,0.7,0.3h0.5c0.2,0,0.4-0.1,0.6-0.2l11.8-9.5
				c0.5,4.2,2.8,7.4,6.7,9.5c0.1,0.1,0.3,0.1,0.5,0.1c0.2,0,0.5-0.1,0.6-0.2l8.4-7c0.2-0.2,0.4-0.5,0.4-0.8s-0.1-0.6-0.4-0.8
				l-1.1-0.9c-0.2-0.1-0.4-0.2-0.6-0.2c-0.2,0-0.3,0-0.4,0.1l-1.4,0.7c-0.8-0.4-1.3-1.1-1.7-2.1V36.2c0.7-2.5,1.7-4.8,3.2-7.1
				c0.2-0.3,0.2-0.7,0.1-1l-0.2-0.4c-0.1-0.3-0.4-0.5-0.7-0.5c-0.1,0-0.1,0-0.2,0c-0.2,0-0.4,0.1-0.6,0.2l-2.3,1.8l-13.4-4.4
				C499.7,24.7,499.6,24.7,499.5,24.7L499.5,24.7z M494.6,40.7l-3.2-8.7l11.5,4.3v8.5L494.6,40.7L494.6,40.7z M496.7,63.5
				c-3.2-3.4-4.7-7-4.7-10.9c0-2.6,0.8-5.3,2.3-8.3l8.7,4.4v9.5L496.7,63.5L496.7,63.5z"/>
		</g>
		<g>
			<path d="M529,84.8c-0.1,0-0.2,0-0.3-0.1l-2.1-1.8c-0.1-0.1-0.2-0.2-0.2-0.3c0-0.1,0-0.3,0.1-0.4l10.2-11.6l-8.6-6.1
				c-0.1-0.1-0.2-0.2-0.2-0.4V32c0-0.2,0.2-0.4,0.4-0.5c2.1-0.4,4.4-1.3,7.6-2.7c0.2-0.1,0.8-0.4,1.7-0.8c1.2-0.6,3.1-1.5,5.5-2.7
				c0.1,0,0.1-0.1,0.2-0.1c0.1,0,0.1,0,0.2,0l14.7,6.7l7.1-4.5c0.1-0.1,0.2-0.1,0.3-0.1c0.1,0,0.2,0,0.2,0.1
				c0.2,0.1,0.3,0.3,0.3,0.4v9.3c0,0.1-0.1,0.3-0.2,0.4c-0.1,0.1-0.2,0.1-0.3,0.1c0,0-0.1,0-0.1,0l-7.1-1.1v22.9
				c0,2.1,1.1,4.8,3.3,8.3c3.2,4.7,3.6,6.3,3.6,7v0.4c-0.3,2.5-2.6,4.8-7,6.9l0,0c0,0-1.8,0.9-5.3,2.5c-0.1,0-0.1,0-0.2,0
				c0,0-0.1,0-0.1,0c-5-1.4-9-2-12.3-2c-3.6,0-7.3,0.7-11.4,2C529.1,84.8,529,84.8,529,84.8z M543.4,75.3c4.7,0,9.8,0.8,15.1,2.5
				l0.1-0.3c-3-2.9-5.2-5.2-6.4-6.9c-1.8-2.6-3-5.4-3.5-8.4l-12.3,13.6C538.2,75.4,540.5,75.3,543.4,75.3z M543.2,63.6l5.6-5.7V36.2
				L537.5,33v26.8L543.2,63.6z"/>
			<path d="M543.4,25.8l15,6.8l7.3-4.6v9.3l-7.6-1.2v23.5c0,2.2,1.2,5.1,3.4,8.6c2.3,3.4,3.5,5.7,3.5,6.7v0.4
				c-0.3,2.2-2.5,4.4-6.7,6.5c0,0-1.8,0.9-5.3,2.5c-5-1.4-9.1-2.1-12.4-2.1c-3.6,0-7.4,0.7-11.5,2.1l-2.1-1.8l10.6-12l-9.1-6.5V32
				c2.3-0.5,4.9-1.5,7.7-2.7C536.7,29,539.2,27.8,543.4,25.8 M543.3,64.3l6.1-6.2V35.8L537,32.3v27.8L543.3,64.3 M535,76.4
				c2-0.4,4.7-0.6,8.3-0.6c4.8,0,10,0.9,15.5,2.6l0.2-1.2c-3.2-3-5.4-5.4-6.6-7c-2-2.8-3.1-5.9-3.5-9.3L535,76.4 M543.4,24.8
				c-0.2,0-0.3,0-0.4,0.1c-2.4,1.2-4.3,2.1-5.5,2.7c-0.9,0.4-1.5,0.7-1.7,0.8c-3.1,1.4-5.5,2.2-7.5,2.7c-0.5,0.1-0.8,0.5-0.8,1v32.1
				c0,0.3,0.2,0.6,0.4,0.8l8.2,5.8l-9.8,11.2c-0.2,0.2-0.3,0.5-0.2,0.7s0.1,0.5,0.3,0.7l2.1,1.8c0.2,0.2,0.4,0.2,0.7,0.2
				c0.1,0,0.2,0,0.3-0.1c4-1.3,7.7-2,11.2-2c3.2,0,7.2,0.7,12.2,2c0.1,0,0.2,0,0.3,0c0.1,0,0.3,0,0.4-0.1c3.5-1.6,5.3-2.5,5.3-2.6
				c4.6-2.2,6.9-4.6,7.3-7.2c0,0,0-0.1,0-0.1v-0.4c0-0.9-0.4-2.5-3.7-7.3c-2.2-3.4-3.2-6-3.2-8V37.3l6.5,1c0.1,0,0.1,0,0.2,0
				c0.2,0,0.5-0.1,0.7-0.2c0.2-0.2,0.3-0.5,0.3-0.8V28c0-0.4-0.2-0.7-0.5-0.9c-0.2-0.1-0.3-0.1-0.5-0.1c-0.2,0-0.4,0.1-0.5,0.2
				l-6.9,4.3l-14.5-6.6C543.6,24.8,543.5,24.8,543.4,24.8L543.4,24.8z M538,59.5V33.6l10.3,2.9v21.1l-5.2,5.3L538,59.5L538,59.5z
				 M537.6,75l10.7-11.9c0.6,2.7,1.7,5.2,3.3,7.6c1.1,1.6,3,3.6,5.5,6.1c-4.9-1.4-9.6-2.1-13.9-2.1C541.1,74.8,539.2,74.9,537.6,75
				L537.6,75z"/>
		</g>
		<g>
			<path d="M580.6,72.3c-0.1,0-0.2,0-0.3-0.1c-4.7-4.4-7.1-8.7-7.1-12.9c0-6.2,3.1-12,9.6-17.8l-4.6-11.9c-0.1-0.2,0-0.3,0.1-0.5
				c0.1-0.1,0.2-0.2,0.4-0.2c0,0,1.3,0.1,1.3,0.1c0.3,0,0.7,0,1,0c3.1,0,6.1-1.3,8.7-3.7c0.1-0.1,0.2-0.1,0.3-0.1c0.1,0,0.1,0,0.2,0
				l13.6,4.5l2.5-2c0.1-0.1,0.2-0.1,0.3-0.1c0,0,0.1,0,0.1,0c0.1,0,0.3,0.1,0.3,0.3l0.2,0.4c0.1,0.2,0.1,0.3,0,0.5
				c-1.5,2.4-2.6,4.8-3.2,7.3v25.5c0.4,1.3,1.1,2.2,2.2,2.6l1.6-0.8c0.1,0,0.1-0.1,0.2-0.1c0.1,0,0.2,0,0.3,0.1l1.1,0.9
				c0.1,0.1,0.2,0.2,0.2,0.4c0,0.1-0.1,0.3-0.2,0.4l-8.4,7c-0.1,0.1-0.2,0.1-0.3,0.1c-0.1,0-0.2,0-0.2-0.1c-4-2.2-6.2-5.5-6.5-10
				l-12.5,10c-0.1,0.1-0.2,0.1-0.3,0.1H580.6z M584.5,43.6c-1.7,3.1-2.5,6.1-2.5,8.9c0,4.1,1.7,8.1,5.2,11.6l6.8-5.8v-10L584.5,43.6
				z M593.9,45.5v-9.6l-12.8-4.8l3.7,9.9L593.9,45.5z"/>
			<path d="M590,25.7l13.9,4.6l2.7-2.2l0.2,0.4c-1.6,2.4-2.6,4.9-3.3,7.5v25.6c0.5,1.7,1.5,2.6,2.7,3l1.8-0.9l1.1,0.9l-8.4,7
				c-4.2-2.2-6.3-5.8-6.3-10.6l-13.3,10.7h-0.5c-4.6-4.3-6.9-8.5-6.9-12.5c0-6.1,3.2-11.9,9.7-17.7l-4.7-12.2l1.3,0.1
				c0.3,0,0.7,0,1,0C584.2,29.5,587.2,28.2,590,25.7 M594.4,46.3V35.5l-14.2-5.3l4.1,11.1L594.4,46.3 M587.2,64.9l7.3-6.3V48.1
				L584.3,43c-1.9,3.3-2.8,6.6-2.8,9.6C581.5,56.9,583.3,61.1,587.2,64.9 M590,24.7c-0.2,0-0.5,0.1-0.7,0.3
				c-2.5,2.4-5.4,3.6-8.4,3.6c-0.3,0-0.6,0-0.9,0l-1.3-0.1c0,0-0.1,0-0.1,0c-0.3,0-0.6,0.1-0.8,0.4c-0.2,0.3-0.3,0.6-0.1,1l4.4,11.6
				c-6.3,5.8-9.5,11.8-9.5,18c0,4.3,2.4,8.7,7.3,13.2c0.2,0.2,0.4,0.3,0.7,0.3h0.5c0.2,0,0.4-0.1,0.6-0.2l11.8-9.5
				c0.5,4.2,2.8,7.4,6.7,9.5c0.1,0.1,0.3,0.1,0.5,0.1c0.2,0,0.5-0.1,0.6-0.2l8.4-7c0.2-0.2,0.4-0.5,0.4-0.8s-0.1-0.6-0.4-0.8
				l-1.1-0.9c-0.2-0.1-0.4-0.2-0.6-0.2c-0.2,0-0.3,0-0.4,0.1l-1.4,0.7c-0.8-0.4-1.3-1.1-1.7-2.1V36.2c0.7-2.5,1.7-4.8,3.2-7.1
				c0.2-0.3,0.2-0.7,0.1-1l-0.2-0.4c-0.1-0.3-0.4-0.5-0.7-0.5c-0.1,0-0.1,0-0.2,0c-0.2,0-0.4,0.1-0.6,0.2l-2.3,1.8l-13.4-4.4
				C590.2,24.7,590.1,24.7,590,24.7L590,24.7z M585.1,40.7l-3.2-8.7l11.5,4.3v8.5L585.1,40.7L585.1,40.7z M587.2,63.5
				c-3.2-3.4-4.7-7-4.7-10.9c0-2.6,0.8-5.3,2.3-8.3l8.7,4.4v9.5L587.2,63.5L587.2,63.5z"/>
		</g>
		<g>
			<path d="M626.5,84.8c-4.1,0-7.1-3.1-7.1-7.1c0-2.2,0.8-4.2,2.2-5.7l4.7-3.9c2.1-1.8,3.5-3.2,4.1-4.2c0.9-1.4,1.4-3,1.4-4.7
				c0-4.3-2.5-6.5-7.5-6.5c-1.8,0-3.9,0.3-6.2,0.8c0,0-0.1,0-0.1,0c-0.2,0-0.4-0.1-0.4-0.3c-0.1-0.2-0.1-0.4,0.1-0.6l13.3-13
				l-7.6-7.2l-5,3.3c-0.1,0.1-0.2,0.1-0.3,0.1c0,0-0.1,0-0.1,0c-0.1,0-0.2-0.1-0.3-0.2l-0.9-1.4c-0.1-0.2-0.1-0.5,0.1-0.7l12-8.1
				c0.1-0.1,0.2-0.1,0.3-0.1c0.1,0,0.3,0,0.4,0.1c1,1,2.6,2.4,5,4.5c2.3,1.9,4.3,2.9,6,3.2c0.2,0,0.3,0.2,0.4,0.3
				c0.1,0.2,0,0.4-0.1,0.5L629.5,45c3.1,0.2,5.8,1,8.1,2.6c2.9,2.1,4.3,4.9,4.3,8.5c0,4.6-2.1,8.1-6.4,10.9l-0.3,0.2
				c-1.2,0.7-4.8,2.7-11.1,6.2c-2,1.2-3,2.8-3,4.8c0,1.6,0.9,2.7,2.7,3.2c0.4,0,1.1-0.2,1.7-0.3c0.8-0.2,1.5-0.3,2-0.3
				c1.8,0,2,1.2,2,1.6c0,1-1,1.8-2.9,2.3C626.6,84.8,626.5,84.8,626.5,84.8z"/>
			<path d="M629,25.8c1.1,1.1,2.7,2.5,5,4.5c2.2,1.9,4.3,3,6.3,3.3l-11.9,11.9c3.6,0,6.6,0.9,9,2.5c2.7,2,4.1,4.7,4.1,8.1
				c0,4.4-2.1,7.8-6.2,10.5c-0.7,0.4-4.4,2.5-11.3,6.4c-2.2,1.3-3.2,3-3.2,5.3c0,1.9,1.1,3.1,3.1,3.7c0.8,0,2.9-0.6,3.7-0.6
				c1,0,1.5,0.4,1.5,1.1s-0.9,1.4-2.5,1.9c-3.8,0-6.6-2.8-6.6-6.6c0-2.1,0.7-3.9,2.1-5.4l4.7-3.8c2.1-1.8,3.5-3.2,4.2-4.3
				c1-1.5,1.5-3.1,1.5-5c0-4.8-2.9-7-8-7c-2,0-4.1,0.3-6.4,0.8l13.7-13.4l-8.3-7.8l-5.4,3.5l-0.9-1.4L629,25.8 M629,24.8
				c-0.2,0-0.4,0.1-0.6,0.2l-12,8.1c-0.5,0.3-0.6,0.9-0.3,1.4l0.9,1.4c0.1,0.2,0.4,0.4,0.6,0.4c0.1,0,0.1,0,0.2,0
				c0.2,0,0.4-0.1,0.5-0.2l4.7-3.1l7,6.6l-12.9,12.7c-0.3,0.3-0.4,0.8-0.2,1.2c0.2,0.3,0.5,0.5,0.9,0.5c0.1,0,0.1,0,0.2,0
				c2.3-0.5,4.4-0.8,6.1-0.8c4.7,0,7,2,7,6c0,1.7-0.4,3.1-1.3,4.4c-0.6,1-2,2.3-4,4.1l-4.7,3.8c0,0-0.1,0.1-0.1,0.1
				c-1.5,1.6-2.3,3.7-2.3,6.1c0,4.4,3.3,7.6,7.6,7.6c0.1,0,0.2,0,0.3,0c2.7-0.8,3.3-2,3.3-2.8c0-1-0.6-2.1-2.5-2.1
				c-0.5,0-1.3,0.2-2.1,0.3c-0.5,0.1-1.2,0.2-1.5,0.3c-1.5-0.5-2.3-1.4-2.3-2.7c0-1.9,0.9-3.3,2.7-4.4c6.3-3.4,9.9-5.5,11.1-6.2
				l0.3-0.2c0,0,0,0,0,0c4.5-2.9,6.6-6.6,6.6-11.3c0-3.8-1.5-6.8-4.5-8.9c-2.1-1.5-4.5-2.3-7.3-2.6L641,34.3c0.3-0.3,0.4-0.7,0.2-1
				c-0.1-0.4-0.4-0.6-0.8-0.7c-1.7-0.2-3.5-1.3-5.8-3.1c-2.3-2-3.9-3.4-4.9-4.4C629.5,24.9,629.3,24.8,629,24.8L629,24.8z"/>
		</g>
		<g>
			<path d="M658.2,72.4c-0.1,0-0.2,0-0.2-0.1c-4.6-2.4-6.7-5.9-6.4-10.4l0.1-1.8l0-25.3l-2.7-2.9c-0.1-0.1-0.1-0.2-0.1-0.4
				s0.1-0.3,0.2-0.4l7.2-6c0.1-0.1,0.2-0.1,0.3-0.1s0.2,0,0.3,0.1l7.5,6.3c0.1,0.1,0.2,0.2,0.2,0.3c0,0.1,0,0.3-0.1,0.4l-2.3,2.6
				v26.8c0.3,1.1,1,1.9,2.2,2.6l1.5-1c0.1-0.1,0.2-0.1,0.3-0.1c0.1,0,0.2,0,0.3,0.1l1,0.9c0.1,0.1,0.2,0.2,0.2,0.4
				c0,0.1-0.1,0.3-0.2,0.4l-8.9,7.2C658.5,72.4,658.4,72.4,658.2,72.4z M655,21.9c-0.2,0-0.3-0.1-0.4-0.2c-0.1-0.1-0.1-0.3-0.1-0.4
				l2.3-10c0.1-0.2,0.3-0.4,0.5-0.4h7.2c0.2,0,0.4,0.1,0.5,0.3c0.1,0.2,0.1,0.4-0.1,0.5l-8.3,10c-0.1,0.1-0.2,0.2-0.4,0.2H655z"/>
			<path d="M664.6,11.4l-8.3,10H655l2.3-10H664.6 M656.6,25.8l7.5,6.3l-2.4,2.7v27.1c0.3,1.3,1.2,2.3,2.7,3.1l1.8-1.2l1,0.9
				l-8.9,7.2c-4.4-2.3-6.5-5.7-6.2-9.9l0.1-1.8V34.8l-2.8-3L656.6,25.8 M664.6,10.4h-7.2c-0.5,0-0.9,0.3-1,0.8l-2.3,10
				c-0.1,0.3,0,0.6,0.2,0.8c0.2,0.2,0.5,0.4,0.8,0.4h1.3c0.3,0,0.6-0.1,0.8-0.4l8.3-10c0.2-0.3,0.3-0.7,0.1-1.1
				C665.3,10.6,665,10.4,664.6,10.4L664.6,10.4z M664.6,12.4L664.6,12.4L664.6,12.4L664.6,12.4z M656.6,24.8c-0.2,0-0.5,0.1-0.6,0.2
				l-7.2,6c-0.2,0.2-0.3,0.4-0.4,0.7s0.1,0.5,0.3,0.7l2.6,2.7v25.1l-0.1,1.7c-0.3,4.6,1.9,8.3,6.7,10.8c0.1,0.1,0.3,0.1,0.5,0.1
				c0.2,0,0.4-0.1,0.6-0.2l8.9-7.2c0.2-0.2,0.4-0.5,0.4-0.8c0-0.3-0.1-0.6-0.3-0.8l-1-0.9c-0.2-0.2-0.4-0.3-0.7-0.3
				c-0.2,0-0.4,0.1-0.6,0.2l-1.3,0.8c-0.9-0.6-1.5-1.3-1.7-2.1V35.1l2.2-2.5c0.2-0.2,0.3-0.5,0.3-0.7c0-0.3-0.1-0.5-0.4-0.7
				l-7.5-6.3C657,24.8,656.8,24.8,656.6,24.8L656.6,24.8z"/>
		</g>
		<g>
			<path d="M706.4,72.5c-0.1,0-0.2,0-0.3-0.1c-4.7-3-6.2-6-6.2-12.2V37.1l-3.9-3.4l-6.4,4.7v23.8l2.5,3.2c0.2,0.2,0.1,0.5-0.1,0.7
				l-7,6.3c-0.1,0.1-0.2,0.1-0.3,0.1c-0.1,0-0.2,0-0.3-0.1l-7.4-6.3c-0.1-0.1-0.2-0.2-0.2-0.3c0-0.1,0-0.3,0.1-0.4l2.6-2.9V37.6
				c0-1.4-0.6-2.8-1.9-3.9l-1.2,0.9c-0.1,0.1-0.2,0.1-0.3,0.1c-0.1,0-0.3-0.1-0.4-0.2l-1-1.1c-0.2-0.2-0.2-0.5,0-0.7l8-7.3
				c0.1-0.1,0.2-0.1,0.3-0.1c0.1,0,0.2,0,0.3,0.1c3.9,2.3,6.1,5.6,6.4,9.7c4.8-3.6,8.9-6.8,11.7-9.5c0.1-0.1,0.2-0.1,0.3-0.1
				s0.2,0,0.3,0.1l6.4,6l3.9-3.1c0.1-0.1,0.2-0.1,0.3-0.1c0.1,0,0.3,0.1,0.4,0.2l1,1.1c0.2,0.2,0.2,0.5,0,0.6c-1.6,2-3,4-4.2,6v25.5
				c0.4,0.9,1.2,1.8,2.3,2.6l1.8-1c0.1,0,0.2-0.1,0.2-0.1c0.1,0,0.3,0,0.4,0.1l1,1c0.1,0.1,0.2,0.2,0.1,0.4s-0.1,0.3-0.2,0.4
				l-8.8,7.2C706.7,72.5,706.6,72.5,706.4,72.5z"/>
			<path d="M683.2,25.8c4.1,2.4,6.2,5.9,6.2,10.3c5.5-4,9.7-7.4,12.5-10.1l6.7,6.3l4.2-3.3l1,1.1c-1.5,1.9-2.9,3.9-4.3,6.2v25.7
				c0.5,1.2,1.5,2.2,2.7,3.1l2.1-1.2l1,1l-8.8,7.2c-4.7-3-6-5.9-6-11.7V36.9l-4.4-3.8l-6.9,5.1v24.2l2.6,3.3l-7,6.3l-7.4-6.3l2.7-3
				V37.6c0-1.7-0.8-3.2-2.3-4.5l-1.6,1.1l-1-1.1L683.2,25.8 M683.2,24.8c-0.2,0-0.5,0.1-0.7,0.3l-8,7.3c-0.4,0.4-0.4,1-0.1,1.4
				l1,1.1c0.2,0.2,0.5,0.3,0.7,0.3c0.2,0,0.4-0.1,0.6-0.2l0.9-0.6c0.9,0.9,1.4,2.1,1.4,3.2v24.7l-2.5,2.7c-0.2,0.2-0.3,0.5-0.3,0.7
				c0,0.3,0.1,0.5,0.4,0.7l7.4,6.3c0.2,0.2,0.4,0.2,0.6,0.2c0.2,0,0.5-0.1,0.7-0.3l7-6.3c0.4-0.4,0.4-1,0.1-1.4l-2.4-3.1V38.7
				l5.9-4.3l3.5,3v22.9c0,6.4,1.6,9.4,6.4,12.6c0.2,0.1,0.4,0.2,0.5,0.2c0.2,0,0.5-0.1,0.6-0.2l8.8-7.2c0.2-0.2,0.3-0.4,0.4-0.7
				c0-0.3-0.1-0.6-0.3-0.8l-1-1c-0.2-0.2-0.4-0.3-0.7-0.3c-0.2,0-0.3,0-0.5,0.1l-1.5,0.8c-0.8-0.7-1.5-1.4-1.8-2.1V36.4
				c1.2-1.9,2.6-3.9,4.1-5.8c0.3-0.4,0.3-0.9,0-1.3l-1-1.1c-0.2-0.2-0.5-0.3-0.7-0.3c-0.2,0-0.4,0.1-0.6,0.2l-3.5,2.8l-6.1-5.7
				c-0.2-0.2-0.4-0.3-0.7-0.3c-0.2,0-0.5,0.1-0.7,0.3c-2.7,2.5-6.4,5.6-11,8.9c-0.5-3.9-2.7-7-6.5-9.2
				C683.5,24.8,683.3,24.8,683.2,24.8L683.2,24.8z"/>
		</g>
		<g>
			<path d="M737.2,72.1c-0.1,0-0.2,0-0.2-0.1c-4.3-2.4-8.8-4-13.3-4.8c-0.2,0-0.3-0.2-0.4-0.3c-0.1-0.2,0-0.4,0.1-0.5
				c1.7-1.8,2.6-4.1,2.6-6.8V33.5c0-0.2,0.1-0.4,0.3-0.5c4.2-1.9,8.5-4.4,13.1-7.7c0.1-0.1,0.2-0.1,0.3-0.1c0.1,0,0.3,0,0.4,0.1
				L752.7,38c0.1,0.1,0.2,0.2,0.1,0.4c0,0.1-0.1,0.3-0.2,0.4c-7.1,5-12.6,9.1-16.7,12.6V61l7.7,3.4l6.2-4c0.1-0.1,0.2-0.1,0.3-0.1
				c0.1,0,0.3,0.1,0.4,0.2l1.1,1.2c0.1,0.1,0.1,0.3,0.1,0.4s-0.1,0.3-0.2,0.4c-1.8,1.2-3.6,2.4-5.4,3.6l-8.5,6
				C737.4,72.1,737.3,72.1,737.2,72.1z M735.8,47.9l8-6.3l-8-8.2V47.9z"/>
			<path d="M739.7,25.8l12.6,12.6c-7.1,5-12.7,9.2-16.9,12.8v10.2l8.2,3.6l6.5-4.1l1.1,1.2c-1.7,1.1-3.4,2.2-5.4,3.6l-8.5,6
				c-4.3-2.3-8.8-4-13.5-4.9c1.9-2,2.7-4.3,2.7-7.1V33.5C731,31.4,735.4,28.8,739.7,25.8 M735.3,48.9l9.3-7.3l-9.3-9.5V48.9
				 M739.7,24.8c-0.2,0-0.4,0.1-0.6,0.2c-4.6,3.2-8.8,5.7-13,7.6c-0.4,0.2-0.6,0.5-0.6,0.9v26.1c0,2.6-0.8,4.7-2.5,6.4
				c-0.3,0.3-0.3,0.6-0.2,1c0.1,0.3,0.4,0.6,0.8,0.7c4.5,0.8,8.9,2.4,13.2,4.8c0.1,0.1,0.3,0.1,0.5,0.1c0.2,0,0.4-0.1,0.6-0.2l8.5-6
				c1.8-1.2,3.5-2.4,5.3-3.6c0.2-0.2,0.4-0.4,0.4-0.7s-0.1-0.6-0.3-0.8l-1.1-1.2c-0.2-0.2-0.5-0.3-0.7-0.3c-0.2,0-0.4,0.1-0.5,0.2
				l-6,3.8l-7.1-3.1v-9.1c4.1-3.5,9.5-7.5,16.5-12.4c0.2-0.2,0.4-0.4,0.4-0.7c0-0.3-0.1-0.6-0.3-0.8l-12.6-12.6
				C740.2,24.9,739.9,24.8,739.7,24.8L739.7,24.8z M736.3,46.9V34.6l6.8,6.9L736.3,46.9L736.3,46.9z"/>
		</g>
	</g>
</g>
<g id="Layer_1">
	<g>
		<g>
			<path class="st0" d="M16.6,64.8c-0.2,0-0.5-0.1-0.7-0.2c-3-2.6-7.5-5-13.6-7.2c-0.3-0.1-0.5-0.4-0.6-0.7c-0.1-0.3,0-0.7,0.2-0.9
				c1.5-1.7,2.3-3.8,2.3-6.4v-39c0-1.7-1-3.5-2.9-5.6C1,4.4,0.9,3.9,1.1,3.6C1.3,3.2,1.6,3.1,2,3.1c0.1,0,0.2,0,0.2,0
				c2.4,0.6,4.6,1.6,6.5,3.1l0.3,0c3.1-2.8,6.6-4.5,10.4-5c0,0,0.1,0,0.1,0c0.4,0,0.8,0.2,0.9,0.6c0.2,0.4,0,0.9-0.3,1.2
				C17.2,5,15.8,7.7,15.8,11v40.6l6.1,3.8l1.8-1.3c0.2-0.1,0.4-0.2,0.6-0.2c0.3,0,0.5,0.1,0.7,0.3l1.2,1.3c0.2,0.2,0.3,0.5,0.3,0.7
				c0,0.3-0.1,0.5-0.3,0.7l-8.9,7.6C17,64.7,16.8,64.8,16.6,64.8z"/>
			<path class="st0" d="M19.6,2.1L19.6,2.1 M19.6,2.1c-3.2,2.3-4.8,5.3-4.8,8.9v41.2l7.1,4.5l2.3-1.8l1.2,1.3l-8.9,7.6
				c-3.1-2.7-7.7-5.2-13.9-7.4c1.7-1.9,2.5-4.2,2.5-7v-39c0-2-1.1-4-3.2-6.3c2.4,0.6,4.6,1.7,6.5,3.1l1.1-0.1
				C12.6,4.2,16,2.6,19.6,2.1 M19.6,0.1c0,0-0.1,0-0.1,0c-0.1,0-0.1,0-0.2,0C15.5,0.6,12,2.3,8.9,5C6.9,3.6,4.8,2.7,2.5,2.1
				C2.3,2.1,2.2,2.1,2,2.1c-0.7,0-1.4,0.4-1.7,1c-0.4,0.8-0.3,1.7,0.3,2.4c1.8,1.9,2.7,3.5,2.7,4.9v39c0,2.3-0.7,4.2-2,5.7
				c-0.4,0.5-0.6,1.2-0.4,1.8C0.9,57.5,1.4,58,2,58.2c6,2.2,10.3,4.5,13.3,7.1c0.4,0.3,0.8,0.5,1.3,0.5c0.5,0,0.9-0.2,1.3-0.5
				l8.9-7.6c0.4-0.4,0.7-0.9,0.7-1.4c0-0.5-0.2-1.1-0.5-1.5l-1.2-1.3c-0.4-0.4-0.9-0.6-1.5-0.6c-0.4,0-0.8,0.1-1.2,0.4l-1.2,0.9
				l-5-3.2V11c0-3,1.2-5.3,3.9-7.3c0.5-0.4,0.9-1,0.9-1.6C21.6,1,20.7,0.1,19.6,0.1C19.6,0.1,19.6,0.1,19.6,0.1L19.6,0.1z M19.6,4.1
				L19.6,4.1L19.6,4.1L19.6,4.1z"/>
		</g>
		<g>
			<path class="st0" d="M40.4,64.9c-0.3,0-0.5-0.1-0.7-0.3c-4.8-4.5-7.3-9-7.3-13.2c0-6.1,3.2-12.2,9.5-18l-4.4-11.6
				c-0.1-0.3-0.1-0.7,0.1-1c0.2-0.3,0.5-0.4,0.8-0.4c0,0,1.3,0.1,1.3,0.1c0.3,0,0.6,0,0.9,0c3,0,5.8-1.2,8.4-3.6
				c0.2-0.2,0.4-0.3,0.7-0.3c0.1,0,0.2,0,0.3,0.1l13.4,4.4l2.3-1.8c0.2-0.1,0.4-0.2,0.6-0.2c0.1,0,0.1,0,0.2,0
				c0.3,0.1,0.5,0.3,0.7,0.5l0.2,0.4c0.2,0.3,0.1,0.7-0.1,1c-1.5,2.3-2.5,4.6-3.2,7.1v25.3c0.3,1,0.9,1.7,1.7,2.1l1.4-0.7
				c0.1-0.1,0.3-0.1,0.4-0.1c0.2,0,0.5,0.1,0.6,0.2l1.1,0.9c0.2,0.2,0.4,0.5,0.4,0.8s-0.1,0.6-0.4,0.8l-8.4,7
				c-0.2,0.2-0.4,0.2-0.6,0.2c-0.2,0-0.3,0-0.5-0.1c-3.9-2.1-6.1-5.3-6.7-9.5l-11.8,9.5c-0.2,0.1-0.4,0.2-0.6,0.2H40.4z M44.6,36.4
				c-1.5,2.9-2.3,5.7-2.3,8.3c0,3.9,1.6,7.5,4.7,10.9l6.3-5.3v-9.5L44.6,36.4z M53.2,36.8v-8.5L41.7,24l3.2,8.7L53.2,36.8z"/>
			<path class="st0" d="M49.8,17.7l13.9,4.6l2.7-2.2l0.2,0.4c-1.6,2.4-2.6,4.9-3.3,7.5v25.6c0.5,1.7,1.5,2.6,2.7,3l1.8-0.9l1.1,0.9
				l-8.4,7c-4.2-2.2-6.3-5.8-6.3-10.6L40.9,63.9h-0.5c-4.6-4.3-6.9-8.5-6.9-12.5c0-6.1,3.2-11.9,9.7-17.7l-4.7-12.2l1.3,0.1
				c0.3,0,0.7,0,1,0C44,21.6,47.1,20.3,49.8,17.7 M54.2,38.4V27.6L40,22.3l4.1,11.1L54.2,38.4 M47,56.9l7.3-6.3V40.1L44.1,35
				c-1.9,3.3-2.8,6.6-2.8,9.6C41.3,49,43.2,53.1,47,56.9 M49.8,15.7c-0.5,0-1,0.2-1.4,0.5c-2.4,2.2-4.9,3.3-7.7,3.3
				c-0.3,0-0.6,0-0.9,0l-1.3-0.1c-0.1,0-0.1,0-0.2,0c-0.6,0-1.2,0.3-1.6,0.8c-0.4,0.6-0.5,1.3-0.3,1.9l4.2,11
				c-6.2,5.9-9.3,12-9.3,18.2c0,4.6,2.5,9.3,7.6,14c0.4,0.3,0.9,0.5,1.4,0.5h0.5c0.5,0,0.9-0.2,1.3-0.4l10.5-8.4
				c0.9,3.7,3.2,6.5,6.9,8.5c0.3,0.2,0.6,0.2,0.9,0.2c0.5,0,0.9-0.2,1.3-0.5l8.4-7c0.5-0.4,0.7-0.9,0.7-1.5c0-0.6-0.3-1.2-0.7-1.5
				l-1.1-0.9c-0.4-0.3-0.8-0.5-1.3-0.5c-0.3,0-0.6,0.1-0.9,0.2L66,54.5c-0.3-0.2-0.5-0.6-0.7-1.1v-25c0.6-2.3,1.6-4.5,3-6.7
				c0.4-0.6,0.4-1.3,0.1-2l-0.2-0.4c-0.3-0.5-0.8-0.9-1.4-1.1c-0.1,0-0.3,0-0.4,0c-0.4,0-0.9,0.1-1.2,0.4l-1.9,1.5l-12.9-4.3
				C50.2,15.8,50,15.7,49.8,15.7L49.8,15.7z M45.7,32l-2.3-6.3l8.8,3.3v6.2L45.7,32L45.7,32z M47.1,54.2c-2.6-3-3.8-6.1-3.8-9.6
				c0-2.2,0.6-4.5,1.7-6.9l7.3,3.6v8.4L47.1,54.2L47.1,54.2z"/>
		</g>
		<g>
			<path class="st0" d="M98,64.7c-0.2,0-0.3,0-0.4-0.1c-3.2-1.6-6.4-2.4-9.4-2.4c-3,0-6.1,0.7-9.5,2.2c-0.1,0.1-0.3,0.1-0.4,0.1
				c-0.2,0-0.4-0.1-0.6-0.2l-1.3-0.9c-0.2-0.2-0.4-0.4-0.4-0.6c0-0.3,0-0.5,0.2-0.8l11-15.7l-8.4-4.6c-0.3-0.2-0.5-0.5-0.5-0.9V25.7
				c0-0.4,0.2-0.8,0.6-0.9c4.2-1.9,8.2-4.5,11.7-7.9c0.2-0.2,0.4-0.3,0.7-0.3c0.1,0,0.3,0,0.4,0.1c5.3,2.6,9.3,3.9,12,3.9l2.5-0.3
				c0,0,0.1,0,0.1,0c1.4,0,2.7-1.2,2.7-2.4c0-0.2-0.1-0.8-1.9-3.1c0,0-0.1-0.1-0.1-0.1l-0.5-0.9c-0.1-0.1-0.1-0.3-0.1-0.5
				c0-1,0.4-2.6,3.3-2.6c1.5,0,3.9,0.6,3.9,4.6c0,1.7-1,3.9-3,6.7l-8.3,11.2l8.3,5.1c0.3,0.2,0.5,0.5,0.5,0.9v18
				c0,0.4-0.3,0.8-0.7,1c-2.1,0.7-4.2,1.6-6.1,2.8l-0.9,0.5c-1.1,0.7-2.8,1.7-4.9,3.1C98.4,64.6,98.2,64.7,98,64.7z M91.4,52.6
				c3.1,0,6.3,0.7,9.6,2.1l0.1-10.8l-4.9-2.5l-8.8,11.4C88.6,52.7,89.9,52.6,91.4,52.6z M93.4,38.2l7.5-10c-1,0.1-2,0.1-3.2,0.1
				c-2.7,0-5.6-0.6-8.8-1.7l-0.1,9.2L93.4,38.2z"/>
			<path class="st0" d="M109.7,11.7c2,0,2.9,1.2,2.9,3.6c0,1.5-1,3.5-2.8,6.1l-8.9,12l9.2,5.7v18c-2.2,0.7-4.3,1.7-6.4,2.9
				c-1.1,0.7-3,1.9-5.8,3.7c-3.3-1.7-6.6-2.5-9.9-2.5s-6.5,0.8-9.9,2.2L77,62.5l11.6-16.6l-9.4-5.2V25.7c4.4-2,8.4-4.7,12-8.1
				c5.4,2.6,9.5,4,12.5,4l2.5-0.3c1.9,0,3.7-1.6,3.7-3.4c0-0.7-0.7-1.9-2.2-3.7l-0.5-0.9C107.4,12.2,108.2,11.7,109.7,11.7
				 M93.7,39.4l9.5-12.5c-1.6,0.3-3.4,0.4-5.5,0.4c-2.9,0-6.2-0.7-9.8-2.2l-0.1,11.2L93.7,39.4 M85,54.2c1.8-0.4,3.9-0.6,6.4-0.6
				c3.4,0,6.9,0.9,10.6,2.6l0.1-13l-6.2-3.1L85,54.2 M109.7,9.7c-0.7,0-4.3,0.2-4.3,3.6c0,0.3,0.1,0.7,0.3,1l0.5,0.9
				c0.1,0.1,0.1,0.2,0.2,0.3c1.3,1.7,1.6,2.4,1.7,2.6c-0.1,0.7-0.9,1.3-1.7,1.3c-0.1,0-0.2,0-0.2,0l-2.4,0.3
				c-2.6,0-6.4-1.3-11.5-3.8c-0.3-0.1-0.6-0.2-0.9-0.2c-0.5,0-1,0.2-1.4,0.5c-3.5,3.3-7.4,5.9-11.5,7.7c-0.7,0.3-1.2,1-1.2,1.8v15.1
				c0,0.7,0.4,1.4,1,1.8l7.4,4.1L75.4,61.4c-0.3,0.4-0.4,1-0.3,1.5c0.1,0.5,0.4,1,0.8,1.3l1.3,0.9c0.3,0.2,0.7,0.4,1.1,0.4
				c0.3,0,0.5-0.1,0.8-0.2c3.3-1.4,6.2-2.1,9.1-2.1c2.9,0,5.9,0.8,9,2.3c0.3,0.1,0.6,0.2,0.9,0.2c0.4,0,0.8-0.1,1.1-0.3
				c2.1-1.4,3.6-2.4,4.8-3.1c0.4-0.2,0.7-0.4,0.9-0.6c1.8-1.1,3.8-2.1,5.9-2.7c0.8-0.3,1.4-1,1.4-1.9v-18c0-0.7-0.4-1.3-0.9-1.7
				l-7.3-4.5l7.6-10.3c2.2-3,3.2-5.3,3.2-7.3C114.7,11.8,112.8,9.7,109.7,9.7L109.7,9.7z M89.9,35.2l0.1-7.2
				c2.8,0.9,5.3,1.3,7.8,1.3c0.4,0,0.8,0,1.2,0l-5.7,7.6L89.9,35.2L89.9,35.2z M89.5,51.7l6.9-9l3.6,1.8l-0.1,8.8
				c-2.9-1.1-5.8-1.6-8.6-1.6C90.7,51.6,90.1,51.6,89.5,51.7L89.5,51.7z"/>
		</g>
		<g>
			<path class="st0" d="M133.7,64.8c-0.2,0-0.4-0.1-0.6-0.2c-4.6-3.7-8.5-6.1-12-7.3c-0.3-0.1-0.6-0.4-0.6-0.7
				c-0.1-0.3,0-0.7,0.2-0.9c1.6-1.7,2.4-3.8,2.4-6.4V25.1h-2.4c-0.3,0-0.5-0.1-0.7-0.3c-0.2-0.2-0.3-0.5-0.3-0.8l0.1-1.4
				c0-0.2,0.1-0.4,0.2-0.6l12.7-15.9c0.2-0.2,0.5-0.4,0.8-0.4c0.1,0,0.2,0,0.3,0.1c0.4,0.1,0.7,0.5,0.7,0.9l0.1,11.4h9
				c0.6,0,1,0.4,1,1v5c0,0.6-0.4,1-1,1h-9v27l4.2,3.5l2.1-1.7c0.2-0.1,0.4-0.2,0.6-0.2c0,0,0.1,0,0.1,0c0.3,0,0.5,0.2,0.7,0.4
				l1.1,1.4c0.3,0.4,0.3,1-0.1,1.4l-8.8,7.6C134.2,64.7,133.9,64.8,133.7,64.8z"/>
			<path class="st0" d="M133.4,6.8l0.1,12.4h10v5h-10v28.5l5.2,4.3l2.7-2.2l1.1,1.4l-8.8,7.6c-4.5-3.6-8.6-6.2-12.3-7.4
				c1.8-1.9,2.6-4.2,2.6-7V24.1h-3.4l0.1-1.4L133.4,6.8 M133.4,4.8c-0.6,0-1.2,0.3-1.6,0.8l-12.7,15.9c-0.3,0.3-0.4,0.7-0.4,1.1
				l-0.1,1.4c0,0.6,0.2,1.1,0.5,1.5c0.4,0.4,0.9,0.6,1.5,0.6h1.4v23.2c0,2.3-0.7,4.2-2.1,5.7c-0.5,0.5-0.7,1.2-0.5,1.9
				c0.2,0.7,0.7,1.2,1.3,1.4c3.4,1.2,7.2,3.5,11.7,7.1c0.4,0.3,0.8,0.4,1.3,0.4c0.5,0,0.9-0.2,1.3-0.5l8.8-7.6
				c0.8-0.7,0.9-1.9,0.3-2.7l-1.1-1.4c-0.4-0.5-1-0.8-1.6-0.8c-0.4,0-0.9,0.1-1.2,0.4l-1.5,1.2l-3.2-2.7V26.2h8c1.1,0,2-0.9,2-2v-5
				c0-1.1-0.9-2-2-2h-8l-0.1-10.4c0-0.8-0.5-1.6-1.3-1.9C133.8,4.8,133.6,4.8,133.4,4.8L133.4,4.8z"/>
		</g>
		<g>
			<path class="st0" d="M227.3,65.1c-0.1,0-0.3,0-0.4-0.1c-4.9-2.4-8.6-3.6-11-3.6c-2.7,0-5.5,1.1-8.4,3.5c-0.2,0.1-0.4,0.2-0.6,0.2
				c-0.2,0-0.4-0.1-0.6-0.2c-4.4-3.2-9.9-5.7-16.8-7.6c-0.4-0.1-0.6-0.4-0.7-0.7c-0.1-0.4,0-0.7,0.3-1c1.6-1.4,2.4-3.7,2.4-6.8V26.4
				c-2.9-3.6-4.3-6.7-4.3-9.5c0-4.6,3.4-8.7,10.2-12.3c0.1-0.1,0.3-0.1,0.5-0.1c0.3,0,0.7,0.2,0.8,0.5l0.5,0.8
				c0.3,0.4,0.2,1-0.2,1.3c-2.4,2.1-3.6,4-3.6,5.7c0,0.1,0.2,1.1,3.3,5.5c2,2.6,3.2,5.2,3.6,7.7l11.8-8.8c0.2-0.1,0.4-0.2,0.6-0.2
				c0.2,0,0.4,0.1,0.6,0.2c3.6,2.8,5.7,5.8,6.5,9.1l11.9-9.2c0.2-0.1,0.4-0.2,0.6-0.2c0.2,0,0.5,0.1,0.7,0.2c4.7,4.1,7,7.8,7,11.3
				v28.2c0,0.5-0.3,0.8-0.7,1c-4.8,1.3-9.3,3.8-13.4,7.3C227.7,65,227.5,65.1,227.3,65.1z M222.2,52.7c2.3,0.8,4.3,1.5,6.4,2
				c0.7,0.2,1.7,0.4,3.1,0.8V30.5c0-0.9-0.6-1.9-1.6-2.9c0,0-0.1-0.1-0.1-0.1c-0.3-0.3-0.7-0.7-1.2-1.3l-6.7,5V52.7z M202.4,52.1
				c2.3,1,5.2,2.1,8.8,3.4v-25c0-0.6-0.2-1.2-0.5-1.7c0-0.1-0.1-0.1-0.1-0.2c-0.2-0.3-1-1.2-2-2.3l-6.1,4.9V52.1z"/>
			<path class="st0" d="M197.8,5.5l0.5,0.8c-2.6,2.3-3.9,4.5-3.9,6.5c0,0.7,1.2,2.7,3.5,6.1c2.4,3.2,3.6,6.3,3.6,9l13.2-9.9
				c3.9,3,6.1,6.4,6.4,10.2l13.3-10.3c4.4,3.8,6.6,7.3,6.6,10.6v28.2c-5,1.4-9.6,3.9-13.8,7.5c-5-2.4-8.8-3.7-11.4-3.7
				c-3,0-6,1.3-9,3.7c-4.5-3.3-10.2-5.9-17.1-7.7c1.9-1.7,2.7-4.2,2.7-7.5V26.1c-2.8-3.4-4.3-6.5-4.3-9.1
				C188.2,12.8,191.4,8.9,197.8,5.5 M232.7,56.9V30.5c0-1.1-0.6-2.3-1.9-3.6c-0.4-0.5-1-1.1-1.9-2l-7.8,5.8v22.8
				c2.2,0.8,4.5,1.6,7.1,2.2C229.2,55.9,230.7,56.3,232.7,56.9 M212.1,56.9V30.5c0-0.8-0.2-1.6-0.7-2.2c-0.1-0.3-1.1-1.4-2.8-3.3
				l-7.2,5.8v22.1C204.1,54,207.7,55.4,212.1,56.9 M197.8,3.5c-0.3,0-0.6,0.1-0.9,0.2c-7.1,3.8-10.7,8.2-10.7,13.2
				c0,3,1.4,6.2,4.3,9.8v22.1c0,2.8-0.7,4.8-2.1,6c-0.5,0.5-0.8,1.2-0.6,2c0.2,0.7,0.7,1.3,1.4,1.5c6.8,1.8,12.2,4.2,16.4,7.4
				c0.4,0.3,0.8,0.4,1.2,0.4c0.4,0,0.9-0.1,1.3-0.4c2.7-2.2,5.3-3.3,7.7-3.3c2.3,0,5.8,1.2,10.6,3.5c0.3,0.1,0.6,0.2,0.9,0.2
				c0.5,0,0.9-0.2,1.3-0.5c4-3.5,8.4-5.8,13-7.1c0.9-0.2,1.5-1,1.5-1.9V28.4c0-3.8-2.4-7.8-7.3-12.1c-0.4-0.3-0.8-0.5-1.3-0.5
				c-0.4,0-0.9,0.1-1.2,0.4l-10.8,8.3c-1-3-3.2-5.7-6.4-8.2c-0.4-0.3-0.8-0.4-1.2-0.4c-0.4,0-0.8,0.1-1.2,0.4L203,24.2
				c-0.6-2.1-1.8-4.3-3.5-6.6c-2.5-3.5-3-4.7-3.1-5c0.1-1.3,1.2-3,3.2-4.8c0.7-0.6,0.9-1.7,0.4-2.6l-0.5-0.8
				C199.2,3.9,198.5,3.5,197.8,3.5L197.8,3.5z M223.2,31.7l5.6-4.1c0.2,0.2,0.4,0.4,0.5,0.6c0,0.1,0.1,0.1,0.1,0.2
				c1.2,1.2,1.3,2,1.3,2.2v23.8c-0.8-0.2-1.4-0.4-1.9-0.5c-1.8-0.5-3.6-1-5.6-1.7V31.7L223.2,31.7z M203.4,31.6l5-4
				c0.6,0.7,1.1,1.2,1.3,1.5c0,0.1,0.1,0.2,0.2,0.3c0.2,0.3,0.3,0.6,0.3,1.1v23.6c-2.6-0.9-4.9-1.8-6.8-2.6V31.6L203.4,31.6z"/>
		</g>
		<g>
			<path class="st0" d="M263.9,64.7c-0.2,0-0.3,0-0.5-0.1c-4.3-2.3-8.7-3.9-13.2-4.8c-0.4-0.1-0.7-0.3-0.8-0.7s0-0.7,0.2-1
				c1.7-1.7,2.5-3.9,2.5-6.4V25.6c0-0.4,0.2-0.7,0.6-0.9c4.2-1.9,8.5-4.4,13-7.6c0.2-0.1,0.4-0.2,0.6-0.2c0.3,0,0.5,0.1,0.7,0.3
				l12.6,12.6c0.2,0.2,0.3,0.5,0.3,0.8c0,0.3-0.2,0.6-0.4,0.7c-7,4.9-12.4,9-16.5,12.4v9.1l7.1,3.1l6-3.8c0.2-0.1,0.4-0.2,0.5-0.2
				c0.3,0,0.5,0.1,0.7,0.3l1.1,1.2c0.2,0.2,0.3,0.5,0.3,0.8c0,0.3-0.2,0.6-0.4,0.7c-1.8,1.2-3.6,2.4-5.3,3.6l-8.5,6
				C264.3,64.6,264.1,64.7,263.9,64.7z M263,38.9l6.8-5.4l-6.8-6.9V38.9z"/>
			<path class="st0" d="M266.4,17.8L279,30.5c-7.1,5-12.7,9.2-16.9,12.8v10.2l8.2,3.6l6.5-4.1l1.1,1.2c-1.7,1.1-3.4,2.2-5.4,3.6
				l-8.5,6c-4.3-2.3-8.8-4-13.5-4.9c1.9-2,2.7-4.3,2.7-7.1V25.6C257.7,23.5,262.1,20.9,266.4,17.8 M262,41l9.3-7.3l-9.3-9.5V41
				 M266.4,15.8c-0.4,0-0.8,0.1-1.2,0.4c-4.5,3.2-8.7,5.6-12.9,7.5c-0.7,0.3-1.2,1-1.2,1.8v26.1c0,2.4-0.7,4.2-2.2,5.8
				c-0.5,0.5-0.7,1.3-0.5,2c0.2,0.7,0.8,1.2,1.5,1.4c4.4,0.8,8.7,2.4,12.9,4.7c0.3,0.2,0.6,0.2,1,0.2c0.4,0,0.8-0.1,1.1-0.4l8.5-6
				c1.7-1.2,3.5-2.4,5.3-3.6c0.5-0.3,0.8-0.8,0.9-1.4c0.1-0.6-0.1-1.2-0.5-1.6l-1.1-1.2c-0.4-0.4-0.9-0.6-1.5-0.6
				c-0.4,0-0.7,0.1-1.1,0.3l-5.6,3.5l-6-2.7v-7.9c4-3.4,9.3-7.3,16.1-12.1c0.5-0.3,0.8-0.9,0.8-1.5c0.1-0.6-0.2-1.2-0.6-1.6
				l-12.6-12.6C267.4,16,266.9,15.8,266.4,15.8L266.4,15.8z M264,36.9v-7.8l4.3,4.4L264,36.9L264,36.9z"/>
		</g>
		<g>
			<path class="st0" d="M300.7,64.7c-0.2,0-0.3,0-0.5-0.1c-4.3-2.3-8.7-3.9-13.2-4.8c-0.4-0.1-0.7-0.3-0.8-0.7s0-0.7,0.2-1
				c1.7-1.7,2.5-3.9,2.5-6.4V25.6c0-0.4,0.2-0.7,0.6-0.9c4.2-1.9,8.5-4.4,13-7.6c0.2-0.1,0.4-0.2,0.6-0.2c0.3,0,0.5,0.1,0.7,0.3
				l12.6,12.6c0.2,0.2,0.3,0.5,0.3,0.8c0,0.3-0.2,0.6-0.4,0.7c-7,4.9-12.4,9-16.5,12.4v9.1l7.1,3.1l6-3.8c0.2-0.1,0.4-0.2,0.5-0.2
				c0.3,0,0.5,0.1,0.7,0.3l1.1,1.2c0.2,0.2,0.3,0.5,0.3,0.8c0,0.3-0.2,0.6-0.4,0.7c-1.8,1.2-3.6,2.4-5.3,3.6l-8.5,6
				C301.1,64.6,300.9,64.7,300.7,64.7z M299.7,38.9l6.8-5.4l-6.8-6.9V38.9z"/>
			<path class="st0" d="M303.1,17.8l12.6,12.6c-7.1,5-12.7,9.2-16.9,12.8v10.2L307,57l6.5-4.1l1.1,1.2c-1.7,1.1-3.4,2.2-5.4,3.6
				l-8.5,6c-4.3-2.3-8.8-4-13.5-4.9c1.9-2,2.7-4.3,2.7-7.1V25.6C294.4,23.5,298.8,20.9,303.1,17.8 M298.7,41l9.3-7.3l-9.3-9.5V41
				 M303.1,15.8c-0.4,0-0.8,0.1-1.2,0.4c-4.5,3.2-8.7,5.6-12.9,7.5c-0.7,0.3-1.2,1-1.2,1.8v26.1c0,2.4-0.7,4.2-2.2,5.8
				c-0.5,0.5-0.7,1.3-0.5,2c0.2,0.7,0.8,1.2,1.5,1.4c4.4,0.8,8.7,2.4,12.9,4.7c0.3,0.2,0.6,0.2,1,0.2c0.4,0,0.8-0.1,1.1-0.4l8.5-6
				c1.7-1.2,3.5-2.4,5.3-3.6c0.5-0.3,0.8-0.8,0.9-1.4c0.1-0.6-0.1-1.2-0.5-1.6l-1.1-1.2c-0.4-0.4-0.9-0.6-1.5-0.6
				c-0.4,0-0.7,0.1-1.1,0.3l-5.6,3.5l-6-2.7v-7.9c4-3.4,9.3-7.3,16.1-12.1c0.5-0.3,0.8-0.9,0.8-1.5c0.1-0.6-0.2-1.2-0.6-1.6
				l-12.6-12.6C304.2,16,303.7,15.8,303.1,15.8L303.1,15.8z M300.7,36.9v-7.8l4.3,4.4L300.7,36.9L300.7,36.9z"/>
		</g>
		<g>
			<path class="st0" d="M340.6,65c-0.2,0-0.3,0-0.5-0.1c-5.6-3.1-10.2-5.2-14-6.4c-0.3-0.1-0.6-0.4-0.7-0.7c-0.1-0.3,0-0.7,0.3-1
				c1.4-1.4,2.2-3.5,2.2-6.3V25.1h-4c-0.6,0-1-0.4-1-1v-4.9c0-0.6,0.4-1,1-1h4v-7.7c0-1.9-1.1-3.9-3.1-5.9c-0.3-0.3-0.4-0.8-0.2-1.2
				c0.2-0.3,0.5-0.5,0.9-0.5c0.1,0,0.2,0,0.2,0c2.4,0.6,4.6,1.6,6.4,3l0.6,0c3.1-3.2,6.3-4.8,9.9-4.8c0.4,0,0.8,0.3,1,0.7
				c0.1,0.4-0.1,0.9-0.4,1.1c-2.8,1.7-4.1,4.3-4.1,7.9v16.1l11.1-9.7c0.2-0.2,0.4-0.2,0.7-0.2c0.3,0,0.5,0.1,0.7,0.3l8.9,9.4
				c0.2,0.2,0.3,0.5,0.3,0.8c0,0.3-0.2,0.5-0.4,0.7c-1.9,1.5-4.8,4.1-8.1,7.4c2.3,1.9,3.9,4.1,4.9,6.8c0.5,1.1,1.1,3.6,1.9,7.3
				c0.5,2.3,1.1,4.2,1.9,5.6l1.1-0.6c0.1-0.1,0.3-0.1,0.5-0.1c0.3,0,0.5,0.1,0.7,0.3l1.2,1.3c0.2,0.2,0.3,0.5,0.3,0.8
				c0,0.3-0.2,0.5-0.4,0.7l-8.9,6.9c-0.2,0.1-0.4,0.2-0.6,0.2c-0.2,0-0.4-0.1-0.6-0.2c-2.3-1.6-3.9-4.4-4.7-8.3l-8,8.5
				C341.1,64.9,340.9,65,340.6,65z M343.6,56l4.8-5c-0.5-3.1-2.1-5.8-4.7-8.2l-4.7,3.8v7L343.6,56z M338.9,41.3l11.3-9.7l-4.7-5
				l-6.7,6.1V41.3z"/>
			<path class="st0" d="M342.6,2L342.6,2 M342.6,2c-3,1.9-4.6,4.8-4.6,8.8v18.3l12.7-11.1l8.9,9.4c-1.9,1.5-4.9,4.2-9,8.3
				c2.5,1.9,4.4,4.2,5.5,7c0.5,1.1,1.1,3.5,1.9,7.1c0.6,2.9,1.5,5.2,2.5,6.6l1.9-1l1.2,1.3l-8.9,6.9c-2.4-1.8-4-5-4.7-9.6l-9.4,9.9
				c-5.6-3.1-10.3-5.3-14.2-6.5c1.7-1.7,2.4-4,2.4-7V24.1h-5v-4.9h5v-8.7c0-2.2-1.2-4.4-3.4-6.6c2.3,0.6,4.5,1.6,6.4,3l1.4-0.1
				C336.1,3.6,339.2,2,342.6,2 M337.9,43.5l13.8-11.8l-6.1-6.5l-7.7,7V43.5 M343.8,57.2l5.7-5.9c-0.5-3.8-2.4-7-5.8-9.9l-5.8,4.6
				v8.1L343.8,57.2 M342.6,0L342.6,0c-3.7,0-7.2,1.6-10.3,4.8c-1.8-1.3-4-2.3-6.4-2.9c-0.2,0-0.3-0.1-0.5-0.1c-0.7,0-1.4,0.4-1.7,1
				c-0.4,0.8-0.3,1.8,0.3,2.4c1.9,1.9,2.8,3.7,2.8,5.2v6.7h-3c-1.1,0-2,0.9-2,2v4.9c0,1.1,0.9,2,2,2h3v24.4c0,2.5-0.6,4.4-1.9,5.6
				c-0.5,0.5-0.7,1.2-0.5,1.9c0.2,0.7,0.7,1.2,1.4,1.4c3.7,1.1,8.2,3.2,13.8,6.3c0.3,0.2,0.6,0.3,1,0.3c0.5,0,1.1-0.2,1.5-0.6
				l6.8-7.2c1,3.2,2.5,5.6,4.7,7.1c0.3,0.3,0.8,0.4,1.2,0.4c0.4,0,0.9-0.1,1.2-0.4l8.9-6.9c0.4-0.3,0.7-0.9,0.8-1.4
				c0-0.6-0.1-1.1-0.5-1.5l-1.2-1.3c-0.4-0.4-0.9-0.6-1.5-0.6c-0.3,0-0.6,0.1-0.9,0.2l-0.2,0.1c-0.5-1-0.9-2.4-1.3-4.4
				c-1-4.4-1.5-6.4-2-7.5c-0.9-2.4-2.4-4.6-4.3-6.4c3.9-3.9,6.2-5.8,7.3-6.6c0.4-0.3,0.7-0.9,0.8-1.4c0-0.6-0.2-1.1-0.5-1.5
				l-8.9-9.4c-0.4-0.4-0.9-0.6-1.5-0.6c-0.5,0-0.9,0.2-1.3,0.5l-9.4,8.2V10.8c0-3.3,1.2-5.6,3.6-7.1c0.6-0.3,1-1,1-1.7
				C344.6,0.9,343.7,0,342.6,0L342.6,0z M342.6,4L342.6,4L342.6,4L342.6,4z M339.9,33.1l5.6-5.1l3.3,3.5l-8.9,7.6V33.1L339.9,33.1z
				 M339.9,47.1l3.7-2.9c2,2,3.2,4.2,3.7,6.6l-3.9,4.1l-3.5-1.8V47.1L339.9,47.1z"/>
		</g>
		<g>
			<path class="st0" d="M461.1,65.1c-0.2,0-0.3,0-0.5-0.1c-2.7-1.5-4.4-3.2-5.4-5.2c-0.9-1.8-1.3-4.2-1.3-7.4V29.4l-3.3-3l-5.9,4.3
				v23.4l2.3,3.1c0.3,0.4,0.3,1-0.1,1.4l-6.9,6.3c-0.2,0.2-0.4,0.3-0.7,0.3c-0.2,0-0.5-0.1-0.6-0.2l-7.5-6.3
				c-0.2-0.2-0.3-0.4-0.4-0.7c0-0.3,0.1-0.5,0.3-0.7l2.7-2.7V29.7c0-1-1-2.2-2.9-3.6l-6.7,5v23l2.4,3.1c0.3,0.4,0.3,1-0.1,1.4
				l-7.1,6.3c-0.2,0.2-0.4,0.2-0.7,0.2c-0.2,0-0.5-0.1-0.7-0.2l-7.2-6.3c-0.2-0.2-0.3-0.4-0.3-0.7c0-0.3,0.1-0.5,0.2-0.7l2.4-2.7
				V29.7c0-1.2-0.5-2.3-1.5-3.2l-0.9,0.6c-0.2,0.1-0.4,0.2-0.6,0.2c-0.3,0-0.6-0.1-0.8-0.4l-0.9-1.1c-0.3-0.4-0.3-1,0.1-1.4l7.8-7.3
				c0.2-0.2,0.4-0.3,0.7-0.3c0.2,0,0.3,0,0.5,0.1c4,2.1,6.2,5.3,6.8,9.4L437,17c0.2-0.1,0.4-0.2,0.6-0.2c0.2,0,0.5,0.1,0.7,0.3
				c2.9,2.7,5,5.8,6.1,9.3c2.9-2.2,6.7-5.2,11.5-9.2c0.2-0.2,0.4-0.2,0.6-0.2c0.2,0,0.5,0.1,0.7,0.3l6,5.7l3.3-2.8
				c0.2-0.2,0.4-0.2,0.6-0.2c0.3,0,0.5,0.1,0.7,0.3l1.1,1.1c0.3,0.3,0.4,0.9,0.1,1.3l-0.6,0.9c-0.5,0.7-1,1.4-1.5,2.1l-0.5,0.7
				c-0.6,0.8-1.1,1.6-1.5,2.2v25.2c0.4,0.8,1,1.5,2,2.2l1.3-0.8c0.2-0.1,0.3-0.2,0.5-0.2c0.2,0,0.5,0.1,0.6,0.2l1.2,1
				c0.2,0.2,0.4,0.5,0.4,0.8s-0.1,0.6-0.4,0.8l-8.8,7.2C461.6,65,461.4,65.1,461.1,65.1z"/>
			<path class="st0" d="M437.6,17.8c3.2,2.9,5.3,6.4,6.3,10.3c2.9-2.2,7.1-5.5,12.7-10.1l6.6,6.3l4-3.3l1.1,1.1
				c-0.8,1.1-1.5,2.1-2.2,2.9c-0.9,1.3-1.7,2.3-2.2,3.2v25.7c0.6,1.3,1.6,2.2,2.9,3.1l1.9-1.2l1.2,1l-8.8,7.2
				c-2.4-1.4-4.1-2.9-5-4.8c-0.8-1.7-1.2-3.9-1.2-6.9V29l-4.2-3.8l-6.9,5.1v24.2l2.5,3.3l-6.9,6.3l-7.5-6.3l2.9-3V29.7
				c0-1.5-1.3-3-3.9-4.8l-7.7,5.8v23.9l2.6,3.3l-7.1,6.3l-7.2-6.3l2.6-3V29.7c0-1.7-0.8-3.2-2.4-4.5l-1.6,1.1l-0.9-1.1l7.8-7.3
				c4.2,2.2,6.4,5.7,6.4,10.4L437.6,17.8 M417,15.8c-0.5,0-1,0.2-1.4,0.5l-7.8,7.3c-0.8,0.7-0.8,1.9-0.2,2.7l0.9,1.1
				c0.4,0.5,1,0.7,1.5,0.7c0.4,0,0.8-0.1,1.1-0.4l0.2-0.1c0.4,0.6,0.7,1.2,0.7,1.9v24.4l-2.1,2.5c-0.3,0.4-0.5,0.9-0.5,1.5
				c0,0.5,0.3,1,0.7,1.4l7.2,6.3c0.4,0.3,0.8,0.5,1.3,0.5c0.5,0,0.9-0.2,1.3-0.5l7.1-6.3c0.8-0.7,0.9-1.9,0.2-2.7l-2.2-2.8V31.7
				l5.7-4.3c1.8,1.4,1.9,2.2,1.9,2.3V54l-2.4,2.4c-0.4,0.4-0.6,0.9-0.6,1.5s0.3,1.1,0.7,1.4l7.5,6.3c0.4,0.3,0.8,0.5,1.3,0.5
				c0.5,0,1-0.2,1.3-0.5l6.9-6.3c0.8-0.7,0.9-1.9,0.2-2.7l-2.1-2.8V31.3l4.8-3.5l2.3,2.1v22.5c0,3.3,0.4,5.8,1.4,7.8
				c1.1,2.2,3,4.1,5.8,5.7c0.3,0.2,0.6,0.3,1,0.3c0.5,0,0.9-0.2,1.3-0.5l8.8-7.2c0.5-0.4,0.7-0.9,0.7-1.5c0-0.6-0.3-1.2-0.7-1.5
				l-1.2-1c-0.4-0.3-0.8-0.5-1.3-0.5c-0.4,0-0.7,0.1-1.1,0.3l-0.7,0.4c-0.4-0.4-0.8-0.8-1-1.2V28.7c0.3-0.5,0.8-1.2,1.3-1.9l0.5-0.7
				c0.5-0.7,1-1.4,1.5-2.1l0.6-0.9c0.6-0.8,0.5-1.9-0.2-2.6l-1.1-1.1c-0.4-0.4-0.9-0.6-1.4-0.6c-0.5,0-0.9,0.2-1.3,0.5l-2.6,2.2
				l-5.4-5c-0.4-0.4-0.9-0.5-1.4-0.5c-0.5,0-0.9,0.2-1.3,0.5c-4.2,3.4-7.7,6.2-10.4,8.3c-1.3-3.2-3.3-6-6-8.5
				c-0.4-0.3-0.9-0.5-1.3-0.5c-0.4,0-0.8,0.1-1.2,0.4L425,24.6c-0.9-3.6-3.2-6.5-7-8.5C417.7,15.9,417.4,15.8,417,15.8L417,15.8z"/>
		</g>
		<g>
			<path class="st0" d="M485.9,64.9c-0.3,0-0.5-0.1-0.7-0.3c-4.8-4.5-7.3-9-7.3-13.2c0-6.1,3.2-12.2,9.5-18L483,21.8
				c-0.1-0.3-0.1-0.7,0.1-1c0.2-0.3,0.5-0.4,0.8-0.4c0,0,1.3,0.1,1.3,0.1c0.3,0,0.6,0,0.9,0c3,0,5.8-1.2,8.4-3.6
				c0.2-0.2,0.4-0.3,0.7-0.3c0.1,0,0.2,0,0.3,0.1l13.4,4.4l2.3-1.8c0.2-0.1,0.4-0.2,0.6-0.2c0.1,0,0.1,0,0.2,0
				c0.3,0.1,0.5,0.3,0.7,0.5l0.2,0.4c0.2,0.3,0.1,0.7-0.1,1c-1.5,2.3-2.5,4.6-3.2,7.1v25.3c0.3,1,0.9,1.7,1.7,2.1l1.4-0.7
				c0.1-0.1,0.3-0.1,0.4-0.1c0.2,0,0.5,0.1,0.6,0.2L515,56c0.2,0.2,0.4,0.5,0.4,0.8s-0.1,0.6-0.4,0.8l-8.4,7
				c-0.2,0.2-0.4,0.2-0.6,0.2c-0.2,0-0.3,0-0.5-0.1c-3.9-2.1-6.1-5.3-6.7-9.5L487,64.7c-0.2,0.1-0.4,0.2-0.6,0.2H485.9z M490,36.4
				c-1.5,2.9-2.3,5.7-2.3,8.3c0,3.9,1.6,7.5,4.7,10.9l6.3-5.3v-9.5L490,36.4z M498.7,36.8v-8.5L487.2,24l3.2,8.7L498.7,36.8z"/>
			<path class="st0" d="M495.3,17.7l13.9,4.6l2.7-2.2l0.2,0.4c-1.6,2.4-2.6,4.9-3.3,7.5v25.6c0.5,1.7,1.5,2.6,2.7,3l1.8-0.9l1.1,0.9
				l-8.4,7c-4.2-2.2-6.3-5.8-6.3-10.6l-13.3,10.7h-0.5c-4.6-4.3-6.9-8.5-6.9-12.5c0-6.1,3.2-11.9,9.7-17.7l-4.7-12.2l1.3,0.1
				c0.3,0,0.7,0,1,0C489.4,21.6,492.5,20.3,495.3,17.7 M499.7,38.4V27.6l-14.2-5.3l4.1,11.1L499.7,38.4 M492.4,56.9l7.3-6.3V40.1
				L489.6,35c-1.9,3.3-2.8,6.6-2.8,9.6C486.8,49,488.6,53.1,492.4,56.9 M495.3,15.7c-0.5,0-1,0.2-1.4,0.5c-2.4,2.2-4.9,3.3-7.7,3.3
				c-0.3,0-0.6,0-0.9,0l-1.3-0.1c-0.1,0-0.1,0-0.2,0c-0.6,0-1.2,0.3-1.6,0.8c-0.4,0.6-0.5,1.3-0.3,1.9l4.2,11
				c-6.2,5.9-9.3,12-9.3,18.2c0,4.6,2.5,9.3,7.6,14c0.4,0.3,0.9,0.5,1.4,0.5h0.5c0.5,0,0.9-0.2,1.3-0.4l10.5-8.4
				c0.9,3.7,3.2,6.5,6.9,8.5c0.3,0.2,0.6,0.2,0.9,0.2c0.5,0,0.9-0.2,1.3-0.5l8.4-7c0.5-0.4,0.7-0.9,0.7-1.5c0-0.6-0.3-1.2-0.7-1.5
				l-1.1-0.9c-0.4-0.3-0.8-0.5-1.3-0.5c-0.3,0-0.6,0.1-0.9,0.2l-0.9,0.4c-0.3-0.2-0.5-0.6-0.7-1.1v-25c0.6-2.3,1.6-4.5,3-6.7
				c0.4-0.6,0.4-1.3,0.1-2l-0.2-0.4c-0.3-0.5-0.8-0.9-1.4-1.1c-0.1,0-0.3,0-0.4,0c-0.4,0-0.9,0.1-1.2,0.4l-1.9,1.5l-12.9-4.3
				C495.7,15.8,495.5,15.7,495.3,15.7L495.3,15.7z M491.2,32l-2.3-6.3l8.8,3.3v6.2L491.2,32L491.2,32z M492.6,54.2
				c-2.6-3-3.8-6.1-3.8-9.6c0-2.2,0.6-4.5,1.7-6.9l7.3,3.6v8.4L492.6,54.2L492.6,54.2z"/>
		</g>
		<g>
			<path class="st0" d="M524.8,77.4c-0.2,0-0.5-0.1-0.7-0.2l-2.1-1.8c-0.2-0.2-0.3-0.4-0.3-0.7c0-0.3,0.1-0.5,0.2-0.7l9.8-11.2
				l-8.2-5.8c-0.3-0.2-0.4-0.5-0.4-0.8V24.1c0-0.5,0.3-0.9,0.8-1c2-0.4,4.3-1.2,7.5-2.7c0.2-0.1,0.8-0.4,1.7-0.8
				c1.2-0.6,3.1-1.5,5.5-2.7c0.1-0.1,0.3-0.1,0.4-0.1c0.1,0,0.3,0,0.4,0.1l14.5,6.6l6.9-4.3c0.2-0.1,0.3-0.2,0.5-0.2
				c0.2,0,0.3,0,0.5,0.1c0.3,0.2,0.5,0.5,0.5,0.9v9.3c0,0.3-0.1,0.6-0.3,0.8c-0.2,0.2-0.4,0.2-0.7,0.2c-0.1,0-0.1,0-0.2,0l-6.5-1
				v22.3c0,2,1.1,4.6,3.3,8.1c3.3,4.7,3.7,6.4,3.7,7.3v0.4c0,0,0,0.1,0,0.1c-0.3,2.6-2.7,5-7.3,7.2c0,0-1.8,0.9-5.3,2.5
				c-0.1,0.1-0.3,0.1-0.4,0.1c-0.1,0-0.2,0-0.3,0c-4.9-1.4-8.9-2-12.2-2c-3.5,0-7.2,0.7-11.2,2C525,77.4,524.9,77.4,524.8,77.4z
				 M539.2,66.9c4.3,0,9,0.7,13.9,2.1c-2.6-2.5-4.4-4.5-5.5-6.1c-1.7-2.4-2.8-4.9-3.4-7.7l-10.7,11.9C535,67,536.9,66.9,539.2,66.9z
				 M538.9,55.1l5.2-5.3V28.7l-10.3-2.9v25.9L538.9,55.1z"/>
			<path class="st0" d="M539.2,17.8l15,6.8l7.3-4.6v9.3l-7.6-1.2v23.5c0,2.2,1.2,5.1,3.4,8.6c2.3,3.4,3.5,5.7,3.5,6.7v0.4
				c-0.3,2.2-2.5,4.4-6.7,6.5c0,0-1.8,0.9-5.3,2.5c-5-1.4-9.1-2.1-12.4-2.1c-3.6,0-7.4,0.7-11.5,2.1l-2.1-1.8l10.6-12l-9.1-6.5V24.1
				c2.3-0.5,4.9-1.5,7.7-2.7C532.5,21.1,535,19.9,539.2,17.8 M539.1,56.4l6.1-6.2V27.9l-12.3-3.5v27.8L539.1,56.4 M530.8,68.5
				c2-0.4,4.7-0.6,8.3-0.6c4.8,0,10,0.9,15.5,2.6l0.2-1.2c-3.2-3-5.4-5.4-6.6-7c-2-2.8-3.1-5.9-3.5-9.3L530.8,68.5 M539.2,15.8
				c-0.3,0-0.6,0.1-0.9,0.2c-2.4,1.2-4.3,2.1-5.5,2.7c-0.9,0.4-1.4,0.7-1.7,0.8c-3.1,1.4-5.3,2.2-7.3,2.6c-0.9,0.2-1.6,1-1.6,2v32.1
				c0,0.6,0.3,1.3,0.8,1.6l7.3,5.2l-9.1,10.4c-0.4,0.4-0.5,0.9-0.5,1.5c0,0.5,0.3,1,0.7,1.4l2.1,1.8c0.4,0.3,0.8,0.5,1.3,0.5
				c0.2,0,0.4,0,0.6-0.1c3.9-1.3,7.5-2,10.9-2c3.1,0,7,0.6,11.9,2c0.2,0,0.4,0.1,0.5,0.1c0.3,0,0.6-0.1,0.9-0.2
				c3.5-1.7,5.2-2.5,5.3-2.6c4.9-2.4,7.4-5,7.8-8c0-0.1,0-0.2,0-0.3V67c0-1.1-0.5-2.9-3.9-7.8c-2.1-3.2-3.1-5.7-3.1-7.5V30.5
				l5.3,0.8c0.1,0,0.2,0,0.3,0c0.5,0,0.9-0.2,1.3-0.5c0.4-0.4,0.7-0.9,0.7-1.5v-9.3c0-0.7-0.4-1.4-1-1.7c-0.3-0.2-0.6-0.3-1-0.3
				c-0.4,0-0.7,0.1-1.1,0.3l-6.4,4L540,16C539.7,15.9,539.4,15.8,539.2,15.8L539.2,15.8z M534.8,51.1V27l8.3,2.4v20l-4.3,4.4
				L534.8,51.1L534.8,51.1z M535.8,66l7.8-8.7c0.7,2.2,1.7,4.2,3,6.2c0.7,1,1.8,2.3,3.1,3.7c-3.7-0.8-7.3-1.3-10.7-1.3
				C538,65.9,536.8,65.9,535.8,66L535.8,66z"/>
		</g>
		<g>
			<path class="st0" d="M576.4,64.9c-0.3,0-0.5-0.1-0.7-0.3c-4.8-4.5-7.3-9-7.3-13.2c0-6.1,3.2-12.2,9.5-18l-4.4-11.6
				c-0.1-0.3-0.1-0.7,0.1-1c0.2-0.3,0.5-0.4,0.8-0.4c0,0,1.3,0.1,1.3,0.1c0.3,0,0.6,0,0.9,0c3,0,5.8-1.2,8.4-3.6
				c0.2-0.2,0.4-0.3,0.7-0.3c0.1,0,0.2,0,0.3,0.1l13.4,4.4l2.3-1.8c0.2-0.1,0.4-0.2,0.6-0.2c0.1,0,0.1,0,0.2,0
				c0.3,0.1,0.5,0.3,0.7,0.5l0.2,0.4c0.2,0.3,0.1,0.7-0.1,1c-1.5,2.3-2.5,4.6-3.2,7.1v25.3c0.3,1,0.9,1.7,1.7,2.1l1.4-0.7
				c0.1-0.1,0.3-0.1,0.4-0.1c0.2,0,0.5,0.1,0.6,0.2l1.1,0.9c0.2,0.2,0.4,0.5,0.4,0.8s-0.1,0.6-0.4,0.8l-8.4,7
				c-0.2,0.2-0.4,0.2-0.6,0.2c-0.2,0-0.3,0-0.5-0.1c-3.9-2.1-6.1-5.3-6.7-9.5l-11.8,9.5c-0.2,0.1-0.4,0.2-0.6,0.2H576.4z
				 M580.5,36.4c-1.5,2.9-2.3,5.7-2.3,8.3c0,3.9,1.6,7.5,4.7,10.9l6.3-5.3v-9.5L580.5,36.4z M589.2,36.8v-8.5L577.7,24l3.2,8.7
				L589.2,36.8z"/>
			<path class="st0" d="M585.8,17.7l13.9,4.6l2.7-2.2l0.2,0.4c-1.6,2.4-2.6,4.9-3.3,7.5v25.6c0.5,1.7,1.5,2.6,2.7,3l1.8-0.9l1.1,0.9
				l-8.4,7c-4.2-2.2-6.3-5.8-6.3-10.6l-13.3,10.7h-0.5c-4.6-4.3-6.9-8.5-6.9-12.5c0-6.1,3.2-11.9,9.7-17.7l-4.7-12.2l1.3,0.1
				c0.3,0,0.7,0,1,0C580,21.6,583,20.3,585.8,17.7 M590.2,38.4V27.6L576,22.3l4.1,11.1L590.2,38.4 M583,56.9l7.3-6.3V40.1L580.1,35
				c-1.9,3.3-2.8,6.6-2.8,9.6C577.3,49,579.1,53.1,583,56.9 M585.8,15.7c-0.5,0-1,0.2-1.4,0.5c-2.4,2.2-4.9,3.3-7.7,3.3
				c-0.3,0-0.6,0-0.9,0l-1.3-0.1c-0.1,0-0.1,0-0.2,0c-0.6,0-1.2,0.3-1.6,0.8c-0.4,0.6-0.5,1.3-0.3,1.9l4.2,11
				c-6.2,5.9-9.3,12-9.3,18.2c0,4.6,2.5,9.3,7.6,14c0.4,0.3,0.9,0.5,1.4,0.5h0.5c0.5,0,0.9-0.2,1.3-0.4l10.5-8.4
				c0.9,3.7,3.2,6.5,6.9,8.5c0.3,0.2,0.6,0.2,0.9,0.2c0.5,0,0.9-0.2,1.3-0.5l8.4-7c0.5-0.4,0.7-0.9,0.7-1.5c0-0.6-0.3-1.2-0.7-1.5
				l-1.1-0.9c-0.4-0.3-0.8-0.5-1.3-0.5c-0.3,0-0.6,0.1-0.9,0.2l-0.9,0.4c-0.3-0.2-0.5-0.6-0.7-1.1v-25c0.6-2.3,1.6-4.5,3-6.7
				c0.4-0.6,0.4-1.3,0.1-2l-0.2-0.4c-0.3-0.5-0.8-0.9-1.4-1.1c-0.1,0-0.3,0-0.4,0c-0.4,0-0.9,0.1-1.2,0.4l-1.9,1.5l-12.9-4.3
				C586.2,15.8,586,15.7,585.8,15.7L585.8,15.7z M581.7,32l-2.3-6.3l8.8,3.3v6.2L581.7,32L581.7,32z M583.1,54.2
				c-2.6-3-3.8-6.1-3.8-9.6c0-2.2,0.6-4.5,1.7-6.9l7.3,3.6v8.4L583.1,54.2L583.1,54.2z"/>
		</g>
		<g>
			<path class="st0" d="M622.3,77.4c-4.4,0-7.6-3.3-7.6-7.6c0-2.3,0.8-4.4,2.3-6.1c0,0,0.1-0.1,0.1-0.1l4.7-3.8c2-1.8,3.4-3.1,4-4.1
				c0.9-1.3,1.3-2.8,1.3-4.5c0-4.1-2.3-6-7-6c-1.8,0-3.8,0.3-6.1,0.8c-0.1,0-0.1,0-0.2,0c-0.4,0-0.7-0.2-0.9-0.5
				c-0.2-0.4-0.1-0.9,0.2-1.2l12.9-12.7l-7-6.6l-4.7,3.1c-0.2,0.1-0.4,0.2-0.5,0.2c-0.1,0-0.1,0-0.2,0c-0.3-0.1-0.5-0.2-0.6-0.4
				l-0.9-1.4c-0.3-0.5-0.2-1.1,0.3-1.4l12-8.1c0.2-0.1,0.4-0.2,0.6-0.2c0.3,0,0.5,0.1,0.7,0.3c1,1,2.6,2.4,4.9,4.5
				c2.2,1.8,4.1,2.8,5.8,3.1c0.4,0.1,0.7,0.3,0.8,0.7s0,0.8-0.2,1l-10.3,10.3c2.8,0.3,5.1,1.2,7.3,2.6c3,2.2,4.5,5.2,4.5,8.9
				c0,4.7-2.2,8.4-6.6,11.3l-0.3,0.2c-1.2,0.7-4.8,2.7-11.1,6.2c-1.8,1.1-2.7,2.5-2.7,4.4c0,1.3,0.7,2.2,2.3,2.7
				c0.3,0,1-0.2,1.5-0.3c0.8-0.2,1.6-0.3,2.1-0.3c1.8,0,2.5,1.1,2.5,2.1c0,0.8-0.6,2-3.3,2.8C622.5,77.4,622.4,77.4,622.3,77.4z"/>
			<path class="st0" d="M624.8,17.8c1.1,1.1,2.7,2.5,5,4.5c2.2,1.9,4.3,3,6.3,3.3l-11.9,11.9c3.6,0,6.6,0.9,9,2.5
				c2.7,2,4.1,4.7,4.1,8.1c0,4.4-2.1,7.8-6.2,10.5c-0.7,0.4-4.4,2.5-11.3,6.4c-2.2,1.3-3.2,3-3.2,5.3c0,1.9,1.1,3.1,3.1,3.7
				c0.8,0,2.9-0.6,3.7-0.6c1,0,1.5,0.4,1.5,1.1s-0.9,1.4-2.5,1.9c-3.8,0-6.6-2.8-6.6-6.6c0-2.1,0.7-3.9,2.1-5.4l4.7-3.8
				c2.1-1.8,3.5-3.2,4.2-4.3c1-1.5,1.5-3.1,1.5-5c0-4.8-2.9-7-8-7c-2,0-4.1,0.3-6.4,0.8l13.7-13.4l-8.3-7.8l-5.4,3.5l-0.9-1.4
				L624.8,17.8 M624.8,15.8c-0.4,0-0.8,0.1-1.1,0.3l-12,8.1c-0.9,0.6-1.2,1.8-0.6,2.7l0.9,1.4c0.3,0.4,0.7,0.8,1.3,0.9
				c0.1,0,0.3,0,0.4,0c0.4,0,0.8-0.1,1.1-0.3l4.1-2.7l5.6,5.3l-12.2,11.9c-0.6,0.6-0.8,1.6-0.4,2.4c0.4,0.7,1,1.1,1.8,1.1
				c0.1,0,0.3,0,0.4,0c2.2-0.5,4.2-0.7,5.9-0.7c5.3,0,6,2.7,6,5c0,1.5-0.4,2.7-1.1,3.9c-0.4,0.6-1.4,1.8-3.8,3.9l-4.7,3.8
				c-0.1,0.1-0.1,0.1-0.2,0.2c-1.7,1.8-2.6,4.1-2.6,6.7c0,4.9,3.7,8.6,8.6,8.6c0.2,0,0.4,0,0.6-0.1c3.3-1,4-2.6,4-3.8
				c0-1.5-1.1-3.1-3.5-3.1c-0.5,0-1.2,0.1-2.3,0.3c-0.4,0.1-0.9,0.2-1.2,0.2c-1.4-0.5-1.4-1.3-1.4-1.7c0-1.5,0.7-2.6,2.2-3.5
				c6.3-3.5,9.9-5.5,11.1-6.2l0.3-0.2c0,0,0.1,0,0.1-0.1c4.7-3,7.1-7.1,7.1-12.1c0-4.1-1.7-7.4-4.9-9.7c-1.8-1.2-3.7-2-5.8-2.5l9-9
				c0.5-0.5,0.7-1.3,0.5-2s-0.9-1.2-1.6-1.4c-1.5-0.2-3.2-1.2-5.3-2.9c-2.3-2-3.9-3.4-4.9-4.4C625.8,16,625.3,15.8,624.8,15.8
				L624.8,15.8z"/>
		</g>
		<g>
			<path class="st0" d="M654,65c-0.2,0-0.3,0-0.5-0.1c-4.8-2.5-7-6.2-6.7-10.8l0.1-1.7l0-25.1l-2.6-2.7c-0.2-0.2-0.3-0.5-0.3-0.7
				c0-0.3,0.1-0.5,0.4-0.7l7.2-6c0.2-0.2,0.4-0.2,0.6-0.2c0.2,0,0.5,0.1,0.6,0.2l7.5,6.3c0.2,0.2,0.3,0.4,0.4,0.7
				c0,0.3-0.1,0.5-0.3,0.7l-2.2,2.5v26.6c0.2,0.8,0.8,1.5,1.7,2.1l1.3-0.8c0.2-0.1,0.4-0.2,0.6-0.2c0.2,0,0.5,0.1,0.7,0.3l1,0.9
				c0.2,0.2,0.3,0.5,0.3,0.8c0,0.3-0.1,0.6-0.4,0.8l-8.9,7.2C654.5,64.9,654.3,65,654,65z M650.8,14.4c-0.3,0-0.6-0.1-0.8-0.4
				c-0.2-0.2-0.3-0.6-0.2-0.8l2.3-10c0.1-0.5,0.5-0.8,1-0.8h7.2c0.4,0,0.7,0.2,0.9,0.6c0.2,0.4,0.1,0.8-0.1,1.1l-8.3,10
				c-0.2,0.2-0.5,0.4-0.8,0.4H650.8z"/>
			<path class="st0" d="M660.4,3.5l-8.3,10h-1.3l2.3-10H660.4 M652.4,17.8l7.5,6.3l-2.4,2.7v27.1c0.3,1.3,1.2,2.3,2.7,3.1l1.8-1.2
				l1,0.9L654,64c-4.4-2.3-6.5-5.7-6.2-9.9l0.1-1.8V26.8l-2.8-3L652.4,17.8 M660.4,1.5h-7.2c-0.9,0-1.7,0.6-1.9,1.5l-2.3,10
				c-0.1,0.6,0,1.2,0.4,1.7c0.4,0.5,1,0.8,1.6,0.8h1.3c0.6,0,1.2-0.3,1.5-0.7l8.3-10c0.5-0.6,0.6-1.4,0.3-2.1S661.2,1.5,660.4,1.5
				L660.4,1.5z M660.4,5.5L660.4,5.5L660.4,5.5L660.4,5.5z M652.4,15.8c-0.5,0-0.9,0.2-1.3,0.5l-7.2,6c-0.4,0.4-0.7,0.9-0.7,1.4
				c0,0.6,0.2,1.1,0.5,1.5l2.3,2.5v24.7l-0.1,1.7c-0.2,3.5,0.8,8.3,7.2,11.8c0.3,0.2,0.6,0.2,0.9,0.2c0.5,0,0.9-0.2,1.3-0.4l8.9-7.2
				c0.5-0.4,0.7-0.9,0.7-1.5s-0.2-1.1-0.7-1.5l-1-0.9c-0.4-0.3-0.9-0.5-1.3-0.5c-0.4,0-0.8,0.1-1.1,0.3l-0.7,0.5
				c-0.5-0.4-0.6-0.8-0.7-1V27.6l1.9-2.2c0.4-0.4,0.5-0.9,0.5-1.5c0-0.5-0.3-1-0.7-1.4l-7.5-6.3C653.3,16,652.8,15.8,652.4,15.8
				L652.4,15.8z"/>
		</g>
		<g>
			<path class="st0" d="M702.2,65.1c-0.2,0-0.4-0.1-0.5-0.2c-4.9-3.1-6.4-6.2-6.4-12.6V29.4l-3.5-3l-5.9,4.3v23.4l2.4,3.1
				c0.3,0.4,0.3,1-0.1,1.4l-7,6.3c-0.2,0.2-0.4,0.3-0.7,0.3c-0.2,0-0.5-0.1-0.6-0.2l-7.4-6.3c-0.2-0.2-0.3-0.4-0.4-0.7
				s0.1-0.5,0.3-0.7l2.5-2.7V29.7c0-1.2-0.5-2.3-1.4-3.2l-0.9,0.6c-0.2,0.1-0.4,0.2-0.6,0.2c-0.3,0-0.5-0.1-0.7-0.3l-1-1.1
				c-0.4-0.4-0.3-1,0.1-1.4l8-7.3c0.2-0.2,0.4-0.3,0.7-0.3c0.2,0,0.4,0,0.5,0.1c3.8,2.3,6,5.4,6.5,9.2c4.5-3.4,8.3-6.4,11-8.9
				c0.2-0.2,0.4-0.3,0.7-0.3c0.2,0,0.5,0.1,0.7,0.3l6.1,5.7l3.5-2.8c0.2-0.1,0.4-0.2,0.6-0.2c0.3,0,0.5,0.1,0.7,0.3l1,1.1
				c0.3,0.4,0.3,0.9,0,1.3c-1.5,1.9-2.9,3.9-4.1,5.8v25.2c0.4,0.8,1,1.5,1.8,2.1l1.5-0.9c0.2-0.1,0.3-0.1,0.5-0.1
				c0.3,0,0.5,0.1,0.7,0.3l1,1c0.2,0.2,0.3,0.5,0.3,0.8c0,0.3-0.1,0.5-0.4,0.7l-8.8,7.2C702.7,65,702.5,65.1,702.2,65.1z"/>
			<path class="st0" d="M679,17.8c4.1,2.4,6.2,5.9,6.2,10.3c5.5-4,9.7-7.4,12.5-10.1l6.7,6.3l4.2-3.3l1,1.1
				c-1.5,1.9-2.9,3.9-4.3,6.2v25.7c0.5,1.2,1.5,2.2,2.7,3.1l2.1-1.2l1,1l-8.8,7.2c-4.7-3-6-5.9-6-11.7V29l-4.4-3.8l-6.9,5.1v24.2
				l2.6,3.3l-7,6.3l-7.4-6.3l2.7-3V29.7c0-1.7-0.8-3.2-2.3-4.5l-1.6,1.1l-1-1.1L679,17.8 M679,15.8c-0.5,0-1,0.2-1.4,0.5l-8,7.3
				c-0.8,0.7-0.9,2-0.1,2.8l1,1.1c0.4,0.4,0.9,0.7,1.5,0.7c0.4,0,0.8-0.1,1.1-0.4l0.2-0.1c0.4,0.6,0.6,1.2,0.6,1.9V54l-2.2,2.5
				c-0.4,0.4-0.5,0.9-0.5,1.5s0.3,1,0.7,1.4l7.4,6.3c0.4,0.3,0.8,0.5,1.3,0.5c0.5,0,1-0.2,1.3-0.5l7-6.3c0.8-0.7,0.9-1.9,0.2-2.7
				l-2.2-2.8V31.3l4.8-3.5l2.5,2.2v22.5c0,6.7,1.7,10.1,6.9,13.4c0.3,0.2,0.7,0.3,1.1,0.3c0.5,0,0.9-0.2,1.3-0.5l8.8-7.2
				c0.4-0.4,0.7-0.9,0.7-1.4c0-0.6-0.2-1.1-0.6-1.5l-1-1c-0.4-0.4-0.9-0.6-1.4-0.6c-0.3,0-0.7,0.1-1,0.3l-0.9,0.5
				c-0.4-0.4-0.7-0.8-0.9-1.2V28.8c1.1-1.8,2.4-3.7,3.9-5.5c0.6-0.8,0.6-1.9-0.1-2.6l-1-1.1c-0.4-0.4-0.9-0.7-1.5-0.7
				c-0.4,0-0.9,0.1-1.2,0.4l-2.9,2.3l-5.5-5.1c-0.4-0.4-0.9-0.5-1.4-0.5c-0.5,0-1,0.2-1.4,0.5c-2.4,2.2-5.7,4.9-9.6,7.9
				c-0.9-3.4-3.1-6.2-6.7-8.3C679.7,15.9,679.3,15.8,679,15.8L679,15.8z"/>
		</g>
		<g>
			<path class="st0" d="M733,64.7c-0.2,0-0.3,0-0.5-0.1c-4.3-2.3-8.7-3.9-13.2-4.8c-0.4-0.1-0.7-0.3-0.8-0.7c-0.1-0.3,0-0.7,0.2-1
				c1.7-1.7,2.5-3.9,2.5-6.4V25.6c0-0.4,0.2-0.7,0.6-0.9c4.2-1.9,8.5-4.4,13-7.6c0.2-0.1,0.4-0.2,0.6-0.2c0.3,0,0.5,0.1,0.7,0.3
				l12.6,12.6c0.2,0.2,0.3,0.5,0.3,0.8c0,0.3-0.2,0.6-0.4,0.7c-7,4.9-12.4,9-16.5,12.4v9.1l7.1,3.1l6-3.8c0.2-0.1,0.4-0.2,0.5-0.2
				c0.3,0,0.5,0.1,0.7,0.3l1.1,1.2c0.2,0.2,0.3,0.5,0.3,0.8c0,0.3-0.2,0.6-0.4,0.7c-1.8,1.2-3.6,2.4-5.3,3.6l-8.5,6
				C733.4,64.6,733.2,64.7,733,64.7z M732.1,38.9l6.8-5.4l-6.8-6.9V38.9z"/>
			<path class="st0" d="M735.5,17.8l12.6,12.6c-7.1,5-12.7,9.2-16.9,12.8v10.2l8.2,3.6l6.5-4.1l1.1,1.2c-1.7,1.1-3.4,2.2-5.4,3.6
				l-8.5,6c-4.3-2.3-8.8-4-13.5-4.9c1.9-2,2.7-4.3,2.7-7.1V25.6C726.8,23.5,731.2,20.9,735.5,17.8 M731.1,41l9.3-7.3l-9.3-9.5V41
				 M735.5,15.8c-0.4,0-0.8,0.1-1.2,0.4c-4.5,3.2-8.7,5.6-12.9,7.5c-0.7,0.3-1.2,1-1.2,1.8v26.1c0,2.4-0.7,4.2-2.2,5.8
				c-0.5,0.5-0.7,1.3-0.5,2s0.8,1.2,1.5,1.4c4.4,0.8,8.7,2.4,12.9,4.7c0.3,0.2,0.6,0.2,1,0.2c0.4,0,0.8-0.1,1.1-0.4l8.5-6
				c1.7-1.2,3.5-2.4,5.3-3.6c0.5-0.3,0.8-0.8,0.9-1.4c0.1-0.6-0.1-1.2-0.5-1.6l-1.1-1.2c-0.4-0.4-0.9-0.6-1.5-0.6
				c-0.4,0-0.7,0.1-1.1,0.3l-5.6,3.5l-6-2.7v-7.9c4-3.4,9.3-7.3,16.1-12.1c0.5-0.3,0.8-0.9,0.8-1.5s-0.2-1.2-0.6-1.6l-12.6-12.6
				C736.5,16,736,15.8,735.5,15.8L735.5,15.8z M733.1,36.9v-7.8l4.3,4.4L733.1,36.9L733.1,36.9z"/>
		</g>
	</g>
</g>
</svg>
